<svg width="502" height="502" viewBox="0 0 502 502" fill="none" xmlns="http://www.w3.org/2000/svg">
<path d="M366.475 40.3569H136.255C130.732 40.3569 126.255 44.8339 126.255 50.3569V86.3289C126.255 91.8519 130.732 96.3289 136.255 96.3289H366.475C371.997 96.3289 376.475 91.8519 376.475 86.3289V50.3569C376.475 44.8339 371.997 40.3569 366.475 40.3569ZM356.475 76.3289H146.255V60.3569H356.475V76.3289Z" fill="black"/>
<path d="M89.4919 165.874H233.379C238.902 165.874 243.379 161.397 243.379 155.874C243.379 150.351 238.902 145.874 233.379 145.874H89.4919C83.9689 145.874 79.4919 150.351 79.4919 155.874C79.4919 161.397 83.9689 165.874 89.4919 165.874Z" fill="black"/>
<path d="M274.146 165.874H292.132C297.654 165.874 302.132 161.397 302.132 155.874C302.132 150.351 297.654 145.874 292.132 145.874H274.146C268.624 145.874 264.146 150.351 264.146 155.874C264.146 161.397 268.624 165.874 274.146 165.874Z" fill="black"/>
<path d="M117.945 386.881C135.365 386.881 149.538 372.709 149.538 355.289C149.538 337.869 135.366 323.696 117.945 323.696C100.524 323.696 86.3521 337.868 86.3521 355.289C86.3521 372.709 100.524 386.881 117.945 386.881ZM117.945 343.696C124.337 343.696 129.538 348.897 129.538 355.289C129.538 361.681 124.337 366.881 117.945 366.881C111.553 366.881 106.352 361.681 106.352 355.289C106.352 348.897 111.553 343.696 117.945 343.696Z" fill="black"/>
<path d="M384.055 386.881C401.475 386.881 415.648 372.709 415.648 355.289C415.648 337.869 401.475 323.696 384.055 323.696C366.635 323.696 352.463 337.868 352.463 355.289C352.463 372.709 366.635 386.881 384.055 386.881ZM384.055 343.696C390.448 343.696 395.648 348.897 395.648 355.289C395.648 361.681 390.448 366.881 384.055 366.881C377.663 366.881 372.463 361.681 372.463 355.289C372.463 348.897 377.663 343.696 384.055 343.696Z" fill="black"/>
<path d="M492 187.135H461.607V58.3259C461.607 30.7929 439.208 8.39294 411.674 8.39294H90.326C62.793 8.39294 40.393 30.7929 40.393 58.3259V187.135H10C4.477 187.135 0 191.612 0 197.135V287.51C0 293.033 4.477 297.51 10 297.51H40.393V420.865C40.393 426.388 44.87 430.865 50.393 430.865H58.144V460.226C58.144 478.633 73.119 493.607 91.526 493.607H97.521C115.928 493.607 130.903 478.632 130.903 460.226V430.865H371.098V460.226C371.098 478.633 386.073 493.607 404.48 493.607H410.475C428.882 493.607 443.857 478.632 443.857 460.226V430.865H451.608C457.13 430.865 461.608 426.388 461.608 420.865V297.51H492C497.522 297.51 502 293.033 502 287.51V197.135C502 191.612 497.522 187.135 492 187.135ZM40.167 277.51H20V207.135H40.167V277.51ZM110.902 460.227C110.902 467.605 104.899 473.608 97.52 473.608H91.525C84.146 473.608 78.143 467.605 78.143 460.227V430.866H110.902C110.902 430.866 110.902 460.227 110.902 460.227ZM423.856 460.227C423.856 467.605 417.853 473.608 410.474 473.608H404.479C397.1 473.608 391.097 467.605 391.097 460.227V430.866H423.856V460.227ZM441.608 410.866H60.393V297.771H441.608V410.866V410.866ZM441.608 277.771H441.607H397.588C397.058 277.487 396.5 277.24 395.907 277.05L268.808 236.281C263.547 234.593 257.917 237.49 256.231 242.749C254.545 248.008 257.44 253.639 262.699 255.325L332.676 277.77H230.919L102.138 236.281C96.877 234.593 91.248 237.489 89.562 242.749C87.875 248.008 90.771 253.639 96.03 255.325L166.007 277.77H60.393V128.703H441.608V277.771V277.771ZM441.608 108.703H60.393V58.3259C60.393 41.8209 73.821 28.3929 90.326 28.3929H411.675C428.18 28.3929 441.608 41.8209 441.608 58.3259V108.703V108.703ZM482 277.51H461.833V207.135H482V277.51Z" fill="black"/>
</svg>
