<svg width="510" height="510" viewBox="0 0 510 510" fill="none" xmlns="http://www.w3.org/2000/svg">
<g clip-path="url(#clip0_415_194)">
<path d="M496.7 437.055L389.295 328.268L383.261 322.156L371.158 334.261L308.776 271.879C329.668 243.56 342.025 208.559 342.025 170.666C342.025 170.506 342.019 170.348 342.019 170.188H342.047L342.011 169.538C341.477 87.144 282.565 18.619 204.559 3.238C204.483 3.223 204.406 3.209 204.33 3.194C203.087 2.951 201.841 2.719 200.589 2.503C200.404 2.471 200.217 2.442 200.032 2.411C198.879 2.216 197.723 2.028 196.562 1.856C196.269 1.813 195.975 1.775 195.681 1.733C194.617 1.581 193.552 1.433 192.481 1.301C192.08 1.251 191.676 1.21 191.274 1.163C190.301 1.05 189.328 0.937 188.35 0.84C187.835 0.789 187.316 0.749 186.8 0.702C185.924 0.623 185.049 0.542 184.169 0.477C183.523 0.429 182.872 0.395 182.224 0.354C181.464 0.306 180.706 0.252 179.944 0.215C179.104 0.173 178.26 0.148 177.417 0.119C176.835 0.099 176.256 0.07 175.673 0.055C174.239 0.019 172.8 0 171.358 0C170.042 0 168.727 0.019 167.413 0.05C166.647 0.067 165.884 0.098 165.12 0.125C164.67 0.142 164.219 0.156 163.769 0.176C73.0359 4.148 0.690918 78.952 0.690918 170.667C0.690918 216.826 19.0229 258.696 48.7929 289.417C48.8369 289.463 48.8819 289.508 48.9259 289.553C50.1799 290.844 51.4529 292.116 52.7459 293.367C52.7969 293.416 52.8469 293.466 52.8979 293.515C55.5039 296.029 58.1909 298.457 60.9529 300.803C61.1339 300.957 61.3159 301.11 61.4979 301.264C64.2659 303.595 67.1059 305.841 70.0199 307.995C70.0629 308.026 70.1059 308.057 70.1479 308.089C71.5879 309.152 73.0469 310.19 74.5219 311.208C74.5919 311.256 74.6609 311.305 74.7309 311.353C96.0979 326.057 120.979 336.016 147.86 339.718C147.987 339.736 148.114 339.754 148.241 339.771C151.867 340.262 155.527 340.641 159.222 340.901C159.608 340.928 159.995 340.95 160.381 340.974C161.784 341.063 163.191 341.135 164.602 341.19C165.077 341.209 165.552 341.229 166.028 341.244C167.799 341.298 169.574 341.335 171.358 341.335C209.25 341.335 244.253 328.979 272.572 308.086L334.957 370.471L322.93 382.5L436.32 497.357C453.02 514.057 480.038 514.057 496.7 497.396C513.362 480.735 513.362 453.717 496.7 437.055ZM281.452 181.222C271.163 197.186 247.446 189.231 233.764 168.537C233.233 167.732 232.8 166.672 232.431 165.243C232.139 164.115 232.039 163.578 231.537 160.618C230.248 153.023 228.89 149.482 223.577 146.634C217.959 143.622 211.398 144.779 201.934 149.096C188.94 155.107 186.751 155.859 185.275 155.488C184.174 155.211 182.363 154.1 178.392 151.049C177.407 150.291 176.685 149.161 175.805 146.923C175.569 146.323 175.365 145.767 174.877 144.416C170.456 132.273 163.091 127.423 147.532 131.155C145.916 131.541 144.431 131.881 143.073 132.178C147.838 123.143 149.856 114.847 147.902 106.15C149.696 106.926 151.863 107.895 154.505 109.097C154.98 109.313 154.98 109.313 155.458 109.53C169.875 116.071 175.387 117.886 181.878 115.564C197.943 109.816 202.316 86.561 190.744 74.175C190.591 74.012 190.692 71.674 191.718 70.304C192.201 69.659 192.123 69.66 195.053 72.593C207.451 85.189 223.138 76.113 231.412 59.172C236.013 49.752 237.656 39.661 235.6 31.148C283.094 53.105 317.569 98.681 323.753 153.123H319.009C309.454 144.082 300.578 141.364 292.827 147.111C287.278 151.225 284.926 157.797 283.21 168.255C282.977 169.676 282.764 171.124 282.517 172.93C282.459 173.35 282.064 176.291 281.955 177.074C281.566 179.845 281.17 181.659 281.452 181.222ZM116.06 41.001C120.148 34.625 122.709 29.828 124.33 24.586C137.553 20.309 151.106 17.816 164.84 17.214C165.3 17.195 165.76 17.177 166.221 17.162C166.787 17.142 167.353 17.124 167.919 17.111C169.062 17.086 170.208 17.067 171.357 17.067C172.639 17.067 173.917 17.084 175.192 17.116C175.681 17.128 176.167 17.152 176.655 17.168C177.433 17.194 178.211 17.219 178.986 17.257C179.604 17.287 180.22 17.33 180.836 17.367C181.471 17.406 182.107 17.441 182.74 17.488C183.439 17.539 184.135 17.602 184.832 17.663C185.369 17.71 185.907 17.754 186.443 17.806C187.216 17.882 187.987 17.968 188.757 18.055C189.202 18.105 189.647 18.154 190.091 18.208C190.935 18.311 191.776 18.423 192.616 18.54C192.971 18.589 193.327 18.637 193.682 18.689C194.601 18.823 195.518 18.966 196.432 19.117C196.688 19.159 196.944 19.201 197.2 19.244C198.206 19.415 199.208 19.595 200.207 19.785C200.28 19.799 200.353 19.813 200.425 19.827C199.372 20.276 198.18 20.786 196.812 21.373C196.196 21.637 196.196 21.637 195.582 21.9C187.221 25.471 182.471 27.098 180.557 27.087C167.833 27.02 159.106 31.357 143.119 42.818C142.591 43.196 142.591 43.196 142.067 43.573C134.405 49.071 130.851 51.398 126.551 53.48C119.236 57.017 111.533 48.061 116.06 41.001ZM100.168 34.537C89.9439 55.394 111.968 79.491 133.986 68.84C139.463 66.188 143.561 63.505 152.017 57.437C152.542 57.06 152.542 57.06 153.064 56.686C166.203 47.266 172.556 44.109 180.461 44.151C185.769 44.183 191.262 42.301 202.287 37.592C202.916 37.323 202.916 37.323 203.542 37.055C210.879 33.907 212.811 33.109 215.466 32.211C216.139 31.983 216.734 31.8 217.241 31.661C220.29 35.442 220.12 43.402 216.077 51.682C213.978 55.979 211.229 59.287 208.911 60.628C207.809 61.265 207.853 61.269 207.17 60.575C197.181 50.58 185.093 50.682 178.059 60.072C172.436 67.577 171.945 79.049 178.271 85.825C181.771 89.571 180.177 98.047 176.13 99.496C176.103 99.506 170.869 97.782 162.509 93.989C162.041 93.777 162.041 93.777 161.572 93.563C150.07 88.33 146.551 86.923 141.832 86.399C129.412 85.02 125.328 95.207 130.32 107.027C132.618 112.513 131.477 117.991 127.248 125.558C126.693 126.55 123.738 131.51 123.044 132.828C120.541 137.571 119.664 141.021 122.231 145.442C126.502 152.797 132.343 152.326 151.503 147.755C157.934 146.213 157.19 145.723 158.841 150.257C159.323 151.593 159.603 152.356 159.922 153.169C161.831 158.027 164.117 161.601 167.991 164.582C173.786 169.034 177.005 171.01 181.117 172.043C188.352 173.861 191.087 172.921 209.059 164.608C211.291 163.59 213.123 162.89 214.538 162.48C214.592 162.776 214.65 163.107 214.713 163.477C215.312 167.005 215.445 167.72 215.909 169.516C216.715 172.636 217.841 175.391 219.522 177.942C238.913 207.269 276.785 219.972 295.798 190.474C297.481 187.865 298.035 185.323 298.858 179.442C298.975 178.604 299.375 175.629 299.427 175.25C299.656 173.58 299.848 172.27 300.053 171.021C300.804 166.445 301.742 163.221 302.426 161.722C304.06 162.592 306.397 164.487 309.292 167.536L311.815 170.193H324.954C324.954 170.353 324.96 170.511 324.96 170.671C324.96 205.762 313.185 238.097 293.382 263.96L290.761 267.197C283.955 275.603 276.298 283.263 267.888 290.078L264.881 292.515C252.193 302.269 237.939 310.083 222.56 315.519V310.739L245.661 287.638C247.261 286.038 248.16 283.867 248.16 281.604V256C248.16 251.287 244.34 247.467 239.627 247.467H205.494V230.4C205.494 226.727 203.144 223.466 199.659 222.305L174.059 213.772C173.189 213.482 172.278 213.334 171.361 213.334H146.884L125.987 207.737L112.853 199.472C110.884 198.233 108.494 197.852 106.238 198.416L70.2099 207.427L68.4669 208.071L50.4449 217.074C49.6229 217.485 48.8729 218.025 48.2229 218.675L31.8699 235.036C22.8199 215.456 17.7609 193.654 17.7609 170.666C17.7579 111.528 51.1839 60.206 100.168 34.537ZM166.719 324.191C166.289 324.178 165.862 324.158 165.433 324.142C164.261 324.097 163.092 324.041 161.926 323.97C161.521 323.945 161.116 323.921 160.712 323.893C159.284 323.795 157.859 323.681 156.439 323.543C156.354 323.535 156.268 323.529 156.182 323.52C152.903 323.197 149.65 322.769 146.425 322.241C146.366 322.231 146.308 322.222 146.249 322.212C125.047 318.714 105.096 310.844 87.5069 299.37C87.4799 299.352 87.4529 299.334 87.4249 299.316C86.1329 298.472 84.8539 297.607 83.5879 296.724C83.5149 296.673 83.4409 296.623 83.3679 296.572C80.7849 294.764 78.2569 292.876 75.7879 290.912C75.6729 290.82 75.5589 290.727 75.4439 290.635C74.3429 289.754 73.2549 288.857 72.1779 287.945C72.0299 287.82 71.8819 287.696 71.7339 287.57C69.3349 285.524 66.9959 283.404 64.7219 281.21C64.6989 281.188 64.6759 281.165 64.6529 281.142C63.5199 280.046 62.4029 278.932 61.3019 277.801C61.2689 277.767 61.2359 277.734 61.2029 277.7C53.2799 269.541 46.2159 260.457 40.1849 250.569L41.7619 249.234L59.3029 231.724L75.2519 223.757L106.84 215.856L117.983 222.868C118.707 223.323 119.494 223.667 120.32 223.889L143.548 230.11C144.268 230.303 145.01 230.401 145.756 230.401H169.971L188.422 236.551V256C188.422 260.713 192.242 264.533 196.955 264.533H231.088V278.065L207.987 301.166C206.387 302.766 205.488 304.937 205.488 307.2V317.875C204.421 318.189 203.416 318.485 202.925 318.628C200.607 319.305 198.74 319.836 196.957 320.32C187.035 323.016 179.485 324.267 171.355 324.267C169.807 324.267 168.262 324.237 166.719 324.191ZM347.022 358.398L285.851 297.227C290.071 293.407 294.099 289.379 297.92 285.158L359.091 346.329L353.07 352.351L347.022 358.398ZM484.632 485.328C474.635 495.325 458.424 495.325 448.427 485.328L346.987 382.575L365.112 364.447L383.189 346.376L484.593 449.085C494.629 459.12 494.629 475.332 484.632 485.328Z" fill="black"/>
</g>
<defs>
<clipPath id="clip0_415_194">
<rect width="510" height="510" fill="white"/>
</clipPath>
</defs>
</svg>
