<svg width="73" height="73" viewBox="0 0 73 73" fill="none" xmlns="http://www.w3.org/2000/svg">
<path d="M67.1279 30.823C67.1279 13.828 53.3049 0 36.3069 0C33.4449 0 30.6899 0.423 28.0599 1.157L27.9979 1.115C27.9839 1.136 27.9729 1.159 27.9579 1.18C15.0129 4.831 5.48389 16.723 5.48389 30.821C5.48389 37.032 7.34589 42.812 10.5169 47.652H6.93389V72.612H65.6819V47.652H62.1009C65.2749 42.816 67.1279 37.034 67.1279 30.823ZM64.0619 29.332H52.9529C52.8439 26.02 52.4699 22.764 51.8039 19.603H61.7559C63.0859 22.601 63.8819 25.886 64.0619 29.332ZM60.1909 16.605H51.0659C49.9509 12.501 48.3859 8.572 46.3419 4.89C52.1589 7.155 57.0219 11.31 60.1909 16.605ZM37.8049 3.069C39.2549 3.147 40.6809 3.307 42.0689 3.602C44.6549 7.612 46.6439 11.98 47.9809 16.607H37.8049V3.069ZM37.8049 19.603H48.7509C49.4589 22.759 49.8509 26.012 49.9699 29.332H37.8069V19.603H37.8049ZM37.8049 32.318H49.9939C49.9319 35.63 49.5889 38.887 48.9319 42.049H37.8049V32.318ZM37.8049 45.042H48.2109C47.9669 45.923 47.6889 46.789 47.4009 47.656H37.8039V45.042H37.8049ZM29.9019 3.763C31.4909 3.39 33.1309 3.157 34.8119 3.068V16.606H24.4059C25.6349 12.062 27.4799 7.743 29.9019 3.763ZM22.6199 29.332C22.6819 26.022 23.0279 22.764 23.6829 19.603H34.8119V29.332H22.6199ZM34.8119 32.318V42.049H23.8639C23.1589 38.892 22.7669 35.636 22.6489 32.318H34.8119ZM25.7049 5.106C23.8059 8.733 22.3459 12.592 21.3259 16.609H12.4219C15.4879 11.483 20.1339 7.407 25.7049 5.106ZM10.8579 19.603H20.6449C20.0259 22.772 19.6869 26.026 19.6239 29.332H8.54889C8.73489 25.886 9.52989 22.601 10.8579 19.603ZM8.55089 32.318H19.6599C19.7699 35.632 20.1439 38.887 20.8119 42.049H10.8599C9.52989 39.048 8.73489 35.769 8.55089 32.318ZM21.5499 45.042C21.7909 45.923 22.0589 46.789 22.3419 47.656H14.2219C13.5819 46.816 12.9699 45.952 12.4239 45.042H21.5499ZM24.9999 66.822V68.277H13.4999V51.988H15.1959H16.9009V65.376H24.9999V66.822ZM24.6349 45.042H34.8099V47.656H25.4929C25.1909 46.789 24.8889 45.928 24.6349 45.042ZM29.8009 68.277H28.1049H26.3999V51.988H28.0959H29.8009V68.277ZM39.7569 68.277H38.1409H36.5239L31.0069 51.988H32.8129H34.6209L38.1999 64.415L41.7669 51.988H43.5139H45.2759L39.7569 68.277ZM59.1139 66.822V68.277H46.7559V51.988H58.7399V53.425V54.881H50.1539V58.336H58.1169V59.732V61.137H50.1539V65.379H59.1189V66.821H59.1139V66.822ZM58.3959 47.656H50.5469C50.8089 46.789 51.0629 45.923 51.2879 45.042H60.1909C59.6459 45.955 59.0339 46.816 58.3959 47.656ZM51.9679 42.05C52.5859 38.883 52.9239 35.626 52.9879 32.319H64.0619C63.8819 35.767 63.0859 39.046 61.7559 42.05H51.9679Z" fill="black"/>
</svg>
