<svg width="300" height="300" viewBox="0 0 300 300" fill="none" xmlns="http://www.w3.org/2000/svg">
<g clip-path="url(#clip0_415_208)">
<path d="M275.231 290.323C271.796 273.963 251.797 256.452 227.42 256.452C216.717 256.452 205.239 258.242 195.562 260.304C207.843 245.241 212.904 223.864 212.904 203.227C212.904 183.103 209.454 167.682 206.57 158.275L226.96 160.859L221.899 152.357C221.759 152.125 208.065 128.691 208.065 91.936C208.065 59.802 208.065 0.000976562 154.839 0.000976562C153.808 0.000976562 130.82 0.169976 118.979 13.99C117.203 13.734 114.91 13.603 112.423 13.961C105.857 14.9 100.8 18.824 97.965 25.1C91.989 27.161 77.42 33.698 77.42 48.389C77.42 58.037 81.441 64.095 86.502 67.744H0V77.421H43.287C23.231 87.464 0 107.26 0 145.161H9.677C9.677 88.64 67.814 78.222 72.962 77.419H91.857C92.36 80.046 93.333 82.785 95.239 85.229C97.145 87.673 99.691 89.385 102.734 90.498C97.315 100.529 100.842 110.346 105.197 116.375C104.882 117.173 104.592 117.991 104.312 118.838C99.386 112.911 91.828 106.451 82.257 106.451C71.607 106.451 67.741 115.132 67.741 120.967V123.386L69.676 124.838C94.832 143.704 91.049 160.209 86.258 181.098C84.293 189.677 82.256 198.551 82.256 208.064C82.256 230.332 87.762 247.775 98.175 260.012C88.802 258.077 77.93 256.451 67.74 256.451C43.367 256.451 23.364 273.962 19.929 290.322H0V300H300V290.323H275.231ZM154.839 9.67698C190.984 9.67698 198.387 42.561 198.387 91.935C198.387 118.509 204.958 138.406 209.468 148.925L202.839 148.098C202.81 148.035 202.762 147.933 202.752 147.904L202.452 148.049L180.354 145.286C178.801 144.313 169.356 137.041 169.356 106.451C169.356 101.201 171.064 93.57 173.038 84.74C175.849 72.169 179.033 57.929 179.033 43.548H169.356C169.356 56.859 166.293 70.548 163.593 82.625C161.493 92.022 159.678 100.131 159.678 106.451C159.678 108.406 159.746 110.206 159.813 112.006L139.955 115.316C140.347 107.961 142.82 99.343 149.202 89.777C163.607 68.172 166.858 45.29 157.912 28.562C153.76 20.806 147.383 15.231 139.636 12.227C147.359 9.76398 154.718 9.67698 154.839 9.67698ZM137.283 142.373L114.198 148.968C104.695 121.523 123.174 106.049 124.001 105.371L117.938 97.823C117.841 97.9 114.314 100.833 110.588 106.223C109.035 102.062 108.856 96.372 114.711 90.517C116.811 88.417 118.979 86.322 121.166 84.207C133.364 72.425 146.782 59.404 152.264 41.423C154.998 53.941 151.195 69.342 141.149 84.41C123.425 110.994 131.36 132.386 137.283 142.373ZM102.892 79.293C101.44 77.454 101.068 74.803 101.087 72.558C101.256 72.568 101.445 72.582 101.614 72.582H111.291V62.905H101.643C99.214 62.876 87.098 62.049 87.098 48.389C87.097 37.858 102.644 33.765 102.784 33.726L105.363 33.082L106.2 30.561C109.224 21.488 117.121 23.216 119.434 23.942L122.942 25.113L124.994 22.036C125.623 21.092 126.359 20.241 127.138 19.433C134.232 19.743 140.459 22.438 145.041 27.17C143.773 48.862 128.894 63.296 114.446 77.246C112.752 78.886 111.098 80.507 109.448 82.133C106.419 81.856 104.183 80.932 102.892 79.293ZM91.935 208.064C91.935 199.645 93.846 191.317 95.69 183.261C100.476 162.426 105.406 140.898 77.787 118.877C78.334 117.377 79.592 116.129 82.258 116.129C91.369 116.129 99.281 127.447 101.889 132.363C101.662 139.519 102.958 147.673 106.849 156.74L108.528 160.659L126.513 155.511C132.005 158.051 145.766 166.146 149.211 184.659C139.577 186.894 120.967 195.348 120.967 227.419V232.258H125.806C126.145 232.258 159.677 231.813 159.677 193.548C159.677 171.513 148.296 158.724 139.035 151.93L154.074 147.628L148.689 141.846C148.254 141.381 142.737 135.212 140.686 125.007L160.568 121.692C163.916 149.108 175.936 154.068 177.503 154.586L195.934 156.923C198.624 164.515 203.226 180.744 203.226 203.225C203.226 219.115 199.389 270.967 150 270.967C111.469 270.966 91.935 249.802 91.935 208.064ZM149.995 194.279C149.714 214.432 137.966 220.239 130.868 221.908C132.556 201.958 143.4 196.034 149.995 194.279ZM29.908 290.323C33.576 279.358 48.595 266.129 67.742 266.129C90.842 266.129 119.153 275.468 119.439 275.56L119.541 275.255C128.275 278.782 138.426 280.645 150.001 280.645C159.916 280.645 168.388 278.729 175.704 275.492L175.728 275.56C176.009 275.468 204.32 266.129 227.42 266.129C246.567 266.129 261.586 279.358 265.254 290.323H29.908V290.323Z" fill="black"/>
<path d="M188.709 164.516H179.032V174.193H188.709V164.516Z" fill="black"/>
<path d="M198.387 179.031H188.71V188.708H198.387V179.031Z" fill="black"/>
<path d="M188.709 193.547H179.032V203.224H188.709V193.547Z" fill="black"/>
<path d="M179.032 212.903H169.355V222.58H179.032V212.903Z" fill="black"/>
<path d="M198.387 212.903H188.71V222.58H198.387V212.903Z" fill="black"/>
<path d="M188.709 232.258H179.032V241.935H188.709V232.258Z" fill="black"/>
<path d="M169.354 241.935H159.677V251.612H169.354V241.935Z" fill="black"/>
<path d="M150 251.612H140.323V261.289H150V251.612Z" fill="black"/>
</g>
<defs>
<clipPath id="clip0_415_208">
<rect width="300" height="300" fill="white"/>
</clipPath>
</defs>
</svg>
