<svg width="296" height="296" viewBox="0 0 296 296" fill="none" xmlns="http://www.w3.org/2000/svg">
<g clip-path="url(#clip0_415_166)">
<path d="M113.164 127.086C90.0223 127.086 71.1953 145.94 71.1953 169.113C71.1953 184.565 83.3743 197.112 84.7613 198.491C87.0463 200.762 90.0583 205.791 91.0353 208.947L94.3873 222.69C95.2053 226.049 98.2153 228.414 101.673 228.414H124.652C128.109 228.414 131.119 226.051 131.938 222.692L135.293 208.944C136.266 205.797 139.277 200.766 141.565 198.491C142.953 197.112 155.129 184.564 155.129 169.113C155.131 145.939 136.305 127.086 113.164 127.086ZM130.99 187.855C126.856 191.966 122.501 199.277 120.859 204.859C120.826 204.971 120.796 205.084 120.768 205.197L118.762 213.415H107.565L105.561 205.199C105.534 205.083 105.502 204.968 105.468 204.853C103.819 199.265 99.4643 191.957 95.3523 187.87C92.8053 185.305 86.1953 176.936 86.1953 169.114C86.1953 154.211 98.2933 142.087 113.164 142.087C128.033 142.087 140.131 154.211 140.131 169.114C140.131 176.935 133.521 185.305 130.99 187.855Z" fill="black"/>
<path d="M212.163 0H14.1631C10.0201 0 6.66309 3.357 6.66309 7.5V288C6.66309 292.143 10.0201 295.5 14.1631 295.5H212.163C216.306 295.5 219.663 292.143 219.663 288V7.5C219.663 3.357 216.306 0 212.163 0ZM204.663 280.5H21.6631V15H204.663V280.5Z" fill="black"/>
<path d="M47.1631 87.75H179.163C183.306 87.75 186.663 84.393 186.663 80.25V40.5C186.663 36.357 183.306 33 179.163 33H47.1631C43.0201 33 39.6631 36.357 39.6631 40.5V80.25C39.6631 84.393 43.0211 87.75 47.1631 87.75ZM54.6631 48H171.663V72.75H54.6631V48V48Z" fill="black"/>
<path d="M121.413 235.25H104.913C100.77 235.25 97.4131 238.607 97.4131 242.75C97.4131 246.893 100.77 250.25 104.913 250.25H121.413C125.556 250.25 128.913 246.893 128.913 242.75C128.913 238.607 125.556 235.25 121.413 235.25Z" fill="black"/>
<path d="M113.427 254.75H112.9C108.757 254.75 105.4 258.107 105.4 262.25C105.4 266.393 108.757 269.75 112.9 269.75H113.427C117.57 269.75 120.927 266.393 120.927 262.25C120.927 258.107 117.569 254.75 113.427 254.75Z" fill="black"/>
<path d="M113.427 118.25C117.57 118.25 120.927 114.893 120.927 110.75C120.927 106.607 117.57 103.25 113.427 103.25H112.9C108.757 103.25 105.4 106.607 105.4 110.75C105.4 114.893 108.757 118.25 112.9 118.25H113.427Z" fill="black"/>
<path d="M75.9269 123.75C75.9269 119.607 72.5699 116.25 68.4269 116.25H67.8999C63.7569 116.25 60.3999 119.607 60.3999 123.75C60.3999 127.893 63.7579 131.25 67.8999 131.25H68.4269C72.5689 131.25 75.9269 127.893 75.9269 123.75Z" fill="black"/>
<path d="M158.427 116.25H157.9C153.757 116.25 150.4 119.607 150.4 123.75C150.4 127.893 153.757 131.25 157.9 131.25H158.427C162.57 131.25 165.927 127.893 165.927 123.75C165.927 119.607 162.569 116.25 158.427 116.25Z" fill="black"/>
<path d="M175.427 152.75H174.9C170.757 152.75 167.4 156.107 167.4 160.25C167.4 164.393 170.757 167.75 174.9 167.75H175.427C179.57 167.75 182.927 164.393 182.927 160.25C182.927 156.107 179.569 152.75 175.427 152.75Z" fill="black"/>
<path d="M54.4269 152.75H53.8999C49.7579 152.75 46.3999 156.107 46.3999 160.25C46.3999 164.393 49.7579 167.75 53.8999 167.75H54.4269C58.5699 167.75 61.9269 164.393 61.9269 160.25C61.9269 156.107 58.5689 152.75 54.4269 152.75Z" fill="black"/>
<path d="M237.664 225.442C237.664 226.606 237.935 227.755 238.456 228.797L256.542 264.97C257.813 267.51 260.409 269.116 263.25 269.116C266.091 269.116 268.688 267.511 269.958 264.97L288.045 228.797C288.566 227.755 288.837 226.606 288.837 225.442V47.75C288.837 43.607 285.48 40.25 281.337 40.25H245.164C241.021 40.25 237.664 43.607 237.664 47.75V225.442ZM252.664 217.942V79.365H273.837V217.942H252.664ZM273.837 55.25V64.365H252.664V55.25H273.837ZM263.25 244.845L257.299 232.943H269.201L263.25 244.845Z" fill="black"/>
</g>
<defs>
<clipPath id="clip0_415_166">
<rect width="295.5" height="295.5" fill="white"/>
</clipPath>
</defs>
</svg>
