<svg width="470" height="470" viewBox="0 0 470 470" fill="none" xmlns="http://www.w3.org/2000/svg">
<g clip-path="url(#clip0_415_197)">
<path d="M404.791 457.197L374.791 427.198C374.79 427.197 357.078 409.486 357.078 409.486C369.499 407.832 380.811 402.132 389.492 393C399.914 382.037 405.225 367.542 404.448 352.186L389.506 57.057C387.913 25.596 360.99 0 329.488 0H140.513C109.011 0 82.0871 25.596 80.4941 57.057L65.5511 352.186C64.7741 367.542 70.0851 382.037 80.5071 393C89.1891 402.132 100.5 407.832 112.921 409.486L95.2101 427.197C95.2091 427.198 65.2091 457.198 65.2091 457.198C63.0641 459.343 62.4231 462.569 63.5841 465.371C64.7441 468.174 67.4801 470.001 70.5131 470.001H399.488C402.521 470.001 405.257 468.174 406.417 465.371C407.577 462.568 406.936 459.342 404.791 457.197V457.197ZM336.381 410.001L351.381 425.001H118.62L133.62 410.001H336.381ZM80.5311 352.944L95.4751 57.815C96.6701 34.207 116.874 15 140.513 15H329.488C353.127 15 373.331 34.207 374.526 57.815L389.469 352.944C390.036 364.154 386.184 374.709 378.621 382.664C371.058 390.62 360.712 395 349.487 395H120.513C109.288 395 98.9421 390.619 91.3791 382.664C83.8171 374.709 79.9641 364.155 80.5311 352.944V352.944ZM88.6191 455L103.619 440H366.38L381.38 455H88.6191Z" fill="black"/>
<path d="M175 50.021H295C299.143 50.021 302.5 46.663 302.5 42.521C302.5 38.379 299.143 35.021 295 35.021H175C170.857 35.021 167.5 38.379 167.5 42.521C167.5 46.663 170.858 50.021 175 50.021Z" fill="black"/>
<path d="M331.83 202.646C331.83 198.504 328.473 195.146 324.33 195.146H145.67C141.527 195.146 138.17 198.504 138.17 202.646C138.17 206.788 141.527 210.146 145.67 210.146H324.33C328.473 210.146 331.83 206.788 331.83 202.646Z" fill="black"/>
<path d="M111.397 294.555H181.168C183.157 294.555 185.064 293.765 186.472 292.358C187.878 290.952 188.668 289.044 188.668 287.055C188.668 258.431 165.381 235.145 136.758 235.145H121.535L129.136 85.041H340.866L348.467 235.145H333.244C304.621 235.145 281.334 258.432 281.334 287.055C281.334 289.044 282.124 290.952 283.53 292.358C284.937 293.765 286.844 294.555 288.834 294.555H358.605C360.66 294.555 362.625 293.712 364.041 292.222C365.457 290.732 366.2 288.727 366.096 286.675L363.853 242.365C363.85 242.294 363.846 242.223 363.842 242.153L355.488 77.161C355.286 73.172 351.993 70.04 347.998 70.04H122.008C118.013 70.04 114.72 73.171 114.518 77.161L106.164 242.153C106.16 242.223 106.156 242.294 106.153 242.365L103.91 286.675C103.806 288.727 104.549 290.733 105.965 292.222C107.381 293.711 109.342 294.555 111.397 294.555V294.555ZM350.714 279.555H297.099C300.574 262.786 315.46 250.145 333.244 250.145H349.225L350.714 279.555V279.555ZM120.776 250.146H136.757C154.54 250.146 169.427 262.787 172.902 279.556H119.287L120.776 250.146V250.146Z" fill="black"/>
<path d="M211.167 279.556C207.024 279.556 203.667 282.914 203.667 287.056C203.667 291.198 207.024 294.556 211.167 294.556H258.833C262.976 294.556 266.333 291.198 266.333 287.056C266.333 282.914 262.976 279.556 258.833 279.556H211.167V279.556Z" fill="black"/>
<path d="M374.353 352.565C374.353 348.423 370.996 345.065 366.853 345.065H103.148C99.0049 345.065 95.6479 348.423 95.6479 352.565C95.6479 356.707 99.0049 360.065 103.148 360.065H366.853C370.995 360.065 374.353 356.707 374.353 352.565Z" fill="black"/>
</g>
<defs>
<clipPath id="clip0_415_197">
<rect width="470" height="470" fill="white"/>
</clipPath>
</defs>
</svg>
