<svg width="16" height="16" viewBox="0 0 16 16" fill="none" xmlns="http://www.w3.org/2000/svg">
<path fill-rule="evenodd" clip-rule="evenodd" d="M5.621 1.485C7.436 1.031 8.564 1.031 10.379 1.485C11.163 1.681 12.122 2.158 12.906 2.604C13.594 2.994 14 3.752 14 4.583V13.5C14 13.8978 13.842 14.2794 13.5607 14.5607C13.2794 14.842 12.8978 15 12.5 15H3.5C3.30302 15 3.10796 14.9612 2.92597 14.8858C2.74399 14.8104 2.57863 14.7 2.43934 14.5607C2.30005 14.4214 2.18956 14.256 2.11418 14.074C2.0388 13.892 2 13.697 2 13.5V4.583C2 3.752 2.406 2.995 3.094 2.603C3.878 2.158 4.838 1.681 5.621 1.485ZM10.621 0.515003C8.647 0.0200031 7.353 0.0200031 5.38 0.515003C4.456 0.745003 3.398 1.281 2.6 1.735C1.566 2.322 1 3.432 1 4.582V13.5C1 14.163 1.26339 14.7989 1.73223 15.2678C2.20107 15.7366 2.83696 16 3.5 16H12.5C13.163 16 13.7989 15.7366 14.2678 15.2678C14.7366 14.7989 15 14.163 15 13.5V4.583C15 3.433 14.435 2.323 13.4 1.734C12.603 1.281 11.545 0.746003 10.621 0.514003V0.515003ZM5 13C5 13.2652 4.89464 13.5196 4.70711 13.7071C4.51957 13.8946 4.26522 14 4 14C3.73478 14 3.48043 13.8946 3.29289 13.7071C3.10536 13.5196 3 13.2652 3 13C3 12.7348 3.10536 12.4804 3.29289 12.2929C3.48043 12.1054 3.73478 12 4 12C4.26522 12 4.51957 12.1054 4.70711 12.2929C4.89464 12.4804 5 12.7348 5 13V13ZM5 13C5 12.7348 5.10536 12.4804 5.29289 12.2929C5.48043 12.1054 5.73478 12 6 12C6.26522 12 6.51957 12.1054 6.70711 12.2929C6.89464 12.4804 7 12.7348 7 13C7 13.2652 6.89464 13.5196 6.70711 13.7071C6.51957 13.8946 6.26522 14 6 14C5.73478 14 5.48043 13.8946 5.29289 13.7071C5.10536 13.5196 5 13.2652 5 13ZM12 14C12.1978 14 12.3911 13.9414 12.5556 13.8315C12.72 13.7216 12.8482 13.5654 12.9239 13.3827C12.9996 13.2 13.0194 12.9989 12.9808 12.8049C12.9422 12.6109 12.847 12.4327 12.7071 12.2929C12.5673 12.153 12.3891 12.0578 12.1951 12.0192C12.0011 11.9806 11.8 12.0004 11.6173 12.0761C11.4346 12.1518 11.2784 12.28 11.1685 12.4444C11.0586 12.6089 11 12.8022 11 13C11 12.7348 10.8946 12.4804 10.7071 12.2929C10.5196 12.1054 10.2652 12 10 12C9.73478 12 9.48043 12.1054 9.29289 12.2929C9.10536 12.4804 9 12.7348 9 13C9 13.2652 9.10536 13.5196 9.29289 13.7071C9.48043 13.8946 9.73478 14 10 14C10.2652 14 10.5196 13.8946 10.7071 13.7071C10.8946 13.5196 11 13.2652 11 13C11 13.2652 11.1054 13.5196 11.2929 13.7071C11.4804 13.8946 11.7348 14 12 14ZM4.5 5C4.36739 5 4.24021 5.05268 4.14645 5.14645C4.05268 5.24022 4 5.36739 4 5.5V7.5C4 7.63261 4.05268 7.75979 4.14645 7.85356C4.24021 7.94732 4.36739 8 4.5 8H7.5V5H4.5ZM8.5 5V8H11.5C11.6326 8 11.7598 7.94732 11.8536 7.85356C11.9473 7.75979 12 7.63261 12 7.5V5.5C12 5.36739 11.9473 5.24022 11.8536 5.14645C11.7598 5.05268 11.6326 5 11.5 5H8.5ZM3 5.5C3 5.10218 3.15804 4.72065 3.43934 4.43934C3.72064 4.15804 4.10218 4 4.5 4H11.5C11.8978 4 12.2794 4.15804 12.5607 4.43934C12.842 4.72065 13 5.10218 13 5.5V7.5C13 7.89783 12.842 8.27936 12.5607 8.56066C12.2794 8.84197 11.8978 9 11.5 9H4.5C4.10218 9 3.72064 8.84197 3.43934 8.56066C3.15804 8.27936 3 7.89783 3 7.5V5.5ZM6.5 2C6.36739 2 6.24021 2.05268 6.14645 2.14645C6.05268 2.24022 6 2.36739 6 2.5C6 2.63261 6.05268 2.75979 6.14645 2.85356C6.24021 2.94732 6.36739 3 6.5 3H9.5C9.63261 3 9.75979 2.94732 9.85355 2.85356C9.94732 2.75979 10 2.63261 10 2.5C10 2.36739 9.94732 2.24022 9.85355 2.14645C9.75979 2.05268 9.63261 2 9.5 2H6.5Z" fill="#005086"/>
</svg>
