<svg xmlns="http://www.w3.org/2000/svg" xmlns:xlink="http://www.w3.org/1999/xlink" width="500" zoomAndPan="magnify" viewBox="0 0 375 374.999991" height="500" preserveAspectRatio="xMidYMid meet" version="1.0"><defs><filter x="0%" y="0%" width="100%" height="100%" id="16f7a8828a"><feColorMatrix values="0 0 0 0 1 0 0 0 0 1 0 0 0 0 1 0 0 0 1 0" color-interpolation-filters="sRGB"/></filter><g/><mask id="26ffc2a65d"><g filter="url(#16f7a8828a)"><rect x="-37.5" width="450" fill="#000000" y="-37.499999" height="449.999989" fill-opacity="0.2471"/></g></mask><clipPath id="a3c8baba17"><path d="M 16 47 L 226 47 L 226 209 L 16 209 Z M 16 47 " clip-rule="nonzero"/></clipPath><clipPath id="0fd5a049e9"><path d="M 265.589844 172.957031 L 49.046875 261.640625 L -28.265625 72.859375 L 188.277344 -15.824219 Z M 265.589844 172.957031 " clip-rule="nonzero"/></clipPath><clipPath id="d7a10a22aa"><path d="M 265.589844 172.957031 L 49.046875 261.640625 L -28.265625 72.859375 L 188.277344 -15.824219 Z M 265.589844 172.957031 " clip-rule="nonzero"/></clipPath><clipPath id="a69fd60414"><rect x="0" width="239" y="0" height="242"/></clipPath></defs><g mask="url(#26ffc2a65d)"><g transform="matrix(1, 0, 0, 1, 32, 35)"><g clip-path="url(#a69fd60414)"><g clip-path="url(#a3c8baba17)"><g clip-path="url(#0fd5a049e9)"><g clip-path="url(#d7a10a22aa)"><path fill="#e05060" d="M 94.441406 203.050781 C 54.8125 188.671875 -19.789062 93.164062 36.894531 55.777344 C 75.226562 30.472656 81.34375 71 133.917969 102.742188 C 151.339844 113.238281 236.523438 102.386719 224.023438 156.429688 C 216.601562 188.453125 146.261719 221.824219 94.441406 203.050781 Z M 94.441406 203.050781 " fill-opacity="1" fill-rule="nonzero"/></g></g></g></g></g></g><path fill="#e05060" d="M 274.9375 47.457031 C 274.769531 47.324219 274.582031 47.230469 274.375 47.175781 C 274.171875 47.117188 273.960938 47.101562 273.75 47.128906 C 273.539062 47.160156 273.339844 47.226562 273.15625 47.335938 C 272.96875 47.441406 272.8125 47.582031 272.6875 47.753906 C 272.558594 47.925781 272.46875 48.113281 272.417969 48.320312 C 272.367188 48.527344 272.359375 48.738281 272.394531 48.949219 C 272.425781 49.160156 272.5 49.355469 272.613281 49.535156 C 272.726562 49.714844 272.871094 49.867188 273.046875 49.988281 C 304.636719 73.445312 323.019531 109.53125 323.496094 148.996094 C 323.65625 162.089844 321.816406 174.894531 317.96875 187.414062 C 315.539062 190.507812 313.117188 193.609375 310.613281 196.644531 C 307.792969 200.144531 304.796875 203.484375 301.621094 206.664062 C 300.902344 207.371094 300.167969 208.054688 299.417969 208.714844 C 299.058594 209.035156 298.691406 209.351562 298.320312 209.65625 L 297.804688 210.074219 L 297.582031 210.25 C 297.75 210.113281 297.535156 210.25 297.488281 210.3125 C 295.679688 211.683594 293.730469 212.871094 291.867188 214.171875 C 289.832031 215.507812 288 217.078125 286.375 218.886719 C 284.800781 220.707031 283.699219 222.777344 283.066406 225.097656 C 282.765625 226.207031 282.585938 227.332031 282.519531 228.476562 C 282.453125 229.621094 282.507812 230.761719 282.675781 231.894531 C 282.84375 233.03125 283.125 234.136719 283.523438 235.210938 C 283.917969 236.289062 284.417969 237.3125 285.027344 238.285156 C 285.355469 238.78125 285.714844 239.253906 286.085938 239.714844 C 283.203125 242.570312 280.1875 245.277344 277.039062 247.835938 C 273.886719 250.394531 270.621094 252.792969 267.238281 255.035156 C 263.855469 257.273438 260.371094 259.34375 256.78125 261.242188 C 253.195312 263.144531 249.523438 264.863281 245.769531 266.40625 C 242.015625 267.945312 238.191406 269.300781 234.304688 270.46875 C 230.417969 271.636719 226.480469 272.613281 222.496094 273.398438 C 218.511719 274.179688 214.5 274.769531 210.457031 275.160156 C 206.417969 275.550781 202.367188 275.746094 198.304688 275.742188 L 198.089844 275.742188 C 194.074219 275.757812 190.070312 275.582031 186.070312 275.210938 C 182.074219 274.839844 178.105469 274.277344 174.160156 273.523438 C 170.21875 272.769531 166.320312 271.828125 162.46875 270.699219 C 158.617188 269.570312 154.828125 268.257812 151.101562 266.765625 C 147.378906 265.269531 143.734375 263.601562 140.167969 261.753906 C 136.605469 259.90625 133.140625 257.894531 129.769531 255.714844 C 126.402344 253.535156 123.144531 251.199219 120.003906 248.703125 C 116.859375 246.210938 113.84375 243.570312 110.957031 240.785156 C 111.910156 239.128906 112.640625 237.382812 113.152344 235.542969 C 113.664062 233.703125 113.9375 231.832031 113.976562 229.921875 C 114.019531 228.015625 113.820312 226.132812 113.386719 224.273438 C 112.953125 222.414062 112.296875 220.636719 111.414062 218.945312 C 109.65625 215.589844 106.882812 213.070312 104.269531 210.417969 C 103.613281 209.765625 103.019531 209.113281 102.445312 208.460938 L 102.046875 207.976562 L 102.007812 207.929688 C 101.949219 207.867188 101.894531 207.78125 101.84375 207.710938 C 101.585938 207.371094 101.347656 207.015625 101.125 206.652344 C 100.910156 206.3125 100.710938 205.960938 100.535156 205.601562 L 100.398438 205.300781 C 100.320312 205.097656 100.246094 204.894531 100.175781 204.6875 C 100.050781 204.304688 99.953125 203.917969 99.882812 203.523438 C 99.882812 203.445312 99.84375 203.34375 99.835938 203.25 L 99.835938 203.171875 C 99.835938 202.957031 99.835938 202.75 99.796875 202.519531 C 99.796875 202.179688 99.796875 201.867188 99.84375 201.507812 C 99.84375 201.507812 99.84375 201.539062 99.84375 201.558594 C 99.863281 201.46875 99.878906 201.378906 99.886719 201.285156 C 99.886719 201.109375 99.953125 200.933594 100 200.757812 C 100.074219 200.433594 100.167969 200.113281 100.28125 199.796875 C 100.339844 199.628906 100.40625 199.464844 100.464844 199.296875 L 100.5625 199.074219 C 101.1875 197.75 101.945312 196.511719 102.835938 195.351562 C 102.894531 195.273438 102.960938 195.195312 103.011719 195.117188 L 103.328125 194.71875 L 104.085938 193.792969 C 104.570312 193.199219 105.058594 192.617188 105.539062 192.023438 C 106.5625 190.804688 107.503906 189.519531 108.355469 188.171875 C 110.03125 185.398438 110.878906 182.082031 109.847656 178.914062 C 108.625 175.199219 105.386719 172.53125 101.960938 170.871094 C 97.890625 169 93.621094 167.957031 89.144531 167.746094 C 84.597656 167.464844 80.144531 167.980469 75.785156 169.292969 C 75.214844 169.460938 74.660156 169.652344 74.109375 169.847656 C 73.175781 163.738281 72.6875 157.59375 72.644531 151.414062 C 72.519531 136.71875 74.917969 122.445312 79.839844 108.597656 C 80.1875 107.644531 80.644531 106.746094 81.210938 105.902344 C 81.777344 105.0625 82.433594 104.296875 83.183594 103.613281 C 83.933594 102.925781 84.753906 102.339844 85.644531 101.851562 C 86.535156 101.363281 87.46875 100.988281 88.449219 100.722656 C 93.761719 99.242188 97.757812 99.230469 99.683594 100.722656 C 100.75 101.527344 101.265625 102.847656 101.265625 104.738281 C 101.265625 110.941406 98.417969 116.886719 95.382812 123.1875 C 92.347656 129.484375 89.203125 136.078125 89.203125 143 C 89.203125 146.757812 89.570312 150.761719 92.28125 151.882812 C 96.011719 153.425781 101.214844 149.078125 115.992188 134.324219 C 124.546875 125.785156 132.816406 123.878906 139.460938 122.320312 C 147.054688 120.554688 153.613281 119.054688 155.84375 108.519531 C 157.863281 98.96875 154.390625 89.777344 151.332031 81.664062 C 148.375 73.828125 145.589844 66.472656 148.101562 60.121094 C 150.867188 53.125 153.917969 50.207031 156.535156 48.265625 C 157.210938 47.78125 157.84375 47.242188 158.4375 46.652344 C 159.027344 46.066406 159.570312 45.433594 160.058594 44.761719 C 160.550781 44.085938 160.984375 43.378906 161.363281 42.636719 C 161.742188 41.894531 162.058594 41.125 162.3125 40.332031 C 162.570312 39.539062 162.761719 38.730469 162.890625 37.910156 C 163.015625 37.085938 163.078125 36.257812 163.074219 35.425781 C 163.070312 34.589844 163 33.765625 162.863281 32.941406 C 162.726562 32.121094 162.527344 31.3125 162.261719 30.523438 C 173.042969 27.332031 184.054688 25.613281 195.296875 25.375 L 195.335938 25.375 C 196.644531 25.375 197.886719 25.335938 199.164062 25.375 C 199.371094 25.375 199.574219 25.332031 199.769531 25.253906 C 199.960938 25.171875 200.132812 25.058594 200.28125 24.910156 C 200.429688 24.761719 200.542969 24.59375 200.625 24.398438 C 200.707031 24.203125 200.746094 24.003906 200.746094 23.792969 C 200.746094 23.585938 200.707031 23.382812 200.625 23.1875 C 200.542969 22.996094 200.429688 22.824219 200.28125 22.675781 C 200.132812 22.527344 199.960938 22.414062 199.769531 22.335938 C 199.574219 22.253906 199.371094 22.214844 199.164062 22.214844 L 197.761719 22.214844 C 193.375 22.21875 188.996094 22.441406 184.632812 22.894531 C 180.265625 23.34375 175.9375 24.015625 171.640625 24.90625 C 167.34375 25.800781 163.101562 26.910156 158.921875 28.238281 C 154.738281 29.5625 150.632812 31.101562 146.609375 32.847656 C 142.582031 34.589844 138.65625 36.539062 134.832031 38.6875 C 131.007812 40.832031 127.300781 43.167969 123.714844 45.695312 C 120.128906 48.222656 116.683594 50.925781 113.375 53.804688 C 110.066406 56.679688 106.914062 59.722656 103.914062 62.921875 C 103.769531 63.074219 103.660156 63.25 103.582031 63.445312 C 103.507812 63.644531 103.472656 63.847656 103.476562 64.058594 C 103.484375 64.269531 103.53125 64.472656 103.617188 64.664062 C 103.703125 64.855469 103.824219 65.027344 103.980469 65.167969 C 104.136719 65.3125 104.3125 65.421875 104.511719 65.496094 C 104.707031 65.570312 104.914062 65.601562 105.125 65.59375 C 105.335938 65.582031 105.539062 65.535156 105.730469 65.445312 C 105.921875 65.355469 106.089844 65.234375 106.230469 65.074219 C 109.84375 61.210938 113.683594 57.589844 117.757812 54.210938 C 121.832031 50.832031 126.101562 47.722656 130.566406 44.882812 C 135.035156 42.046875 139.664062 39.5 144.453125 37.25 C 149.246094 34.996094 154.160156 33.054688 159.195312 31.425781 C 159.414062 32.058594 159.578125 32.707031 159.691406 33.367188 C 159.800781 34.03125 159.863281 34.695312 159.867188 35.367188 C 159.875 36.035156 159.828125 36.703125 159.726562 37.363281 C 159.625 38.027344 159.472656 38.679688 159.269531 39.316406 C 159.0625 39.957031 158.808594 40.574219 158.503906 41.171875 C 158.203125 41.769531 157.851562 42.339844 157.457031 42.882812 C 157.0625 43.425781 156.628906 43.933594 156.152344 44.40625 C 155.675781 44.878906 155.164062 45.308594 154.621094 45.703125 C 151.644531 47.902344 148.191406 51.191406 145.125 58.933594 C 142.167969 66.414062 145.164062 74.351562 148.335938 82.746094 C 151.390625 90.828125 154.546875 99.183594 152.714844 107.832031 C 150.90625 116.371094 146.316406 117.441406 138.714844 119.203125 C 131.679688 120.84375 122.917969 122.875 113.730469 132.050781 C 106.601562 139.160156 95.847656 149.890625 93.460938 148.925781 C 93.269531 148.847656 92.335938 148.195312 92.335938 142.964844 C 92.335938 136.765625 95.1875 130.816406 98.21875 124.519531 C 101.253906 118.21875 104.40625 111.625 104.40625 104.707031 C 104.40625 101.796875 103.453125 99.59375 101.574219 98.179688 C 98.757812 96.042969 94.042969 95.875 87.566406 97.683594 C 86.347656 98.019531 85.179688 98.496094 84.074219 99.109375 C 82.964844 99.726562 81.945312 100.464844 81.015625 101.324219 C 80.082031 102.183594 79.269531 103.140625 78.566406 104.195312 C 77.867188 105.253906 77.300781 106.375 76.871094 107.566406 C 76.007812 109.976562 75.21875 112.410156 74.5 114.867188 C 73.785156 117.324219 73.144531 119.800781 72.574219 122.296875 C 72.007812 124.792969 71.515625 127.304688 71.097656 129.828125 C 70.679688 132.355469 70.339844 134.890625 70.074219 137.4375 C 69.808594 139.980469 69.621094 142.535156 69.507812 145.089844 C 69.394531 147.648438 69.359375 150.207031 69.402344 152.765625 C 69.445312 155.324219 69.5625 157.878906 69.757812 160.433594 C 69.949219 162.984375 70.222656 165.527344 70.570312 168.0625 C 70.917969 170.601562 71.339844 173.125 71.839844 175.632812 C 72.335938 178.144531 72.910156 180.636719 73.558594 183.113281 C 74.207031 185.589844 74.929688 188.046875 75.726562 190.480469 C 76.519531 192.910156 77.386719 195.320312 78.328125 197.699219 C 79.269531 200.082031 80.277344 202.433594 81.359375 204.753906 C 82.441406 207.074219 83.589844 209.359375 84.808594 211.613281 C 86.027344 213.867188 87.3125 216.078125 88.664062 218.253906 C 90.015625 220.429688 91.429688 222.5625 92.90625 224.652344 C 94.386719 226.746094 95.925781 228.789062 97.527344 230.789062 C 99.128906 232.785156 100.789062 234.734375 102.507812 236.632812 C 104.226562 238.535156 106 240.378906 107.832031 242.171875 C 109.660156 243.964844 111.542969 245.703125 113.476562 247.382812 C 115.410156 249.066406 117.390625 250.6875 119.421875 252.25 C 121.453125 253.8125 123.527344 255.3125 125.648438 256.75 C 127.769531 258.1875 129.933594 259.5625 132.136719 260.871094 C 134.339844 262.179688 136.582031 263.421875 138.859375 264.597656 C 141.136719 265.769531 143.445312 266.875 145.789062 267.914062 C 148.136719 268.949219 150.507812 269.917969 152.910156 270.8125 C 155.3125 271.707031 157.738281 272.527344 160.191406 273.277344 C 162.640625 274.027344 165.113281 274.703125 167.605469 275.304688 C 170.097656 275.90625 172.605469 276.433594 175.128906 276.886719 C 177.652344 277.339844 180.1875 277.714844 182.734375 278.015625 C 185.28125 278.316406 187.832031 278.539062 190.390625 278.6875 C 192.953125 278.835938 195.511719 278.90625 198.078125 278.902344 L 198.304688 278.902344 C 200.425781 278.898438 202.542969 278.84375 204.65625 278.734375 C 206.773438 278.625 208.886719 278.464844 210.992188 278.253906 C 213.101562 278.042969 215.203125 277.777344 217.296875 277.460938 C 219.390625 277.144531 221.476562 276.777344 223.554688 276.359375 C 225.632812 275.9375 227.695312 275.46875 229.75 274.949219 C 231.804688 274.429688 233.84375 273.855469 235.867188 273.234375 C 237.890625 272.613281 239.902344 271.941406 241.890625 271.222656 C 243.882812 270.5 245.855469 269.730469 247.8125 268.914062 C 249.765625 268.097656 251.695312 267.230469 253.609375 266.316406 C 255.519531 265.40625 257.40625 264.445312 259.269531 263.4375 C 261.132812 262.433594 262.96875 261.378906 264.78125 260.285156 C 266.59375 259.1875 268.375 258.046875 270.128906 256.859375 C 271.886719 255.675781 273.609375 254.449219 275.304688 253.179688 C 276.996094 251.90625 278.660156 250.597656 280.289062 249.246094 C 281.917969 247.894531 283.511719 246.5 285.074219 245.070312 C 286.632812 243.640625 288.15625 242.171875 289.644531 240.664062 C 291.132812 239.160156 292.582031 237.617188 293.992188 236.039062 C 295.402344 234.464844 296.773438 232.851562 298.105469 231.207031 C 299.4375 229.5625 300.726562 227.886719 301.976562 226.175781 C 303.226562 224.46875 304.429688 222.730469 305.59375 220.960938 C 306.753906 219.191406 307.871094 217.398438 308.945312 215.574219 C 310.019531 213.75 311.046875 211.902344 312.03125 210.027344 C 313.011719 208.152344 313.945312 206.257812 314.835938 204.335938 C 315.722656 202.414062 316.5625 200.476562 317.355469 198.511719 C 318.144531 196.550781 318.890625 194.570312 319.582031 192.574219 C 320.277344 190.574219 320.921875 188.5625 321.515625 186.53125 C 322.109375 184.5 322.652344 182.457031 323.144531 180.398438 C 323.640625 178.34375 324.082031 176.277344 324.472656 174.195312 C 324.863281 172.117188 325.203125 170.03125 325.488281 167.9375 C 325.777344 165.839844 326.011719 163.738281 326.195312 161.632812 C 326.378906 159.523438 326.507812 157.414062 326.585938 155.300781 C 326.667969 153.1875 326.691406 151.074219 326.667969 148.957031 C 326.175781 108.5 307.324219 71.5 274.9375 47.457031 Z M 74.648438 173.054688 C 76.324219 172.429688 78.039062 171.9375 79.792969 171.570312 C 80.308594 171.46875 80.832031 171.367188 81.355469 171.285156 L 82.179688 171.160156 L 82.226562 171.160156 L 82.800781 171.089844 C 83.855469 170.976562 84.914062 170.90625 85.980469 170.878906 C 87.046875 170.851562 88.195312 170.878906 89.308594 170.949219 C 89.835938 170.984375 90.359375 171.03125 90.890625 171.089844 L 91.503906 171.160156 L 91.757812 171.199219 L 92.191406 171.265625 C 94.324219 171.59375 96.40625 172.117188 98.441406 172.832031 L 99.097656 173.078125 L 99.417969 173.210938 C 99.847656 173.386719 100.273438 173.589844 100.683594 173.796875 C 101.476562 174.191406 102.238281 174.640625 102.96875 175.140625 C 103.136719 175.265625 103.328125 175.382812 103.492188 175.519531 L 103.765625 175.742188 C 104.125 176.042969 104.472656 176.355469 104.796875 176.6875 C 105.070312 176.953125 105.324219 177.230469 105.558594 177.53125 C 105.519531 177.480469 105.492188 177.453125 105.558594 177.589844 L 105.753906 177.863281 C 105.878906 178.046875 106 178.234375 106.113281 178.433594 C 106.230469 178.621094 106.335938 178.816406 106.433594 179.019531 C 106.46875 179.085938 106.503906 179.152344 106.53125 179.222656 C 106.53125 179.238281 106.53125 179.257812 106.53125 179.273438 C 106.730469 179.671875 106.859375 180.09375 106.917969 180.535156 C 106.972656 180.699219 107.007812 180.871094 107.023438 181.042969 L 107.023438 181.132812 C 107.027344 181.21875 107.027344 181.304688 107.023438 181.390625 C 107.046875 181.742188 107.046875 182.097656 107.023438 182.453125 C 107.023438 182.597656 106.898438 183.203125 107.023438 182.660156 C 106.988281 182.8125 106.976562 182.960938 106.941406 183.105469 C 106.902344 183.457031 106.839844 183.804688 106.761719 184.152344 C 106.667969 184.4375 106.558594 184.710938 106.453125 184.992188 L 106.355469 185.207031 L 106.105469 185.703125 C 105.769531 186.34375 105.398438 186.957031 104.988281 187.550781 C 104.796875 187.832031 104.601562 188.105469 104.398438 188.378906 C 104.296875 188.523438 104.191406 188.667969 104.078125 188.804688 C 104.015625 188.875 103.960938 188.960938 103.894531 189.039062 C 102.972656 190.207031 102.007812 191.34375 101.070312 192.507812 C 99.199219 194.84375 97.304688 197.421875 96.773438 200.4375 C 96.445312 202.1875 96.554688 203.914062 97.109375 205.609375 C 97.753906 207.367188 98.6875 208.957031 99.914062 210.378906 C 101.058594 211.71875 102.273438 213 103.550781 214.21875 C 104.203125 214.871094 104.816406 215.472656 105.425781 216.117188 C 105.707031 216.417969 105.980469 216.71875 106.25 217.023438 L 106.695312 217.554688 L 106.84375 217.734375 L 106.957031 217.875 C 107.5 218.601562 107.992188 219.363281 108.433594 220.15625 C 108.636719 220.523438 108.828125 220.902344 109.007812 221.28125 C 109.101562 221.484375 109.191406 221.679688 109.277344 221.882812 L 109.453125 222.332031 C 109.777344 223.183594 110.042969 224.054688 110.253906 224.941406 C 110.34375 225.355469 110.429688 225.773438 110.507812 226.191406 C 110.507812 226.390625 110.585938 226.609375 110.605469 226.84375 C 110.605469 227.003906 110.636719 227.164062 110.65625 227.324219 C 110.746094 228.210938 110.78125 229.09375 110.761719 229.980469 C 110.761719 230.425781 110.730469 230.871094 110.691406 231.289062 C 110.691406 231.53125 110.644531 231.769531 110.617188 232.011719 C 110.617188 232.011719 110.617188 232.183594 110.617188 232.226562 C 110.617188 232.273438 110.617188 232.363281 110.585938 232.429688 C 110.449219 233.3125 110.253906 234.183594 110.003906 235.042969 C 109.878906 235.464844 109.742188 235.882812 109.589844 236.300781 L 109.328125 236.953125 L 109.152344 237.351562 C 108.976562 237.722656 108.792969 238.082031 108.597656 238.441406 C 104.203125 234.003906 100.164062 229.257812 96.484375 224.207031 C 92.804688 219.160156 89.527344 213.863281 86.648438 208.320312 C 83.773438 202.777344 81.328125 197.050781 79.316406 191.140625 C 77.304688 185.226562 75.746094 179.199219 74.648438 173.054688 Z M 285.785156 227.5 Z M 286.679688 234.648438 L 286.726562 234.761719 C 286.703125 234.722656 286.6875 234.679688 286.679688 234.636719 Z M 288.328125 237.484375 L 288.121094 237.195312 C 287.96875 236.988281 287.824219 236.769531 287.6875 236.542969 C 287.410156 236.105469 287.15625 235.652344 286.929688 235.183594 L 286.753906 234.804688 C 286.648438 234.546875 286.550781 234.285156 286.457031 234.023438 C 286.289062 233.53125 286.144531 233.035156 286.027344 232.527344 C 285.976562 232.292969 285.929688 232.058594 285.882812 231.824219 C 285.882812 231.6875 285.835938 231.554688 285.816406 231.417969 C 285.796875 231.28125 285.816406 231.3125 285.816406 231.292969 C 285.757812 230.777344 285.726562 230.257812 285.714844 229.734375 C 285.699219 229.210938 285.714844 228.695312 285.765625 228.179688 C 285.765625 228.042969 285.765625 227.898438 285.8125 227.761719 L 285.8125 227.703125 C 285.890625 227.433594 285.933594 227.160156 285.949219 226.882812 C 286.054688 226.371094 286.183594 225.871094 286.335938 225.375 C 286.40625 225.152344 286.484375 224.921875 286.570312 224.722656 C 286.65625 224.519531 286.675781 224.460938 286.71875 224.328125 C 286.765625 224.199219 286.675781 224.425781 286.675781 224.425781 C 286.699219 224.351562 286.730469 224.28125 286.773438 224.210938 C 286.988281 223.738281 287.226562 223.28125 287.492188 222.835938 C 287.621094 222.613281 287.765625 222.390625 287.910156 222.183594 L 288.132812 221.867188 L 288.289062 221.652344 C 288.988281 220.777344 289.757812 219.96875 290.605469 219.230469 C 291.03125 218.859375 291.46875 218.5 291.914062 218.148438 L 292.003906 218.074219 L 292.371094 217.800781 L 293.0625 217.300781 C 294.933594 215.992188 296.882812 214.773438 298.734375 213.429688 C 300.3125 212.261719 301.808594 211 303.226562 209.640625 C 306.339844 206.613281 309.273438 203.417969 312.019531 200.050781 C 312.980469 198.902344 313.921875 197.734375 314.863281 196.574219 C 311.828125 204.191406 308.082031 211.445312 303.613281 218.328125 C 299.148438 225.207031 294.054688 231.589844 288.328125 237.46875 Z M 288.328125 237.484375 " fill-opacity="1" fill-rule="nonzero"/><path fill="#e05060" d="M 193.589844 122.597656 C 194.046875 124.003906 194.738281 125.273438 195.671875 126.417969 C 196.605469 127.558594 197.714844 128.492188 199 129.21875 C 200.445312 129.984375 201.988281 130.441406 203.617188 130.589844 C 205.25 130.734375 206.847656 130.5625 208.410156 130.066406 C 211.464844 129.132812 214.183594 127.613281 216.578125 125.496094 C 217.113281 126.066406 217.667969 126.628906 218.242188 127.164062 C 220.664062 129.542969 223.527344 131.101562 226.84375 131.84375 C 230.476562 132.5625 234.167969 132.183594 237.828125 131.925781 C 241.140625 131.640625 244.4375 131.78125 247.714844 132.339844 C 254.042969 133.546875 259.941406 136.511719 264.167969 141.417969 C 265.171875 142.570312 266.054688 143.804688 266.816406 145.128906 C 267.578125 146.453125 268.199219 147.839844 268.6875 149.285156 C 269.171875 150.730469 269.511719 152.210938 269.707031 153.726562 C 269.898438 155.238281 269.945312 156.757812 269.835938 158.28125 C 269.707031 159.6875 269.429688 161.066406 269.007812 162.414062 C 268.613281 163.726562 268.085938 164.984375 267.421875 166.1875 C 266.066406 168.714844 264.339844 170.964844 262.246094 172.929688 C 260.128906 174.96875 257.792969 176.710938 255.226562 178.152344 C 252.496094 179.703125 249.628906 180.933594 246.617188 181.832031 C 239.515625 184.03125 232.09375 184.84375 224.730469 185.703125 C 217.839844 186.507812 210.921875 187.382812 204.261719 189.417969 C 197.914062 191.375 191.804688 194.367188 186.988281 199 C 181.957031 203.832031 178.6875 210.175781 173.542969 214.898438 C 171.296875 217.070312 168.679688 218.625 165.695312 219.5625 C 164.242188 220.003906 162.761719 220.148438 161.25 220 C 161.117188 219.996094 160.988281 219.984375 160.859375 219.960938 L 160.320312 219.859375 C 159.9375 219.773438 159.558594 219.660156 159.191406 219.523438 C 158.609375 219.28125 158.089844 218.949219 157.628906 218.527344 C 157.398438 218.316406 157.203125 218.082031 157.046875 217.816406 C 156.886719 217.554688 156.742188 217.289062 156.621094 217.011719 C 156.480469 216.652344 156.375 216.285156 156.292969 215.910156 C 156.21875 215.609375 156.171875 215.304688 156.148438 214.996094 C 156.082031 214.230469 156.082031 213.46875 156.148438 212.703125 C 156.148438 212.539062 156.183594 212.375 156.203125 212.214844 C 156.203125 212.167969 156.203125 211.992188 156.246094 211.941406 C 156.300781 211.605469 156.363281 211.285156 156.445312 210.945312 C 156.589844 210.285156 156.773438 209.632812 156.992188 208.988281 C 157.105469 208.675781 157.222656 208.335938 157.347656 208.054688 C 157.347656 208.023438 157.347656 207.988281 157.347656 207.957031 L 157.390625 207.867188 C 157.464844 207.703125 157.535156 207.53125 157.613281 207.371094 C 158.191406 206.148438 158.859375 204.976562 159.613281 203.859375 C 159.996094 203.285156 160.394531 202.722656 160.8125 202.171875 C 161.160156 201.703125 161.464844 201.292969 161.957031 200.710938 C 162.851562 199.609375 163.785156 198.539062 164.734375 197.449219 C 166.636719 195.292969 168.585938 193.171875 170.363281 190.917969 C 172.335938 188.570312 173.945312 185.996094 175.191406 183.195312 C 176.4375 180.394531 177.269531 177.476562 177.695312 174.445312 C 178.683594 168.132812 178.386719 161.734375 178.140625 155.375 C 178.015625 152.203125 177.90625 149.03125 177.96875 145.859375 C 178.007812 144.296875 178.082031 142.746094 178.230469 141.191406 C 178.363281 139.742188 178.582031 138.304688 178.886719 136.882812 C 179.433594 134.023438 180.371094 131.304688 181.703125 128.714844 C 181.804688 128.535156 181.867188 128.339844 181.890625 128.132812 C 181.917969 127.925781 181.902344 127.722656 181.851562 127.519531 C 181.796875 127.316406 181.710938 127.132812 181.585938 126.964844 C 181.460938 126.796875 181.3125 126.660156 181.136719 126.546875 C 180.953125 126.445312 180.757812 126.378906 180.550781 126.355469 C 180.34375 126.328125 180.140625 126.339844 179.9375 126.394531 C 179.734375 126.445312 179.550781 126.535156 179.382812 126.660156 C 179.214844 126.785156 179.078125 126.9375 178.96875 127.117188 C 175.902344 132.953125 174.957031 139.519531 174.824219 146.046875 C 174.695312 152.574219 175.320312 159.101562 175.242188 165.632812 C 175.257812 168.78125 175 171.90625 174.464844 175.011719 C 173.914062 178.046875 172.925781 180.933594 171.496094 183.667969 C 168.738281 188.824219 164.585938 192.773438 160.746094 197.285156 C 156.90625 201.796875 153.496094 206.78125 152.972656 212.828125 C 152.675781 216.292969 153.703125 220.054688 156.894531 221.886719 C 159.929688 223.628906 163.890625 223.453125 167.128906 222.398438 C 174.074219 220.132812 178.675781 214.300781 182.902344 208.6875 C 184.972656 205.75 187.308594 203.035156 189.902344 200.542969 C 192.351562 198.367188 195.054688 196.578125 198.011719 195.167969 C 203.898438 192.277344 210.671875 190.761719 217.257812 189.777344 C 224.867188 188.640625 232.570312 188.140625 240.144531 186.65625 C 246.988281 185.3125 253.738281 183.105469 259.53125 179.136719 C 264.761719 175.578125 269.128906 170.808594 271.464844 164.894531 C 273.9375 158.632812 273.378906 151.679688 270.59375 145.628906 C 269.125 142.542969 267.164062 139.804688 264.710938 137.421875 C 262.261719 135.035156 259.46875 133.152344 256.339844 131.765625 C 253.054688 130.292969 249.628906 129.335938 246.054688 128.890625 C 242.492188 128.433594 238.964844 128.675781 235.394531 128.929688 C 233.527344 129.09375 231.652344 129.128906 229.777344 129.042969 C 228.933594 129 228.097656 128.882812 227.273438 128.695312 C 226.875 128.613281 226.484375 128.507812 226.089844 128.382812 L 225.4375 128.15625 L 225 127.976562 C 222.652344 126.855469 220.628906 125.3125 218.925781 123.351562 C 220.925781 121.390625 222.800781 119.304688 224.71875 117.339844 C 226.90625 114.941406 229.433594 112.984375 232.300781 111.460938 C 232.480469 111.355469 232.632812 111.21875 232.757812 111.050781 C 232.886719 110.882812 232.972656 110.699219 233.027344 110.5 C 233.082031 110.296875 233.09375 110.09375 233.066406 109.886719 C 233.039062 109.679688 232.976562 109.484375 232.871094 109.300781 C 232.761719 109.125 232.625 108.972656 232.457031 108.847656 C 232.289062 108.722656 232.101562 108.636719 231.898438 108.582031 C 231.699219 108.53125 231.492188 108.515625 231.285156 108.542969 C 231.078125 108.570312 230.882812 108.632812 230.699219 108.734375 C 225.011719 111.554688 221.277344 116.75 216.824219 121.070312 C 215.15625 119.042969 213.296875 117.207031 211.246094 115.5625 C 208.863281 113.804688 206.203125 112.753906 203.261719 112.402344 C 201.878906 112.195312 200.515625 112.289062 199.171875 112.6875 C 197.828125 113.089844 196.636719 113.753906 195.59375 114.6875 C 195.078125 115.191406 194.640625 115.753906 194.28125 116.378906 C 193.921875 117.003906 193.65625 117.664062 193.480469 118.363281 C 193.300781 119.0625 193.222656 119.769531 193.242188 120.488281 C 193.261719 121.207031 193.378906 121.910156 193.589844 122.597656 Z M 197.90625 124.152344 C 197.777344 123.996094 197.882812 124.125 197.90625 124.152344 Z M 196.703125 118.492188 Z M 196.421875 119.550781 C 196.421875 119.640625 196.421875 119.648438 196.421875 119.550781 Z M 196.421875 119.714844 C 196.425781 119.65625 196.425781 119.597656 196.421875 119.539062 C 196.480469 119.265625 196.539062 118.996094 196.625 118.726562 C 196.625 118.648438 196.683594 118.570312 196.710938 118.488281 C 196.738281 118.402344 196.847656 118.207031 196.925781 118.0625 L 197.15625 117.683594 L 197.304688 117.476562 C 197.492188 117.242188 197.695312 117.023438 197.914062 116.824219 C 197.984375 116.757812 198.0625 116.683594 198.148438 116.621094 L 198.332031 116.484375 C 198.59375 116.308594 198.863281 116.15625 199.144531 116.019531 C 199.203125 116.019531 199.320312 115.941406 199.351562 115.929688 L 199.632812 115.828125 C 199.9375 115.734375 200.242188 115.652344 200.554688 115.589844 L 200.855469 115.535156 L 201.09375 115.535156 C 201.421875 115.503906 201.753906 115.496094 202.085938 115.503906 C 202.375 115.503906 202.660156 115.503906 202.949219 115.550781 L 203.210938 115.550781 L 203.699219 115.632812 C 204.347656 115.757812 204.980469 115.925781 205.605469 116.136719 C 205.878906 116.226562 206.140625 116.324219 206.410156 116.4375 L 206.730469 116.574219 L 207.21875 116.800781 C 207.8125 117.101562 208.390625 117.4375 208.945312 117.800781 C 209.179688 117.957031 209.410156 118.121094 209.636719 118.292969 L 209.894531 118.492188 L 210.285156 118.832031 C 210.855469 119.34375 211.402344 119.878906 211.933594 120.433594 C 212.796875 121.320312 213.628906 122.246094 214.453125 123.175781 C 212.492188 124.867188 210.285156 126.128906 207.828125 126.953125 C 206.367188 127.410156 204.875 127.574219 203.347656 127.441406 L 203.171875 127.441406 L 202.734375 127.359375 C 202.386719 127.28125 202.050781 127.179688 201.71875 127.058594 L 201.472656 126.964844 L 201.132812 126.808594 C 200.8125 126.652344 200.503906 126.476562 200.203125 126.289062 C 199.960938 126.136719 199.726562 125.972656 199.496094 125.804688 C 199.449219 125.757812 199.273438 125.617188 199.242188 125.589844 C 199.105469 125.472656 198.972656 125.355469 198.847656 125.230469 C 198.621094 125.023438 198.402344 124.808594 198.195312 124.578125 C 198.085938 124.453125 197.980469 124.324219 197.875 124.191406 L 197.699219 123.957031 C 197.535156 123.710938 197.371094 123.460938 197.226562 123.207031 C 197.140625 123.054688 197.0625 122.90625 196.984375 122.757812 C 196.984375 122.703125 196.886719 122.535156 196.855469 122.476562 C 196.640625 121.949219 196.488281 121.402344 196.398438 120.84375 C 196.398438 120.792969 196.398438 120.699219 196.398438 120.640625 C 196.398438 120.582031 196.398438 120.367188 196.398438 120.230469 C 196.398438 120.09375 196.402344 119.871094 196.410156 119.714844 Z M 196.421875 119.714844 " fill-opacity="1" fill-rule="nonzero"/><path fill="#e05060" d="M 253.160156 249.773438 C 253.574219 249.773438 253.984375 249.773438 254.390625 249.773438 C 254.730469 249.765625 255.066406 249.785156 255.398438 249.839844 L 255.496094 249.839844 L 255.710938 249.878906 C 255.929688 249.925781 256.136719 249.976562 256.367188 250.035156 C 256.539062 250.082031 256.707031 250.136719 256.871094 250.199219 L 256.933594 250.199219 L 257.066406 250.257812 C 257.21875 250.328125 257.367188 250.410156 257.511719 250.5 L 257.71875 250.636719 C 257.847656 250.742188 257.964844 250.855469 258.078125 250.976562 L 258.210938 251.121094 C 258.296875 251.25 258.378906 251.375 258.453125 251.511719 C 258.523438 251.648438 258.53125 251.65625 258.5625 251.726562 C 258.566406 251.742188 258.566406 251.757812 258.5625 251.773438 C 258.625 251.972656 258.71875 252.15625 258.851562 252.316406 C 258.984375 252.480469 259.140625 252.613281 259.324219 252.71875 C 259.503906 252.820312 259.699219 252.886719 259.910156 252.914062 C 260.117188 252.941406 260.320312 252.925781 260.523438 252.875 C 260.726562 252.816406 260.910156 252.722656 261.078125 252.59375 C 261.242188 252.464844 261.375 252.304688 261.480469 252.121094 C 261.582031 251.941406 261.648438 251.742188 261.675781 251.535156 C 261.699219 251.324219 261.6875 251.121094 261.628906 250.917969 C 261.3125 250.035156 260.816406 249.261719 260.152344 248.597656 C 259.484375 247.9375 258.710938 247.445312 257.824219 247.132812 C 256.191406 246.5625 254.515625 246.375 252.796875 246.5625 C 251.050781 246.777344 249.328125 247.117188 247.628906 247.582031 C 247.21875 247.671875 246.804688 247.765625 246.386719 247.835938 C 246.183594 247.875 245.976562 247.914062 245.765625 247.941406 L 245.519531 247.980469 L 245.308594 247.980469 C 244.46875 248.109375 243.621094 248.160156 242.773438 248.125 L 242.503906 248.125 C 242.3125 248.089844 242.128906 248.046875 241.949219 248 C 241.765625 247.953125 241.585938 247.894531 241.410156 247.828125 L 241.3125 247.789062 L 241.234375 247.789062 L 241.089844 247.707031 C 240.925781 247.621094 240.777344 247.515625 240.621094 247.425781 L 240.449219 247.28125 C 240.3125 247.152344 240.1875 247.007812 240.058594 246.875 L 239.835938 246.53125 C 239.761719 246.40625 239.699219 246.277344 239.632812 246.144531 L 239.632812 246.105469 C 239.535156 245.867188 239.453125 245.625 239.390625 245.375 C 239.253906 244.886719 239.15625 244.375 239.0625 243.875 C 238.929688 242.890625 238.710938 241.921875 238.410156 240.976562 C 237.777344 239.300781 236.835938 237.828125 235.585938 236.546875 C 234.332031 235.269531 232.878906 234.292969 231.21875 233.625 C 229.519531 232.890625 227.753906 232.445312 225.910156 232.289062 C 224.070312 232.128906 222.25 232.265625 220.453125 232.699219 C 216.261719 233.722656 212.566406 236.125 209.335938 238.953125 C 206.238281 241.679688 203.660156 244.878906 200.929688 247.953125 C 199.585938 249.488281 198.144531 250.929688 196.613281 252.273438 L 196.0625 252.730469 L 195.769531 252.96875 L 195.703125 253.011719 C 195.285156 253.324219 194.855469 253.664062 194.394531 253.921875 C 193.53125 254.484375 192.628906 254.972656 191.683594 255.382812 L 191.636719 255.382812 L 191.546875 255.414062 L 191.164062 255.558594 L 190.320312 255.851562 C 189.78125 256.027344 189.230469 256.179688 188.679688 256.316406 C 187.542969 256.597656 186.390625 256.804688 185.242188 256.96875 C 183 257.273438 180.78125 257.691406 178.585938 258.222656 C 174.902344 259.21875 171.136719 261.246094 169.148438 264.617188 C 168.652344 265.460938 168.292969 266.359375 168.070312 267.316406 C 168.015625 267.515625 168 267.722656 168.027344 267.929688 C 168.050781 268.136719 168.117188 268.332031 168.21875 268.515625 C 168.324219 268.695312 168.457031 268.851562 168.625 268.980469 C 168.789062 269.109375 168.972656 269.203125 169.175781 269.257812 C 169.378906 269.3125 169.582031 269.328125 169.792969 269.300781 C 170 269.277344 170.195312 269.210938 170.378906 269.109375 C 170.558594 269.007812 170.714844 268.871094 170.84375 268.707031 C 170.976562 268.542969 171.066406 268.359375 171.125 268.15625 C 171.214844 267.785156 171.324219 267.417969 171.457031 267.0625 C 171.457031 267.101562 171.601562 266.726562 171.640625 266.648438 C 171.757812 266.425781 171.882812 266.210938 172.011719 265.996094 C 172.125 265.820312 172.242188 265.652344 172.359375 265.480469 L 172.570312 265.226562 C 172.855469 264.894531 173.164062 264.582031 173.492188 264.285156 C 173.648438 264.144531 173.8125 264.003906 173.976562 263.867188 L 174.105469 263.769531 L 174.269531 263.644531 C 174.640625 263.386719 175.027344 263.136719 175.417969 262.910156 C 175.8125 262.679688 176.191406 262.484375 176.582031 262.296875 L 177.125 262.054688 L 177.238281 262 L 177.667969 261.839844 C 181.699219 260.332031 186.089844 260.296875 190.21875 259.160156 C 192.339844 258.585938 194.324219 257.695312 196.160156 256.484375 C 197.886719 255.316406 199.480469 253.984375 200.933594 252.492188 C 203.761719 249.652344 206.167969 246.453125 208.984375 243.585938 C 209.703125 242.84375 210.441406 242.125 211.214844 241.433594 C 211.5625 241.117188 211.914062 240.820312 212.265625 240.519531 L 212.835938 240.046875 L 213.125 239.820312 L 213.195312 239.761719 L 213.269531 239.714844 C 214.863281 238.492188 216.574219 237.464844 218.40625 236.632812 L 218.582031 236.5625 L 218.824219 236.464844 L 219.480469 236.214844 C 219.957031 236.046875 220.441406 235.902344 220.929688 235.773438 C 221.421875 235.640625 221.78125 235.5625 222.238281 235.484375 C 222.332031 235.484375 222.957031 235.328125 222.519531 235.441406 C 222.753906 235.394531 222.988281 235.367188 223.226562 235.367188 C 224.023438 235.304688 224.820312 235.304688 225.621094 235.367188 L 226.214844 235.425781 L 226.265625 235.425781 L 226.503906 235.460938 C 226.941406 235.539062 227.367188 235.621094 227.808594 235.734375 C 228.253906 235.84375 228.574219 235.941406 228.949219 236.074219 L 229.511719 236.273438 L 229.726562 236.359375 L 229.765625 236.359375 L 229.835938 236.394531 C 230.566406 236.722656 231.261719 237.109375 231.929688 237.546875 L 232.296875 237.816406 L 232.617188 238.0625 C 232.929688 238.339844 233.238281 238.625 233.527344 238.925781 C 233.65625 239.0625 233.78125 239.207031 233.90625 239.351562 L 234.046875 239.519531 C 234.265625 239.828125 234.480469 240.132812 234.667969 240.460938 C 234.839844 240.757812 234.992188 241.066406 235.128906 241.378906 C 235.128906 241.472656 235.246094 241.679688 235.269531 241.746094 C 235.34375 241.96875 235.414062 242.191406 235.472656 242.398438 C 235.742188 243.398438 235.847656 244.429688 236.070312 245.433594 C 236.234375 246.441406 236.605469 247.371094 237.175781 248.222656 C 237.746094 249.074219 238.464844 249.765625 239.339844 250.304688 C 242.515625 252.085938 246.53125 251.230469 249.871094 250.34375 C 250.648438 250.097656 251.4375 249.933594 252.246094 249.847656 C 251.796875 249.878906 252.421875 249.847656 252.527344 249.847656 Z M 195.769531 252.785156 Z M 239.503906 245.902344 C 239.46875 245.84375 239.503906 245.863281 239.503906 245.902344 Z M 241.226562 247.710938 L 241.371094 247.769531 C 241.371094 247.769531 241.289062 247.746094 241.226562 247.710938 Z M 242.582031 248.089844 L 242.710938 248.089844 C 242.671875 248.109375 242.628906 248.121094 242.582031 248.125 Z M 242.582031 248.089844 " fill-opacity="1" fill-rule="nonzero"/><path fill="#e05060" d="M 103.027344 195.136719 L 102.972656 195.203125 C 102.914062 195.246094 102.835938 195.429688 103.027344 195.136719 Z M 103.027344 195.136719 " fill-opacity="1" fill-rule="nonzero"/><path fill="#e05060" d="M 104.097656 188.8125 C 103.832031 189.113281 104.035156 188.894531 104.097656 188.8125 Z M 104.097656 188.8125 " fill-opacity="1" fill-rule="nonzero"/><path fill="#e05060" d="M 99.828125 201.480469 C 99.921875 201.121094 99.84375 201.359375 99.828125 201.480469 Z M 99.828125 201.480469 " fill-opacity="1" fill-rule="nonzero"/><path fill="#e05060" d="M 212.246094 22.429688 L 212.292969 22.324219 Z M 212.246094 22.429688 " fill-opacity="1" fill-rule="nonzero"/><path fill="#e05060" d="M 220.578125 75.136719 C 225.320312 82.839844 230.347656 90.359375 235.070312 98.074219 C 235.738281 99.175781 236.410156 100.28125 237.082031 101.398438 C 237.152344 101.515625 237.238281 101.621094 237.339844 101.714844 C 237.4375 101.808594 237.546875 101.890625 237.664062 101.957031 C 237.785156 102.023438 237.910156 102.074219 238.042969 102.109375 C 238.175781 102.144531 238.3125 102.160156 238.449219 102.160156 C 238.585938 102.160156 238.722656 102.144531 238.855469 102.109375 C 238.988281 102.074219 239.113281 102.023438 239.234375 101.957031 C 239.351562 101.890625 239.460938 101.808594 239.558594 101.714844 C 239.660156 101.621094 239.746094 101.515625 239.816406 101.398438 C 244.488281 94.570312 248.726562 87.488281 252.527344 80.140625 C 254.351562 76.726562 256.128906 73.289062 257.949219 69.875 C 259.832031 66.335938 261.675781 62.816406 263.179688 59.109375 C 266.265625 51.644531 268.148438 43.890625 268.828125 35.84375 C 269.183594 32.015625 269.183594 28.1875 268.828125 24.363281 C 268.554688 21.121094 267.730469 18.027344 266.359375 15.078125 C 264.957031 12.238281 262.949219 9.921875 260.335938 8.128906 C 257.261719 6.082031 253.882812 4.886719 250.207031 4.535156 C 248.371094 4.332031 246.546875 4.402344 244.734375 4.742188 C 242.917969 5.085938 241.195312 5.683594 239.5625 6.539062 C 237.9375 7.457031 236.445312 8.542969 235.074219 9.804688 C 233.796875 10.945312 232.625 12.183594 231.5625 13.527344 C 227.125 19.140625 224.601562 26.253906 225.476562 33.441406 C 226.324219 40.324219 229.980469 47.496094 236.402344 50.722656 C 239.417969 52.234375 243.136719 53.007812 246.375 51.714844 C 250.089844 50.230469 252.058594 46.765625 253.164062 43.101562 C 254.265625 39.441406 254.667969 35.125 253.351562 31.351562 C 253.058594 30.480469 252.671875 29.648438 252.191406 28.859375 C 251.710938 28.074219 251.148438 27.351562 250.503906 26.6875 C 249.859375 26.027344 249.152344 25.445312 248.378906 24.941406 C 247.605469 24.4375 246.785156 24.027344 245.917969 23.710938 C 244.242188 23.125 242.535156 23.011719 240.796875 23.371094 C 240.59375 23.425781 240.410156 23.519531 240.242188 23.648438 C 240.074219 23.777344 239.941406 23.9375 239.835938 24.121094 C 239.734375 24.304688 239.667969 24.5 239.644531 24.710938 C 239.617188 24.917969 239.632812 25.125 239.691406 25.328125 C 239.753906 25.527344 239.847656 25.710938 239.976562 25.875 C 240.109375 26.039062 240.265625 26.171875 240.449219 26.277344 C 240.632812 26.378906 240.828125 26.445312 241.035156 26.472656 C 241.242188 26.5 241.449219 26.488281 241.652344 26.4375 C 241.71875 26.4375 242.066406 26.378906 242.046875 26.371094 L 242.511719 26.371094 C 242.851562 26.367188 243.195312 26.382812 243.535156 26.417969 L 243.921875 26.484375 C 244.113281 26.523438 244.296875 26.5625 244.476562 26.613281 L 244.949219 26.765625 L 245.367188 26.921875 C 246.035156 27.214844 246.660156 27.582031 247.246094 28.015625 L 247.550781 28.265625 L 247.929688 28.605469 C 248.234375 28.890625 248.519531 29.195312 248.789062 29.511719 L 248.949219 29.722656 L 248.992188 29.765625 C 249.089844 29.910156 249.1875 30.046875 249.277344 30.191406 C 249.507812 30.535156 249.714844 30.890625 249.898438 31.261719 C 250.054688 31.550781 250.183594 31.851562 250.285156 32.164062 C 250.441406 32.613281 250.578125 33.070312 250.691406 33.535156 C 250.894531 34.328125 251.003906 35.136719 251.015625 35.957031 C 251.050781 36.867188 251.011719 37.777344 250.90625 38.683594 C 250.90625 38.769531 250.90625 38.855469 250.90625 38.9375 C 250.90625 38.960938 250.90625 38.988281 250.90625 39.011719 C 250.867188 39.238281 250.835938 39.460938 250.789062 39.664062 C 250.710938 40.113281 250.613281 40.558594 250.5 41.007812 C 250.289062 41.871094 250.03125 42.714844 249.722656 43.546875 C 249.652344 43.75 249.570312 43.953125 249.492188 44.148438 L 249.492188 44.1875 L 249.3125 44.453125 C 249.113281 44.867188 248.894531 45.265625 248.65625 45.65625 C 248.300781 46.335938 247.839844 46.933594 247.277344 47.457031 C 247.125 47.601562 246.976562 47.738281 246.8125 47.875 L 246.773438 47.875 L 246.589844 48.003906 C 246.265625 48.234375 245.921875 48.429688 245.5625 48.601562 L 245.421875 48.671875 L 245.375 48.671875 L 244.859375 48.847656 C 244.492188 48.953125 244.121094 49.035156 243.746094 49.097656 L 243.53125 49.097656 C 243.347656 49.097656 243.164062 49.097656 242.972656 49.097656 C 242.578125 49.105469 242.183594 49.09375 241.789062 49.058594 L 241.46875 49.015625 L 241.019531 48.933594 C 240.640625 48.859375 240.265625 48.761719 239.902344 48.660156 C 239.535156 48.554688 239.160156 48.410156 238.796875 48.273438 L 238.71875 48.371094 L 238.535156 48.285156 C 238.351562 48.207031 238.175781 48.125 238 48.03125 C 237.292969 47.679688 236.621094 47.273438 235.976562 46.816406 L 235.652344 46.570312 L 235.265625 46.257812 C 234.964844 46 234.675781 45.734375 234.402344 45.460938 C 233.832031 44.890625 233.292969 44.289062 232.792969 43.660156 L 232.753906 43.605469 L 232.570312 43.359375 L 232.21875 42.867188 C 231.988281 42.535156 231.773438 42.214844 231.5625 41.84375 C 231.140625 41.152344 230.757812 40.4375 230.417969 39.703125 L 230.203125 39.21875 L 230.066406 38.894531 C 229.910156 38.496094 229.765625 38.089844 229.628906 37.679688 C 229.367188 36.90625 229.148438 36.125 228.972656 35.328125 C 228.894531 34.957031 228.824219 34.578125 228.757812 34.207031 C 228.71875 34.003906 228.691406 33.800781 228.660156 33.597656 C 228.660156 33.46875 228.660156 33.332031 228.609375 33.199219 C 228.523438 32.390625 228.476562 31.574219 228.472656 30.757812 C 228.464844 29.945312 228.503906 29.128906 228.582031 28.316406 L 228.640625 27.789062 L 228.640625 27.742188 L 228.679688 27.457031 C 228.746094 27.042969 228.816406 26.640625 228.902344 26.242188 C 229.074219 25.433594 229.28125 24.636719 229.523438 23.851562 C 229.640625 23.488281 229.765625 23.121094 229.894531 22.761719 C 229.96875 22.566406 230.039062 22.378906 230.117188 22.179688 C 230.152344 22.089844 230.191406 21.992188 230.230469 21.902344 L 230.230469 21.777344 C 230.878906 20.257812 231.664062 18.816406 232.582031 17.441406 C 232.792969 17.121094 233.015625 16.789062 233.238281 16.488281 C 233.355469 16.320312 233.480469 16.15625 233.605469 15.992188 L 233.675781 15.894531 L 233.886719 15.640625 C 234.402344 14.988281 234.945312 14.375 235.519531 13.773438 C 236.09375 13.171875 236.652344 12.636719 237.246094 12.101562 C 237.554688 11.828125 237.898438 11.5625 238.1875 11.292969 L 238.671875 10.90625 L 238.757812 10.84375 L 238.964844 10.6875 C 239.640625 10.175781 240.351562 9.71875 241.097656 9.316406 C 241.449219 9.125 241.808594 8.949219 242.175781 8.785156 C 242.242188 8.785156 242.457031 8.675781 242.496094 8.65625 L 243.152344 8.421875 C 243.941406 8.160156 244.746094 7.960938 245.5625 7.820312 L 245.980469 7.761719 C 246.164062 7.734375 246.347656 7.714844 246.53125 7.703125 C 246.945312 7.664062 247.363281 7.644531 247.78125 7.636719 C 251.066406 7.574219 254.164062 8.316406 257.066406 9.855469 C 257.722656 10.210938 258.355469 10.601562 258.960938 11.03125 L 259.328125 11.304688 L 259.53125 11.476562 C 259.828125 11.71875 260.109375 11.96875 260.375 12.21875 C 260.859375 12.683594 261.3125 13.175781 261.734375 13.695312 C 261.785156 13.761719 261.839844 13.820312 261.886719 13.882812 C 261.96875 14.007812 262.066406 14.125 262.152344 14.242188 C 262.363281 14.542969 262.566406 14.851562 262.753906 15.15625 C 263.121094 15.746094 263.449219 16.351562 263.742188 16.980469 C 263.8125 17.136719 263.878906 17.296875 263.957031 17.457031 C 263.984375 17.507812 264.003906 17.558594 264.023438 17.613281 C 264.167969 17.957031 264.296875 18.3125 264.414062 18.664062 C 264.882812 20.046875 265.230469 21.457031 265.460938 22.898438 C 265.460938 23.0625 265.507812 23.226562 265.535156 23.390625 C 265.535156 23.449219 265.535156 23.507812 265.535156 23.566406 C 265.535156 23.601562 265.535156 23.636719 265.535156 23.671875 C 265.578125 24.046875 265.625 24.425781 265.65625 24.8125 C 265.738281 25.65625 265.78125 26.507812 265.816406 27.359375 C 265.886719 29.25 265.886719 31.144531 265.816406 33.03125 C 265.667969 36.734375 265.21875 40.40625 264.46875 44.035156 C 263.707031 47.757812 262.679688 51.402344 261.386719 54.972656 C 260.136719 58.449219 258.636719 61.816406 256.894531 65.074219 C 255.203125 68.273438 253.488281 71.472656 251.800781 74.679688 C 248.199219 81.546875 244.523438 88.386719 240.332031 94.914062 C 239.730469 95.855469 239.109375 96.792969 238.480469 97.722656 C 234.109375 90.542969 229.511719 83.511719 225.03125 76.402344 C 223.003906 73.175781 221.015625 69.925781 219.144531 66.609375 C 218.277344 65.042969 217.433594 63.449219 216.636719 61.839844 C 216.25 61.0625 215.878906 60.28125 215.515625 59.488281 L 215.046875 58.429688 L 214.792969 57.84375 L 214.738281 57.726562 C 214.738281 57.6875 214.613281 57.425781 214.601562 57.394531 C 213.304688 54.25 212.265625 51.027344 211.484375 47.71875 C 211.078125 46.019531 210.742188 44.296875 210.488281 42.566406 L 210.410156 42.019531 C 210.410156 42.019531 210.363281 41.667969 210.351562 41.589844 C 210.292969 41.113281 210.238281 40.636719 210.1875 40.160156 C 210.097656 39.238281 210.019531 38.3125 209.964844 37.378906 C 209.832031 35.484375 209.832031 33.589844 209.964844 31.691406 C 209.964844 31.25 210.042969 30.8125 210.097656 30.386719 C 210.097656 30.300781 210.15625 29.988281 210.097656 30.320312 L 210.136719 30.042969 C 210.175781 29.765625 210.21875 29.492188 210.273438 29.210938 C 210.4375 28.292969 210.640625 27.382812 210.886719 26.484375 C 211.136719 25.582031 211.417969 24.6875 211.738281 23.8125 C 211.894531 23.371094 212.070312 22.9375 212.246094 22.507812 C 212.265625 22.472656 212.28125 22.441406 212.292969 22.402344 C 212.324219 22.339844 212.351562 22.265625 212.386719 22.203125 C 212.488281 21.960938 212.59375 21.730469 212.707031 21.496094 C 213.503906 19.792969 214.433594 18.167969 215.496094 16.613281 C 215.765625 16.226562 216.035156 15.84375 216.316406 15.464844 L 216.484375 15.242188 L 216.628906 15.054688 C 216.679688 14.988281 216.757812 14.882812 216.757812 14.890625 L 217.019531 14.5625 C 217.617188 13.832031 218.238281 13.128906 218.882812 12.449219 C 219.539062 11.796875 220.191406 11.144531 220.910156 10.492188 C 221.257812 10.175781 221.617188 9.875 221.976562 9.578125 L 222.472656 9.179688 L 222.664062 9.027344 L 222.875 8.863281 C 224.375 7.738281 225.960938 6.746094 227.632812 5.886719 C 228.046875 5.679688 228.472656 5.46875 228.894531 5.273438 L 229.550781 4.992188 L 229.628906 4.992188 L 229.949219 4.863281 C 230.816406 4.511719 231.707031 4.210938 232.601562 3.9375 C 233.5 3.664062 234.421875 3.445312 235.34375 3.285156 C 235.546875 3.226562 235.730469 3.132812 235.898438 3.003906 C 236.0625 2.871094 236.199219 2.714844 236.300781 2.53125 C 236.40625 2.347656 236.46875 2.152344 236.496094 1.941406 C 236.519531 1.734375 236.503906 1.527344 236.449219 1.324219 C 236.386719 1.125 236.292969 0.941406 236.160156 0.777344 C 236.03125 0.613281 235.875 0.480469 235.691406 0.378906 C 235.507812 0.277344 235.3125 0.210938 235.105469 0.183594 C 234.894531 0.15625 234.691406 0.167969 234.488281 0.222656 C 232.570312 0.632812 230.699219 1.199219 228.878906 1.925781 C 227.058594 2.65625 225.3125 3.53125 223.640625 4.554688 C 221.96875 5.582031 220.398438 6.742188 218.925781 8.035156 C 217.453125 9.328125 216.101562 10.734375 214.871094 12.257812 C 209.847656 18.375 206.714844 26.058594 206.683594 34.023438 C 206.683594 41.449219 207.96875 48.644531 210.539062 55.609375 C 213.089844 62.425781 216.71875 68.886719 220.578125 75.136719 Z M 248.910156 29.664062 Z M 248.910156 29.664062 " fill-opacity="1" fill-rule="nonzero"/><g fill="#e05060" fill-opacity="1"><g transform="translate(53.202355, 360.651626)"><g><path d="M 35.453125 -46.21875 C 36.378906 -46.21875 37.140625 -45.941406 37.734375 -45.390625 C 38.328125 -44.847656 38.625 -44.113281 38.625 -43.1875 C 38.625 -42.257812 38.328125 -41.53125 37.734375 -41 C 37.140625 -40.476562 36.378906 -40.21875 35.453125 -40.21875 L 23.703125 -40.21875 L 23.703125 -3.171875 C 23.703125 -2.285156 23.382812 -1.535156 22.75 -0.921875 C 22.113281 -0.304688 21.3125 0 20.34375 0 C 19.375 0 18.566406 -0.304688 17.921875 -0.921875 C 17.285156 -1.535156 16.96875 -2.285156 16.96875 -3.171875 L 16.96875 -40.21875 L 5.28125 -40.21875 C 4.351562 -40.21875 3.59375 -40.488281 3 -41.03125 C 2.40625 -41.582031 2.109375 -42.320312 2.109375 -43.25 C 2.109375 -44.132812 2.40625 -44.847656 3 -45.390625 C 3.59375 -45.941406 4.351562 -46.21875 5.28125 -46.21875 Z M 35.453125 -46.21875 "/></g></g></g><g fill="#e05060" fill-opacity="1"><g transform="translate(93.940441, 360.651626)"><g><path d="M 21.921875 -35.390625 C 23.066406 -35.390625 24.054688 -35.09375 24.890625 -34.5 C 25.722656 -33.90625 26.140625 -33.171875 26.140625 -32.296875 C 26.140625 -31.234375 25.863281 -30.425781 25.3125 -29.875 C 24.769531 -29.320312 24.101562 -29.046875 23.3125 -29.046875 C 22.914062 -29.046875 22.320312 -29.179688 21.53125 -29.453125 C 20.601562 -29.753906 19.875 -29.90625 19.34375 -29.90625 C 17.976562 -29.90625 16.644531 -29.429688 15.34375 -28.484375 C 14.050781 -27.546875 13 -26.25 12.1875 -24.59375 C 11.375 -22.945312 10.96875 -21.109375 10.96875 -19.078125 L 10.96875 -3.171875 C 10.96875 -2.285156 10.664062 -1.535156 10.0625 -0.921875 C 9.46875 -0.304688 8.710938 0 7.796875 0 C 6.867188 0 6.117188 -0.296875 5.546875 -0.890625 C 4.972656 -1.484375 4.6875 -2.242188 4.6875 -3.171875 L 4.6875 -31.4375 C 4.6875 -32.3125 4.984375 -33.054688 5.578125 -33.671875 C 6.171875 -34.285156 6.910156 -34.59375 7.796875 -34.59375 C 8.710938 -34.59375 9.46875 -34.285156 10.0625 -33.671875 C 10.664062 -33.054688 10.96875 -32.3125 10.96875 -31.4375 L 10.96875 -28.0625 C 11.925781 -30.21875 13.375 -31.96875 15.3125 -33.3125 C 17.25 -34.65625 19.453125 -35.347656 21.921875 -35.390625 Z M 21.921875 -35.390625 "/></g></g></g><g fill="#e05060" fill-opacity="1"><g transform="translate(121.209204, 360.651626)"><g><path d="M 32.75 -35.0625 C 33.675781 -35.0625 34.4375 -34.765625 35.03125 -34.171875 C 35.625 -33.578125 35.921875 -32.796875 35.921875 -31.828125 L 35.921875 -3.171875 C 35.921875 -2.285156 35.625 -1.535156 35.03125 -0.921875 C 34.4375 -0.304688 33.675781 0 32.75 0 C 31.820312 0 31.070312 -0.296875 30.5 -0.890625 C 29.925781 -1.484375 29.640625 -2.242188 29.640625 -3.171875 L 29.640625 -4.890625 C 28.503906 -3.347656 26.941406 -2.035156 24.953125 -0.953125 C 22.972656 0.117188 20.84375 0.65625 18.5625 0.65625 C 15.5625 0.65625 12.835938 -0.113281 10.390625 -1.65625 C 7.953125 -3.195312 6.039062 -5.34375 4.65625 -8.09375 C 3.269531 -10.84375 2.578125 -13.929688 2.578125 -17.359375 C 2.578125 -20.796875 3.269531 -23.890625 4.65625 -26.640625 C 6.039062 -29.390625 7.941406 -31.535156 10.359375 -33.078125 C 12.785156 -34.617188 15.453125 -35.390625 18.359375 -35.390625 C 20.691406 -35.390625 22.859375 -34.90625 24.859375 -33.9375 C 26.859375 -32.96875 28.453125 -31.738281 29.640625 -30.25 L 29.640625 -31.828125 C 29.640625 -32.753906 29.925781 -33.523438 30.5 -34.140625 C 31.070312 -34.753906 31.820312 -35.0625 32.75 -35.0625 Z M 19.28125 -5.15625 C 21.351562 -5.15625 23.191406 -5.679688 24.796875 -6.734375 C 26.398438 -7.785156 27.648438 -9.234375 28.546875 -11.078125 C 29.453125 -12.929688 29.90625 -15.023438 29.90625 -17.359375 C 29.90625 -19.648438 29.453125 -21.71875 28.546875 -23.5625 C 27.648438 -25.414062 26.398438 -26.878906 24.796875 -27.953125 C 23.191406 -29.035156 21.351562 -29.578125 19.28125 -29.578125 C 17.207031 -29.578125 15.367188 -29.046875 13.765625 -27.984375 C 12.160156 -26.929688 10.90625 -25.476562 10 -23.625 C 9.101562 -21.78125 8.65625 -19.691406 8.65625 -17.359375 C 8.65625 -15.023438 9.101562 -12.929688 10 -11.078125 C 10.90625 -9.234375 12.160156 -7.785156 13.765625 -6.734375 C 15.367188 -5.679688 17.207031 -5.15625 19.28125 -5.15625 Z M 19.28125 -5.15625 "/></g></g></g><g fill="#e05060" fill-opacity="1"><g transform="translate(161.749211, 360.651626)"><g><path d="M 31.09375 -34.9375 C 31.9375 -34.9375 32.644531 -34.660156 33.21875 -34.109375 C 33.789062 -33.554688 34.078125 -32.90625 34.078125 -32.15625 C 34.078125 -31.757812 33.921875 -31.207031 33.609375 -30.5 L 21.0625 -1.984375 C 20.800781 -1.410156 20.425781 -0.945312 19.9375 -0.59375 C 19.457031 -0.238281 18.929688 -0.0390625 18.359375 0 C 17.648438 0.0820312 17 -0.046875 16.40625 -0.390625 C 15.8125 -0.742188 15.363281 -1.273438 15.0625 -1.984375 L 2.515625 -30.5 C 2.285156 -31.164062 2.171875 -31.71875 2.171875 -32.15625 C 2.171875 -32.863281 2.457031 -33.503906 3.03125 -34.078125 C 3.601562 -34.648438 4.351562 -34.9375 5.28125 -34.9375 C 5.9375 -34.9375 6.53125 -34.769531 7.0625 -34.4375 C 7.59375 -34.101562 8.007812 -33.609375 8.3125 -32.953125 L 18.296875 -9.765625 L 28.265625 -32.953125 C 28.878906 -34.273438 29.820312 -34.9375 31.09375 -34.9375 Z M 31.09375 -34.9375 "/></g></g></g><g fill="#e05060" fill-opacity="1"><g transform="translate(197.931496, 360.651626)"><g><path d="M 35.0625 -18.625 C 35.019531 -17.832031 34.6875 -17.160156 34.0625 -16.609375 C 33.445312 -16.054688 32.722656 -15.78125 31.890625 -15.78125 L 8.65625 -15.78125 C 8.957031 -12.570312 10.175781 -10 12.3125 -8.0625 C 14.445312 -6.125 17.054688 -5.15625 20.140625 -5.15625 C 22.253906 -5.15625 23.96875 -5.460938 25.28125 -6.078125 C 26.601562 -6.691406 27.773438 -7.484375 28.796875 -8.453125 C 29.453125 -8.847656 30.085938 -9.046875 30.703125 -9.046875 C 31.453125 -9.046875 32.078125 -8.78125 32.578125 -8.25 C 33.085938 -7.726562 33.34375 -7.113281 33.34375 -6.40625 C 33.34375 -5.476562 32.90625 -4.640625 32.03125 -3.890625 C 30.75 -2.617188 29.050781 -1.539062 26.9375 -0.65625 C 24.820312 0.21875 22.664062 0.65625 20.46875 0.65625 C 16.90625 0.65625 13.769531 -0.0859375 11.0625 -1.578125 C 8.351562 -3.078125 6.257812 -5.171875 4.78125 -7.859375 C 3.3125 -10.546875 2.578125 -13.582031 2.578125 -16.96875 C 2.578125 -20.664062 3.332031 -23.910156 4.84375 -26.703125 C 6.363281 -29.503906 8.367188 -31.648438 10.859375 -33.140625 C 13.347656 -34.640625 16.023438 -35.390625 18.890625 -35.390625 C 21.703125 -35.390625 24.335938 -34.660156 26.796875 -33.203125 C 29.265625 -31.753906 31.25 -29.753906 32.75 -27.203125 C 34.25 -24.648438 35.019531 -21.789062 35.0625 -18.625 Z M 18.890625 -29.578125 C 16.421875 -29.578125 14.28125 -28.882812 12.46875 -27.5 C 10.664062 -26.113281 9.484375 -23.96875 8.921875 -21.0625 L 28.390625 -21.0625 L 28.390625 -21.59375 C 28.171875 -23.925781 27.125 -25.835938 25.25 -27.328125 C 23.382812 -28.828125 21.265625 -29.578125 18.890625 -29.578125 Z M 18.890625 -29.578125 "/></g></g></g><g fill="#e05060" fill-opacity="1"><g transform="translate(235.56635, 360.651626)"><g><path d="M 11.484375 -3.171875 C 11.484375 -2.285156 11.175781 -1.535156 10.5625 -0.921875 C 9.945312 -0.304688 9.195312 0 8.3125 0 C 7.4375 0 6.703125 -0.304688 6.109375 -0.921875 C 5.515625 -1.535156 5.21875 -2.285156 5.21875 -3.171875 L 5.21875 -45.6875 C 5.21875 -46.570312 5.523438 -47.320312 6.140625 -47.9375 C 6.753906 -48.550781 7.503906 -48.859375 8.390625 -48.859375 C 9.265625 -48.859375 10 -48.550781 10.59375 -47.9375 C 11.1875 -47.320312 11.484375 -46.570312 11.484375 -45.6875 Z M 11.484375 -3.171875 "/></g></g></g><g fill="#e05060" fill-opacity="1"><g transform="translate(252.270942, 360.651626)"><g><path d="M 19.484375 0.65625 C 16.265625 0.65625 13.421875 0.207031 10.953125 -0.6875 C 8.492188 -1.59375 6.140625 -3.054688 3.890625 -5.078125 C 2.972656 -5.867188 2.515625 -6.773438 2.515625 -7.796875 C 2.515625 -8.585938 2.820312 -9.300781 3.4375 -9.9375 C 4.050781 -10.570312 4.773438 -10.890625 5.609375 -10.890625 C 6.359375 -10.890625 7 -10.648438 7.53125 -10.171875 C 9.289062 -8.535156 11.101562 -7.332031 12.96875 -6.5625 C 14.84375 -5.800781 16.96875 -5.421875 19.34375 -5.421875 C 22.113281 -5.421875 24.457031 -6.054688 26.375 -7.328125 C 28.289062 -8.609375 29.25 -10.21875 29.25 -12.15625 C 29.207031 -14.4375 28.25 -16.203125 26.375 -17.453125 C 24.507812 -18.710938 21.660156 -19.765625 17.828125 -20.609375 C 13.296875 -21.523438 9.804688 -23.039062 7.359375 -25.15625 C 4.921875 -27.269531 3.703125 -30.195312 3.703125 -33.9375 C 3.703125 -36.53125 4.382812 -38.804688 5.75 -40.765625 C 7.113281 -42.734375 9.003906 -44.242188 11.421875 -45.296875 C 13.847656 -46.347656 16.578125 -46.875 19.609375 -46.875 C 22.335938 -46.875 24.910156 -46.429688 27.328125 -45.546875 C 29.753906 -44.671875 31.71875 -43.507812 33.21875 -42.0625 C 34.226562 -41.175781 34.734375 -40.226562 34.734375 -39.21875 C 34.734375 -38.425781 34.4375 -37.722656 33.84375 -37.109375 C 33.25 -36.492188 32.53125 -36.1875 31.6875 -36.1875 C 31.070312 -36.1875 30.566406 -36.363281 30.171875 -36.71875 C 29.023438 -37.863281 27.441406 -38.832031 25.421875 -39.625 C 23.398438 -40.414062 21.460938 -40.8125 19.609375 -40.8125 C 16.660156 -40.8125 14.316406 -40.203125 12.578125 -38.984375 C 10.835938 -37.773438 9.96875 -36.179688 9.96875 -34.203125 C 9.96875 -32.046875 10.835938 -30.394531 12.578125 -29.25 C 14.316406 -28.101562 16.90625 -27.132812 20.34375 -26.34375 C 23.769531 -25.59375 26.570312 -24.710938 28.75 -23.703125 C 30.9375 -22.691406 32.625 -21.28125 33.8125 -19.46875 C 35 -17.664062 35.59375 -15.3125 35.59375 -12.40625 C 35.59375 -9.851562 34.875 -7.585938 33.4375 -5.609375 C 32.007812 -3.628906 30.0625 -2.085938 27.59375 -0.984375 C 25.132812 0.109375 22.429688 0.65625 19.484375 0.65625 Z M 19.484375 0.65625 "/></g></g></g><g fill="#e05060" fill-opacity="1"><g transform="translate(290.698115, 360.651626)"><g><path d="M 39.421875 -24.296875 C 40.296875 -24.296875 41.03125 -23.988281 41.625 -23.375 C 42.226562 -22.757812 42.53125 -22.007812 42.53125 -21.125 L 42.53125 -6.265625 C 42.53125 -5.078125 42 -4.15625 40.9375 -3.5 C 38.914062 -2.175781 36.691406 -1.148438 34.265625 -0.421875 C 31.847656 0.296875 29.363281 0.65625 26.8125 0.65625 C 22.40625 0.65625 18.363281 -0.394531 14.6875 -2.5 C 11.007812 -4.613281 8.113281 -7.488281 6 -11.125 C 3.894531 -14.757812 2.84375 -18.753906 2.84375 -23.109375 C 2.84375 -27.460938 3.894531 -31.457031 6 -35.09375 C 8.113281 -38.726562 11.007812 -41.597656 14.6875 -43.703125 C 18.363281 -45.816406 22.40625 -46.875 26.8125 -46.875 C 29.007812 -46.875 31.128906 -46.628906 33.171875 -46.140625 C 35.222656 -45.660156 37.0625 -44.941406 38.6875 -43.984375 C 39.21875 -43.671875 39.613281 -43.289062 39.875 -42.84375 C 40.144531 -42.40625 40.28125 -41.925781 40.28125 -41.40625 C 40.28125 -40.519531 39.984375 -39.757812 39.390625 -39.125 C 38.796875 -38.488281 38.078125 -38.171875 37.234375 -38.171875 C 36.578125 -38.171875 36.007812 -38.320312 35.53125 -38.625 C 32.664062 -39.945312 29.757812 -40.609375 26.8125 -40.609375 C 23.632812 -40.609375 20.738281 -39.835938 18.125 -38.296875 C 15.507812 -36.753906 13.441406 -34.640625 11.921875 -31.953125 C 10.398438 -29.273438 9.640625 -26.328125 9.640625 -23.109375 C 9.640625 -19.898438 10.398438 -16.960938 11.921875 -14.296875 C 13.441406 -11.628906 15.507812 -9.515625 18.125 -7.953125 C 20.738281 -6.390625 23.632812 -5.609375 26.8125 -5.609375 C 28.300781 -5.609375 29.867188 -5.785156 31.515625 -6.140625 C 33.171875 -6.492188 34.59375 -6.957031 35.78125 -7.53125 L 35.78125 -18.03125 L 27.796875 -18.03125 C 26.921875 -18.03125 26.171875 -18.328125 25.546875 -18.921875 C 24.929688 -19.515625 24.625 -20.25 24.625 -21.125 C 24.625 -22.050781 24.929688 -22.8125 25.546875 -23.40625 C 26.171875 -24 26.921875 -24.296875 27.796875 -24.296875 Z M 39.421875 -24.296875 "/></g></g></g></svg>