<svg width="511" height="511" viewBox="0 0 511 511" fill="none" xmlns="http://www.w3.org/2000/svg">
<g clip-path="url(#clip0_428_2)">
<path d="M455.5 0H55.5C24.897 0 0 24.897 0 55.5V455.5C0 486.103 24.897 511 55.5 511H455.5C486.103 511 511 486.103 511 455.5V55.5C511 24.897 486.103 0 455.5 0ZM496 455.5C496 477.832 477.832 496 455.5 496H55.5C33.168 496 15 477.832 15 455.5V382.869C17.646 382.578 19.972 380.915 21.06 378.439C21.53 377.349 22.05 376.249 22.59 375.159C27.08 366.169 33.28 358.329 41.02 351.859C41.49 351.459 41.91 351.009 42.27 350.519C42.83 350.279 43.36 349.979 43.85 349.599C47.15 347.109 47.81 342.399 45.32 339.099C43.89 337.209 41.7 336.119 39.33 336.119C37.69 336.119 36.13 336.639 34.81 337.629C34.22 338.079 33.7 338.609 33.27 339.199C32.59 339.489 31.96 339.879 31.39 340.349C25.042 345.662 19.571 351.761 15 358.525V55.5C15 33.168 33.168 15 55.5 15H455.5C477.832 15 496 33.168 496 55.5V455.5Z" fill="#014E86"/>
<path d="M98.1972 148.803C99.6612 150.267 101.581 151 103.5 151C105.419 151 107.339 150.268 108.803 148.803L127.5 130.106L146.197 148.803C147.661 150.267 149.581 151 151.5 151C153.419 151 155.339 150.268 156.803 148.803C159.732 145.874 159.732 141.125 156.803 138.197L138.106 119.5L156.803 100.803C159.732 97.874 159.732 93.125 156.803 90.197C153.874 87.268 149.125 87.268 146.197 90.197L127.5 108.894L108.803 90.197C105.874 87.268 101.125 87.268 98.1972 90.197C95.2682 93.126 95.2682 97.875 98.1972 100.803L116.894 119.5L98.1972 138.197C95.2682 141.125 95.2682 145.875 98.1972 148.803Z" fill="#014E86"/>
<path d="M284.803 386.197C281.874 383.268 277.125 383.268 274.197 386.197L255.5 404.894L236.803 386.197C233.874 383.268 229.125 383.268 226.197 386.197C223.268 389.126 223.268 393.875 226.197 396.803L244.894 415.5L226.197 434.197C223.268 437.126 223.268 441.875 226.197 444.803C227.661 446.267 229.581 447 231.5 447C233.419 447 235.339 446.268 236.803 444.803L255.5 426.106L274.197 444.803C275.661 446.267 277.581 447 279.5 447C281.419 447 283.339 446.268 284.803 444.803C287.732 441.874 287.732 437.125 284.803 434.197L266.106 415.5L284.803 396.803C287.732 393.875 287.732 389.125 284.803 386.197Z" fill="#014E86"/>
<path d="M394.197 276.803C395.661 278.267 397.581 279 399.5 279C401.419 279 403.339 278.268 404.803 276.803C407.732 273.874 407.732 269.125 404.803 266.197L386.106 247.5L404.803 228.803C407.732 225.874 407.732 221.125 404.803 218.197C401.874 215.268 397.125 215.268 394.197 218.197L375.5 236.894L356.803 218.197C353.874 215.268 349.125 215.268 346.197 218.197C343.268 221.126 343.268 225.875 346.197 228.803L364.894 247.5L346.197 266.197C343.268 269.126 343.268 273.875 346.197 276.803C347.661 278.267 349.581 279 351.5 279C353.419 279 355.339 278.268 356.803 276.803L375.5 258.106L394.197 276.803Z" fill="#014E86"/>
<path d="M319 103.5C319 94.953 312.047 88 303.5 88C294.953 88 288 94.953 288 103.5C288 112.047 294.953 119 303.5 119C312.047 119 319 112.047 319 103.5Z" fill="#014E86"/>
<path d="M109.79 320C109.11 320 108.44 320.09 107.79 320.27C107.14 320.09 106.47 320 105.79 320H87.5001C82.1401 320 76.7601 320.49 71.5201 321.46C70.0801 321.72 68.6401 322.03 67.2401 322.36C65.2901 322.82 63.6301 324.02 62.5801 325.72C61.5301 327.43 61.2101 329.44 61.6701 331.39C62.4701 334.79 65.4701 337.16 68.9601 337.16C69.5401 337.16 70.1301 337.09 70.6901 336.96C70.6901 336.96 70.6901 336.96 70.7001 336.95C71.8901 336.67 73.0801 336.42 74.2401 336.21C78.5801 335.41 83.0401 335 87.5001 335H105.79C106.47 335 107.14 334.91 107.79 334.73C108.44 334.91 109.11 335 109.79 335C113.93 335 117.29 331.64 117.29 327.5C117.29 323.36 113.93 320 109.79 320Z" fill="#014E86"/>
<path d="M255.79 334.73C256.44 334.91 257.11 335 257.79 335C261.93 335 265.29 331.64 265.29 327.5C265.29 323.36 261.93 320 257.79 320C257.11 320 256.44 320.09 255.79 320.27C255.14 320.09 254.47 320 253.79 320H216.79C212.66 320 209.29 323.36 209.29 327.5C209.29 331.64 212.66 335 216.79 335H253.79C254.47 335 255.14 334.91 255.79 334.73Z" fill="#014E86"/>
<path d="M183.79 320C183.11 320 182.44 320.09 181.79 320.27C181.14 320.09 180.47 320 179.79 320H142.79C138.66 320 135.29 323.36 135.29 327.5C135.29 331.64 138.66 335 142.79 335H179.79C180.47 335 181.14 334.91 181.79 334.73C182.44 334.91 183.12 335 183.79 335C187.93 335 191.29 331.64 191.29 327.5C191.29 323.36 187.93 320 183.79 320Z" fill="#014E86"/>
<path d="M461.36 230.56C459.02 218.66 454.32 207.55 447.36 197.57C446.94 196.96 446.43 196.42 445.85 195.96C445.59 195.27 445.23 194.63 444.77 194.04C443.34 192.19 441.18 191.12 438.83 191.12C437.16 191.12 435.58 191.67 434.25 192.69C432.67 193.92 431.65 195.68 431.4 197.67C431.14 199.66 431.68 201.63 432.9 203.21C433.28 203.7 433.71 204.14 434.19 204.52C434.41 205.09 434.7 205.63 435.05 206.14C440.81 214.41 444.71 223.6 446.64 233.45C446.87 234.62 447.08 235.82 447.25 237.02C447.78 240.69 450.97 243.45 454.66 243.45C455.02 243.45 455.39 243.42 455.75 243.37C459.84 242.78 462.69 238.97 462.1 234.88C461.88 233.42 461.64 231.97 461.36 230.56Z" fill="#014E86"/>
<path d="M454.65 261.41C454.01 261.23 453.34 261.14 452.67 261.14C449.3 261.14 446.33 263.42 445.44 266.67C445.28 267.26 445.19 267.87 445.18 268.48C444.85 269 444.59 269.55 444.4 270.14C441.28 279.63 436.31 288.24 429.62 295.74C429.59 295.77 429.57 295.8 429.54 295.83C428.75 296.72 427.91 297.6 427.05 298.47C424.15 301.42 424.17 306.17 427.11 309.08C428.53 310.48 430.4 311.25 432.39 311.25C434.41 311.25 436.3 310.46 437.72 309.02C438.72 308.01 439.73 306.94 440.71 305.84C448.84 296.77 454.87 286.33 458.65 274.81C458.88 274.11 459.01 273.38 459.02 272.64C459.42 272.02 459.71 271.34 459.91 270.62C460.44 268.69 460.18 266.67 459.19 264.93C458.2 263.19 456.59 261.94 454.65 261.41Z" fill="#014E86"/>
<path d="M417.56 170.75C416.3 170.06 415 169.39 413.68 168.75C402.78 163.45 391.08 160.53 378.91 160.07C378.17 160.04 377.44 160.12 376.73 160.3C376.05 160.1 375.34 160 374.62 160C370.49 160 367.12 163.36 367.12 167.5C367.12 171.64 370.49 175 374.62 175C375.26 175 375.9 174.92 376.51 174.76C377.1 174.93 377.72 175.03 378.34 175.05C388.41 175.44 398.1 177.86 407.13 182.24C408.21 182.77 409.29 183.33 410.34 183.9C411.44 184.51 412.69 184.83 413.94 184.83C416.68 184.83 419.2 183.34 420.52 180.94C422.51 177.31 421.18 172.74 417.56 170.75Z" fill="#014E86"/>
<path d="M405.08 314.35C404.13 314.35 403.2 314.53 402.31 314.88C401.74 315.11 401.19 315.41 400.7 315.76C400.09 315.82 399.49 315.94 398.9 316.14C391.39 318.7 383.52 320 375.5 320H364.79C360.66 320 357.29 323.36 357.29 327.5C357.29 331.64 360.66 335 364.79 335H368.63C368.68 335 368.74 335 368.79 335C368.8 335 368.8 335 368.81 335H375.52C385.18 335 394.67 333.43 403.74 330.34C404.45 330.1 405.11 329.76 405.71 329.33C406.44 329.27 407.17 329.1 407.86 328.82C409.72 328.08 411.18 326.66 411.97 324.82C412.76 322.98 412.79 320.94 412.05 319.08C410.91 316.21 408.17 314.35 405.08 314.35Z" fill="#014E86"/>
<path d="M331.79 320C331.11 320 330.44 320.09 329.79 320.27C329.14 320.09 328.47 320 327.79 320H290.79C286.66 320 283.29 323.36 283.29 327.5C283.29 331.64 286.66 335 290.79 335H327.79C328.47 335 329.14 334.91 329.79 334.73C330.44 334.91 331.11 335 331.79 335C335.93 335 339.29 331.64 339.29 327.5C339.29 323.36 335.93 320 331.79 320Z" fill="#014E86"/>
<path d="M349.12 167.5C349.12 163.36 345.76 160 341.62 160H324.812C336.972 148.072 351 128.823 351 103.5C351 77.309 329.691 56 303.5 56C277.309 56 256 77.309 256 103.5C256 147.244 297.859 172.862 299.641 173.931C300.829 174.643 302.164 175 303.5 175C303.661 175 303.822 174.978 303.983 174.968C304.193 174.986 304.405 175 304.62 175H341.62C345.76 175 349.12 171.64 349.12 167.5ZM288.77 145.146C276.979 132.056 271 118.043 271 103.5C271 85.58 285.58 71 303.5 71C321.42 71 336 85.58 336 103.5C336 118.043 330.021 132.056 318.23 145.146C312.697 151.289 307.088 155.807 303.5 158.43C299.91 155.805 294.302 151.288 288.77 145.146Z" fill="#014E86"/>
</g>
<defs>
<clipPath id="clip0_428_2">
<rect width="511" height="511" fill="white"/>
</clipPath>
</defs>
</svg>
