<svg xmlns="http://www.w3.org/2000/svg" xmlns:xlink="http://www.w3.org/1999/xlink" width="500" zoomAndPan="magnify" viewBox="0 0 375 374.999991" height="500" preserveAspectRatio="xMidYMid meet" version="1.0"><defs><filter x="0%" y="0%" width="100%" height="100%" id="b6c3c045ea"><feColorMatrix values="0 0 0 0 1 0 0 0 0 1 0 0 0 0 1 0 0 0 1 0" color-interpolation-filters="sRGB"/></filter><g/><mask id="5932299c09"><g filter="url(#b6c3c045ea)"><rect x="-37.5" width="450" fill="#000000" y="-37.499999" height="449.999989" fill-opacity="0.2471"/></g></mask><clipPath id="9243cafd2d"><path d="M 10 32 L 153 32 L 153 142 L 10 142 Z M 10 32 " clip-rule="nonzero"/></clipPath><clipPath id="208ff12664"><path d="M 180.335938 117.394531 L 33.199219 177.652344 L -19.386719 49.253906 L 127.753906 -11.003906 Z M 180.335938 117.394531 " clip-rule="nonzero"/></clipPath><clipPath id="7c2d74cf7b"><path d="M 180.335938 117.394531 L 33.199219 177.652344 L -19.386719 49.253906 L 127.753906 -11.003906 Z M 180.335938 117.394531 " clip-rule="nonzero"/></clipPath><clipPath id="b977326d3c"><rect x="0" width="163" y="0" height="165"/></clipPath><clipPath id="b6404de02f"><path d="M 102 97 L 277.519531 97 L 277.519531 271.707031 L 102 271.707031 Z M 102 97 " clip-rule="nonzero"/></clipPath></defs><g mask="url(#5932299c09)"><g transform="matrix(1, 0, 0, 1, 77, 106)"><g clip-path="url(#b977326d3c)"><g clip-path="url(#9243cafd2d)"><g clip-path="url(#208ff12664)"><g clip-path="url(#7c2d74cf7b)"><path fill="#e05060" d="M 64.035156 137.820312 C 37.101562 128.03125 -13.617188 63.0625 24.894531 37.652344 C 50.9375 20.453125 55.101562 48.015625 90.839844 69.613281 C 102.679688 76.757812 160.570312 69.394531 152.085938 106.144531 C 147.050781 127.917969 99.257812 150.601562 64.035156 137.820312 Z M 64.035156 137.820312 " fill-opacity="1" fill-rule="nonzero"/></g></g></g></g></g></g><g clip-path="url(#b6404de02f)"><path fill="#e05060" d="M 241.890625 114.234375 C 241.773438 114.144531 241.648438 114.082031 241.507812 114.042969 C 241.367188 114.003906 241.226562 113.992188 241.082031 114.011719 C 240.9375 114.03125 240.804688 114.078125 240.675781 114.152344 C 240.550781 114.222656 240.445312 114.320312 240.359375 114.4375 C 240.273438 114.550781 240.210938 114.679688 240.175781 114.820312 C 240.144531 114.960938 240.136719 115.105469 240.160156 115.25 C 240.183594 115.390625 240.234375 115.523438 240.308594 115.648438 C 240.386719 115.769531 240.484375 115.875 240.605469 115.957031 C 262.082031 131.910156 274.582031 156.449219 274.90625 183.292969 C 275.015625 192.199219 273.761719 200.90625 271.148438 209.421875 C 269.496094 211.523438 267.851562 213.632812 266.148438 215.699219 C 264.230469 218.078125 262.191406 220.347656 260.035156 222.511719 C 259.542969 222.992188 259.046875 223.457031 258.535156 223.90625 C 258.289062 224.125 258.039062 224.339844 257.789062 224.546875 L 257.4375 224.832031 L 257.285156 224.949219 C 257.402344 224.855469 257.253906 224.949219 257.222656 224.996094 C 255.992188 225.925781 254.667969 226.734375 253.398438 227.617188 C 252.015625 228.527344 250.773438 229.59375 249.664062 230.824219 C 248.597656 232.0625 247.847656 233.472656 247.414062 235.050781 C 247.007812 236.574219 246.917969 238.113281 247.148438 239.671875 C 247.382812 241.230469 247.914062 242.679688 248.75 244.019531 C 248.972656 244.355469 249.214844 244.675781 249.46875 244.992188 C 247.507812 246.929688 245.457031 248.773438 243.316406 250.511719 C 241.175781 252.253906 238.957031 253.886719 236.65625 255.410156 C 234.355469 256.933594 231.984375 258.339844 229.546875 259.632812 C 227.105469 260.925781 224.609375 262.09375 222.058594 263.140625 C 219.503906 264.191406 216.90625 265.113281 214.261719 265.90625 C 211.617188 266.699219 208.941406 267.363281 206.234375 267.898438 C 203.523438 268.429688 200.796875 268.832031 198.050781 269.097656 C 195.300781 269.363281 192.546875 269.496094 189.785156 269.492188 L 189.640625 269.492188 C 186.910156 269.503906 184.1875 269.382812 181.46875 269.128906 C 178.75 268.878906 176.050781 268.496094 173.371094 267.984375 C 170.6875 267.472656 168.039062 266.832031 165.417969 266.0625 C 162.800781 265.296875 160.226562 264.402344 157.691406 263.386719 C 155.160156 262.371094 152.679688 261.234375 150.257812 259.980469 C 147.835938 258.722656 145.480469 257.355469 143.1875 255.871094 C 140.898438 254.390625 138.683594 252.800781 136.546875 251.105469 C 134.410156 249.40625 132.359375 247.613281 130.398438 245.71875 C 131.042969 244.59375 131.539062 243.402344 131.886719 242.152344 C 132.234375 240.902344 132.421875 239.628906 132.449219 238.332031 C 132.476562 237.03125 132.34375 235.753906 132.046875 234.488281 C 131.753906 233.222656 131.308594 232.015625 130.707031 230.863281 C 129.511719 228.582031 127.628906 226.867188 125.847656 225.066406 C 125.402344 224.621094 125 224.175781 124.609375 223.734375 L 124.335938 223.40625 L 124.308594 223.375 C 124.269531 223.328125 124.234375 223.273438 124.199219 223.222656 C 124.027344 222.992188 123.863281 222.753906 123.710938 222.503906 C 123.5625 222.273438 123.429688 222.035156 123.308594 221.789062 L 123.214844 221.585938 C 123.164062 221.449219 123.113281 221.308594 123.066406 221.167969 C 122.980469 220.910156 122.914062 220.644531 122.867188 220.378906 C 122.867188 220.324219 122.839844 220.253906 122.835938 220.191406 L 122.835938 220.136719 C 122.835938 219.992188 122.835938 219.847656 122.808594 219.695312 C 122.808594 219.460938 122.808594 219.25 122.839844 219.003906 C 122.839844 219.003906 122.839844 219.027344 122.839844 219.039062 C 122.851562 218.980469 122.863281 218.917969 122.871094 218.855469 C 122.871094 218.734375 122.914062 218.613281 122.945312 218.496094 C 122.996094 218.273438 123.0625 218.054688 123.136719 217.84375 C 123.175781 217.726562 123.222656 217.617188 123.261719 217.5 L 123.328125 217.347656 C 123.753906 216.449219 124.269531 215.605469 124.875 214.820312 C 124.914062 214.765625 124.960938 214.710938 124.996094 214.660156 L 125.207031 214.386719 L 125.722656 213.757812 C 126.054688 213.355469 126.386719 212.957031 126.710938 212.554688 C 127.410156 211.726562 128.046875 210.851562 128.628906 209.933594 C 129.765625 208.046875 130.34375 205.792969 129.640625 203.640625 C 128.808594 201.113281 126.609375 199.296875 124.28125 198.171875 C 121.511719 196.894531 118.609375 196.1875 115.566406 196.042969 C 112.472656 195.851562 109.445312 196.203125 106.480469 197.097656 C 106.09375 197.210938 105.71875 197.339844 105.34375 197.472656 C 104.707031 193.316406 104.375 189.140625 104.347656 184.9375 C 104.261719 174.941406 105.894531 165.234375 109.238281 155.816406 C 109.476562 155.167969 109.785156 154.558594 110.171875 153.984375 C 110.554688 153.410156 111.003906 152.890625 111.511719 152.425781 C 112.019531 151.960938 112.578125 151.5625 113.183594 151.230469 C 113.789062 150.898438 114.425781 150.640625 115.09375 150.460938 C 118.703125 149.453125 121.421875 149.445312 122.730469 150.460938 C 123.457031 151.007812 123.808594 151.90625 123.808594 153.191406 C 123.808594 157.410156 121.871094 161.453125 119.804688 165.738281 C 117.742188 170.023438 115.605469 174.507812 115.605469 179.214844 C 115.605469 181.769531 115.855469 184.492188 117.699219 185.253906 C 120.234375 186.304688 123.773438 183.347656 133.820312 173.3125 C 139.636719 167.503906 145.261719 166.210938 149.777344 165.148438 C 154.9375 163.949219 159.398438 162.929688 160.914062 155.761719 C 162.289062 149.269531 159.925781 143.015625 157.847656 137.5 C 155.835938 132.171875 153.941406 127.167969 155.648438 122.847656 C 157.53125 118.089844 159.605469 116.105469 161.386719 114.785156 C 161.84375 114.453125 162.277344 114.085938 162.679688 113.6875 C 163.082031 113.289062 163.449219 112.859375 163.78125 112.402344 C 164.117188 111.941406 164.410156 111.460938 164.667969 110.957031 C 164.925781 110.449219 165.140625 109.929688 165.316406 109.390625 C 165.488281 108.851562 165.617188 108.300781 165.707031 107.742188 C 165.792969 107.179688 165.835938 106.617188 165.832031 106.050781 C 165.828125 105.484375 165.78125 104.921875 165.6875 104.363281 C 165.597656 103.804688 165.460938 103.253906 165.28125 102.71875 C 172.609375 100.546875 180.097656 99.378906 187.742188 99.214844 L 187.769531 99.214844 C 188.65625 99.214844 189.503906 99.1875 190.367188 99.214844 C 190.511719 99.214844 190.648438 99.1875 190.78125 99.132812 C 190.914062 99.078125 191.027344 99 191.128906 98.902344 C 191.230469 98.800781 191.308594 98.683594 191.363281 98.550781 C 191.417969 98.421875 191.445312 98.285156 191.445312 98.140625 C 191.445312 98 191.417969 97.863281 191.363281 97.730469 C 191.308594 97.597656 191.230469 97.480469 191.128906 97.382812 C 191.027344 97.28125 190.914062 97.203125 190.78125 97.148438 C 190.648438 97.09375 190.511719 97.066406 190.367188 97.066406 L 189.417969 97.066406 C 186.433594 97.066406 183.457031 97.222656 180.488281 97.527344 C 177.519531 97.835938 174.578125 98.292969 171.65625 98.898438 C 168.734375 99.507812 165.851562 100.261719 163.007812 101.164062 C 160.164062 102.066406 157.371094 103.109375 154.636719 104.296875 C 151.898438 105.484375 149.230469 106.808594 146.628906 108.269531 C 144.027344 109.730469 141.507812 111.320312 139.070312 113.035156 C 136.632812 114.753906 134.289062 116.59375 132.039062 118.550781 C 129.789062 120.507812 127.644531 122.574219 125.609375 124.753906 C 125.507812 124.855469 125.433594 124.976562 125.382812 125.109375 C 125.332031 125.242188 125.304688 125.382812 125.3125 125.527344 C 125.316406 125.667969 125.347656 125.804688 125.40625 125.9375 C 125.464844 126.066406 125.546875 126.183594 125.652344 126.28125 C 125.757812 126.378906 125.878906 126.453125 126.011719 126.503906 C 126.148438 126.550781 126.285156 126.574219 126.429688 126.566406 C 126.574219 126.5625 126.710938 126.527344 126.84375 126.46875 C 126.972656 126.40625 127.085938 126.324219 127.183594 126.21875 C 132.113281 120.9375 137.628906 116.359375 143.730469 112.484375 C 149.828125 108.609375 156.316406 105.558594 163.195312 103.332031 C 163.492188 104.199219 163.644531 105.09375 163.652344 106.011719 C 163.660156 106.929688 163.523438 107.824219 163.242188 108.699219 C 162.964844 109.574219 162.554688 110.378906 162.011719 111.121094 C 161.472656 111.867188 160.828125 112.503906 160.082031 113.039062 C 158.058594 114.535156 155.710938 116.773438 153.628906 122.039062 C 151.617188 127.128906 153.652344 132.527344 155.808594 138.234375 C 157.886719 143.730469 160.035156 149.414062 158.789062 155.296875 C 157.558594 161.105469 154.4375 161.832031 149.269531 163.03125 C 144.488281 164.144531 138.527344 165.527344 132.28125 171.769531 C 127.4375 176.601562 120.121094 183.902344 118.5 183.246094 C 118.371094 183.191406 117.734375 182.746094 117.734375 179.191406 C 117.734375 174.972656 119.671875 170.929688 121.734375 166.644531 C 123.800781 162.359375 125.941406 157.875 125.941406 153.171875 C 125.941406 151.191406 125.292969 149.695312 124.015625 148.730469 C 122.101562 147.277344 118.894531 147.164062 114.492188 148.394531 C 113.664062 148.621094 112.871094 148.945312 112.117188 149.363281 C 111.363281 149.785156 110.671875 150.285156 110.039062 150.871094 C 109.40625 151.453125 108.851562 152.105469 108.375 152.824219 C 107.898438 153.542969 107.511719 154.304688 107.21875 155.113281 C 106.632812 156.753906 106.097656 158.410156 105.609375 160.082031 C 105.121094 161.753906 104.6875 163.4375 104.300781 165.132812 C 103.914062 166.832031 103.578125 168.539062 103.296875 170.257812 C 103.011719 171.972656 102.777344 173.699219 102.597656 175.429688 C 102.417969 177.160156 102.289062 178.898438 102.214844 180.636719 C 102.136719 182.375 102.113281 184.113281 102.140625 185.855469 C 102.171875 187.597656 102.25 189.332031 102.382812 191.070312 C 102.515625 192.804688 102.699219 194.535156 102.9375 196.261719 C 103.171875 197.984375 103.460938 199.699219 103.796875 201.410156 C 104.136719 203.117188 104.527344 204.8125 104.96875 206.496094 C 105.410156 208.179688 105.898438 209.851562 106.441406 211.503906 C 106.980469 213.160156 107.570312 214.796875 108.210938 216.414062 C 108.851562 218.035156 109.539062 219.632812 110.273438 221.214844 C 111.007812 222.792969 111.789062 224.347656 112.617188 225.878906 C 113.445312 227.410156 114.320312 228.914062 115.238281 230.394531 C 116.15625 231.875 117.117188 233.324219 118.125 234.746094 C 119.128906 236.167969 120.175781 237.558594 121.265625 238.917969 C 122.355469 240.277344 123.484375 241.601562 124.652344 242.894531 C 125.820312 244.1875 127.027344 245.441406 128.269531 246.664062 C 129.515625 247.882812 130.792969 249.0625 132.109375 250.207031 C 133.421875 251.347656 134.769531 252.453125 136.152344 253.515625 C 137.53125 254.578125 138.945312 255.597656 140.386719 256.574219 C 141.828125 257.554688 143.296875 258.488281 144.796875 259.378906 C 146.292969 260.269531 147.816406 261.113281 149.367188 261.914062 C 150.914062 262.710938 152.488281 263.464844 154.082031 264.167969 C 155.675781 264.875 157.289062 265.53125 158.921875 266.140625 C 160.554688 266.746094 162.203125 267.308594 163.871094 267.816406 C 165.539062 268.328125 167.21875 268.785156 168.914062 269.195312 C 170.605469 269.605469 172.3125 269.964844 174.027344 270.269531 C 175.742188 270.578125 177.46875 270.835938 179.199219 271.039062 C 180.929688 271.242188 182.664062 271.394531 184.40625 271.496094 C 186.144531 271.597656 187.886719 271.644531 189.632812 271.640625 L 189.785156 271.640625 C 191.226562 271.640625 192.667969 271.601562 194.105469 271.527344 C 195.542969 271.453125 196.980469 271.34375 198.414062 271.199219 C 199.847656 271.054688 201.273438 270.875 202.699219 270.660156 C 204.125 270.445312 205.542969 270.195312 206.953125 269.910156 C 208.367188 269.625 209.769531 269.308594 211.164062 268.953125 C 212.5625 268.597656 213.949219 268.210938 215.324219 267.789062 C 216.703125 267.363281 218.066406 266.910156 219.421875 266.417969 C 220.777344 265.929688 222.117188 265.40625 223.445312 264.847656 C 224.773438 264.292969 226.089844 263.703125 227.386719 263.082031 C 228.6875 262.460938 229.96875 261.808594 231.238281 261.125 C 232.503906 260.441406 233.753906 259.726562 234.984375 258.980469 C 236.214844 258.234375 237.429688 257.457031 238.621094 256.652344 C 239.8125 255.84375 240.988281 255.011719 242.140625 254.148438 C 243.289062 253.28125 244.421875 252.390625 245.527344 251.472656 C 246.636719 250.550781 247.71875 249.605469 248.78125 248.632812 C 249.839844 247.660156 250.878906 246.660156 251.890625 245.636719 C 252.902344 244.613281 253.886719 243.5625 254.84375 242.492188 C 255.804688 241.417969 256.738281 240.324219 257.644531 239.203125 C 258.546875 238.085938 259.425781 236.945312 260.273438 235.78125 C 261.121094 234.621094 261.941406 233.4375 262.734375 232.234375 C 263.523438 231.03125 264.285156 229.8125 265.011719 228.570312 C 265.742188 227.332031 266.441406 226.074219 267.109375 224.800781 C 267.777344 223.523438 268.414062 222.234375 269.015625 220.929688 C 269.621094 219.621094 270.191406 218.304688 270.730469 216.96875 C 271.269531 215.632812 271.773438 214.289062 272.246094 212.929688 C 272.71875 211.570312 273.15625 210.199219 273.558594 208.820312 C 273.964844 207.4375 274.332031 206.050781 274.667969 204.648438 C 275.003906 203.25 275.304688 201.84375 275.570312 200.429688 C 275.835938 199.015625 276.066406 197.597656 276.261719 196.171875 C 276.457031 194.746094 276.617188 193.320312 276.742188 191.886719 C 276.863281 190.453125 276.953125 189.015625 277.007812 187.578125 C 277.0625 186.140625 277.078125 184.703125 277.0625 183.265625 C 276.726562 155.75 263.910156 130.585938 241.890625 114.234375 Z M 105.707031 199.652344 C 106.847656 199.230469 108.015625 198.894531 109.207031 198.644531 C 109.558594 198.574219 109.914062 198.507812 110.269531 198.449219 L 110.832031 198.367188 L 110.859375 198.367188 L 111.253906 198.316406 C 111.96875 198.242188 112.6875 198.191406 113.414062 198.175781 C 114.136719 198.15625 114.921875 198.175781 115.675781 198.222656 C 116.035156 198.246094 116.390625 198.277344 116.753906 198.316406 L 117.171875 198.367188 L 117.34375 198.390625 L 117.636719 198.4375 C 119.085938 198.660156 120.503906 199.015625 121.886719 199.503906 L 122.332031 199.671875 L 122.550781 199.757812 C 122.84375 199.878906 123.132812 200.015625 123.414062 200.160156 C 123.949219 200.429688 124.46875 200.734375 124.964844 201.074219 C 125.078125 201.15625 125.207031 201.238281 125.320312 201.332031 L 125.507812 201.480469 C 125.75 201.6875 125.988281 201.898438 126.207031 202.125 C 126.394531 202.304688 126.566406 202.496094 126.726562 202.699219 C 126.699219 202.664062 126.679688 202.644531 126.726562 202.738281 L 126.859375 202.925781 C 126.941406 203.050781 127.027344 203.179688 127.101562 203.3125 C 127.183594 203.441406 127.253906 203.574219 127.320312 203.710938 C 127.34375 203.753906 127.367188 203.800781 127.386719 203.847656 C 127.386719 203.859375 127.386719 203.871094 127.386719 203.882812 C 127.523438 204.15625 127.609375 204.441406 127.648438 204.742188 C 127.6875 204.855469 127.710938 204.96875 127.71875 205.085938 L 127.71875 205.148438 C 127.726562 205.207031 127.726562 205.265625 127.71875 205.324219 C 127.738281 205.5625 127.738281 205.804688 127.71875 206.046875 C 127.71875 206.144531 127.636719 206.558594 127.71875 206.1875 C 127.699219 206.289062 127.6875 206.390625 127.667969 206.488281 C 127.640625 206.730469 127.597656 206.964844 127.542969 207.199219 C 127.480469 207.394531 127.40625 207.582031 127.332031 207.773438 L 127.265625 207.917969 L 127.097656 208.257812 C 126.871094 208.691406 126.617188 209.109375 126.335938 209.511719 C 126.207031 209.703125 126.074219 209.890625 125.9375 210.078125 C 125.867188 210.175781 125.796875 210.273438 125.71875 210.367188 C 125.675781 210.414062 125.640625 210.472656 125.59375 210.527344 C 124.96875 211.320312 124.308594 212.09375 123.675781 212.882812 C 122.402344 214.472656 121.113281 216.226562 120.753906 218.277344 C 120.527344 219.46875 120.605469 220.640625 120.980469 221.792969 C 121.417969 222.992188 122.054688 224.074219 122.886719 225.039062 C 123.667969 225.953125 124.492188 226.820312 125.359375 227.648438 C 125.804688 228.09375 126.222656 228.5 126.636719 228.941406 C 126.828125 229.144531 127.011719 229.351562 127.195312 229.558594 L 127.5 229.917969 L 127.601562 230.042969 L 127.675781 230.136719 C 128.046875 230.628906 128.382812 231.148438 128.679688 231.691406 C 128.820312 231.9375 128.949219 232.195312 129.070312 232.453125 C 129.132812 232.589844 129.195312 232.722656 129.253906 232.863281 L 129.375 233.167969 C 129.59375 233.75 129.773438 234.339844 129.917969 234.945312 C 129.980469 235.222656 130.035156 235.507812 130.089844 235.792969 C 130.089844 235.929688 130.144531 236.074219 130.15625 236.234375 C 130.15625 236.347656 130.179688 236.453125 130.191406 236.5625 C 130.25 237.164062 130.277344 237.765625 130.261719 238.371094 C 130.261719 238.671875 130.242188 238.976562 130.214844 239.257812 C 130.214844 239.421875 130.183594 239.585938 130.164062 239.75 C 130.164062 239.75 130.164062 239.867188 130.164062 239.898438 C 130.164062 239.929688 130.164062 239.992188 130.144531 240.035156 C 130.050781 240.636719 129.917969 241.226562 129.746094 241.8125 C 129.664062 242.101562 129.570312 242.382812 129.46875 242.667969 L 129.289062 243.113281 L 129.167969 243.382812 C 129.050781 243.636719 128.925781 243.878906 128.792969 244.125 C 125.804688 241.105469 123.058594 237.878906 120.554688 234.445312 C 118.054688 231.011719 115.824219 227.410156 113.871094 223.640625 C 111.914062 219.867188 110.25 215.972656 108.882812 211.953125 C 107.515625 207.933594 106.457031 203.832031 105.707031 199.652344 Z M 249.265625 236.683594 Z M 249.875 241.546875 L 249.90625 241.621094 C 249.890625 241.59375 249.878906 241.566406 249.875 241.535156 Z M 250.996094 243.472656 L 250.851562 243.277344 C 250.75 243.136719 250.652344 242.988281 250.558594 242.832031 C 250.367188 242.535156 250.195312 242.226562 250.042969 241.910156 L 249.921875 241.652344 C 249.851562 241.472656 249.785156 241.296875 249.722656 241.121094 C 249.609375 240.785156 249.511719 240.445312 249.429688 240.101562 C 249.394531 239.941406 249.363281 239.78125 249.332031 239.625 C 249.332031 239.53125 249.300781 239.441406 249.289062 239.347656 C 249.273438 239.253906 249.289062 239.277344 249.289062 239.261719 C 249.246094 238.914062 249.226562 238.558594 249.214844 238.203125 C 249.207031 237.847656 249.214844 237.496094 249.253906 237.144531 C 249.253906 237.050781 249.253906 236.953125 249.28125 236.863281 L 249.28125 236.820312 C 249.335938 236.640625 249.367188 236.453125 249.375 236.261719 C 249.449219 235.917969 249.535156 235.574219 249.640625 235.238281 C 249.6875 235.085938 249.742188 234.929688 249.796875 234.792969 C 249.855469 234.65625 249.871094 234.613281 249.902344 234.527344 C 249.933594 234.4375 249.871094 234.59375 249.871094 234.59375 C 249.886719 234.542969 249.910156 234.492188 249.9375 234.445312 C 250.082031 234.125 250.246094 233.8125 250.425781 233.507812 C 250.515625 233.359375 250.613281 233.207031 250.710938 233.066406 L 250.863281 232.851562 L 250.96875 232.707031 C 251.441406 232.109375 251.96875 231.558594 252.542969 231.058594 C 252.832031 230.804688 253.128906 230.5625 253.429688 230.320312 L 253.742188 230.085938 L 254.214844 229.746094 C 255.484375 228.855469 256.808594 228.027344 258.070312 227.113281 C 259.140625 226.320312 260.160156 225.460938 261.121094 224.539062 C 263.242188 222.476562 265.234375 220.304688 267.101562 218.015625 C 267.757812 217.234375 268.394531 216.4375 269.035156 215.648438 C 266.972656 220.832031 264.425781 225.761719 261.386719 230.445312 C 258.351562 235.125 254.886719 239.464844 250.996094 243.464844 Z M 250.996094 243.472656 " fill-opacity="1" fill-rule="nonzero"/></g><path fill="#e05060" d="M 186.582031 165.339844 C 186.890625 166.292969 187.359375 167.160156 187.996094 167.933594 C 188.628906 168.710938 189.382812 169.347656 190.257812 169.839844 C 191.242188 170.363281 192.289062 170.671875 193.398438 170.773438 C 194.507812 170.875 195.59375 170.753906 196.65625 170.417969 C 198.730469 169.785156 200.582031 168.746094 202.207031 167.308594 C 202.574219 167.695312 202.953125 168.078125 203.34375 168.441406 C 204.988281 170.058594 206.9375 171.121094 209.1875 171.625 C 211.660156 172.113281 214.167969 171.855469 216.660156 171.683594 C 218.910156 171.488281 221.152344 171.582031 223.378906 171.964844 C 227.683594 172.785156 231.695312 174.800781 234.566406 178.136719 C 235.945312 179.71875 236.972656 181.5 237.640625 183.488281 C 238.308594 185.476562 238.566406 187.515625 238.421875 189.605469 C 238.332031 190.5625 238.144531 191.5 237.855469 192.417969 C 237.589844 193.308594 237.230469 194.164062 236.78125 194.984375 C 235.859375 196.703125 234.683594 198.230469 233.257812 199.570312 C 231.820312 200.957031 230.230469 202.140625 228.488281 203.121094 C 226.632812 204.175781 224.679688 205.011719 222.632812 205.625 C 217.804688 207.121094 212.757812 207.671875 207.753906 208.257812 C 203.066406 208.804688 198.363281 209.398438 193.835938 210.785156 C 189.519531 212.113281 185.367188 214.148438 182.089844 217.300781 C 178.671875 220.585938 176.449219 224.902344 172.949219 228.109375 C 171.421875 229.589844 169.644531 230.644531 167.613281 231.285156 C 166.625 231.582031 165.617188 231.683594 164.589844 231.582031 C 164.5 231.582031 164.414062 231.570312 164.324219 231.554688 L 163.960938 231.484375 C 163.699219 231.425781 163.441406 231.351562 163.191406 231.257812 C 162.796875 231.09375 162.441406 230.867188 162.128906 230.578125 C 161.972656 230.4375 161.839844 230.277344 161.730469 230.09375 C 161.625 229.921875 161.527344 229.738281 161.445312 229.550781 C 161.351562 229.304688 161.277344 229.054688 161.222656 228.800781 C 161.171875 228.59375 161.136719 228.386719 161.125 228.179688 C 161.078125 227.660156 161.078125 227.140625 161.125 226.621094 C 161.125 226.507812 161.144531 226.398438 161.160156 226.285156 C 161.160156 226.253906 161.160156 226.136719 161.191406 226.101562 C 161.226562 225.875 161.269531 225.65625 161.324219 225.425781 C 161.421875 224.972656 161.546875 224.53125 161.695312 224.09375 C 161.773438 223.878906 161.851562 223.648438 161.9375 223.457031 C 161.9375 223.4375 161.9375 223.414062 161.9375 223.390625 L 161.96875 223.328125 C 162.015625 223.21875 162.066406 223.101562 162.121094 222.992188 C 162.511719 222.160156 162.964844 221.363281 163.480469 220.605469 C 163.738281 220.214844 164.007812 219.832031 164.292969 219.457031 C 164.527344 219.136719 164.738281 218.859375 165.070312 218.464844 C 165.679688 217.714844 166.316406 216.984375 166.960938 216.242188 C 168.253906 214.777344 169.578125 213.335938 170.789062 211.804688 C 172.128906 210.207031 173.222656 208.457031 174.070312 206.550781 C 174.917969 204.648438 175.484375 202.664062 175.773438 200.597656 C 176.445312 196.304688 176.246094 191.953125 176.074219 187.628906 C 175.992188 185.472656 175.914062 183.316406 175.960938 181.15625 C 175.984375 180.097656 176.035156 179.039062 176.136719 177.984375 C 176.226562 176.996094 176.375 176.019531 176.582031 175.054688 C 176.953125 173.109375 177.59375 171.257812 178.5 169.5 C 178.640625 169.242188 178.671875 168.96875 178.597656 168.683594 C 178.523438 168.402344 178.359375 168.179688 178.113281 168.023438 C 177.988281 167.957031 177.855469 167.910156 177.714844 167.890625 C 177.574219 167.875 177.433594 167.882812 177.296875 167.917969 C 177.160156 167.957031 177.035156 168.015625 176.921875 168.101562 C 176.804688 168.1875 176.714844 168.289062 176.640625 168.410156 C 174.554688 172.378906 173.910156 176.847656 173.820312 181.285156 C 173.730469 185.726562 174.160156 190.164062 174.105469 194.605469 C 174.117188 196.746094 173.941406 198.875 173.578125 200.984375 C 173.203125 203.050781 172.53125 205.011719 171.558594 206.871094 C 169.683594 210.378906 166.859375 213.066406 164.25 216.132812 C 161.640625 219.199219 159.316406 222.59375 158.960938 226.703125 C 158.761719 229.0625 159.460938 231.617188 161.628906 232.867188 C 163.691406 234.050781 166.386719 233.929688 168.589844 233.210938 C 173.308594 231.671875 176.441406 227.707031 179.3125 223.890625 C 180.722656 221.890625 182.308594 220.042969 184.074219 218.347656 C 185.738281 216.871094 187.578125 215.652344 189.585938 214.695312 C 193.589844 212.726562 198.195312 211.699219 202.671875 211.027344 C 207.847656 210.253906 213.082031 209.914062 218.230469 208.90625 C 222.886719 207.992188 227.476562 206.488281 231.414062 203.789062 C 234.972656 201.371094 237.941406 198.125 239.527344 194.105469 C 241.210938 189.847656 240.832031 185.117188 238.9375 181.003906 C 237.9375 178.902344 236.605469 177.042969 234.9375 175.417969 C 233.269531 173.796875 231.371094 172.515625 229.246094 171.574219 C 227.011719 170.570312 224.679688 169.921875 222.25 169.617188 C 219.828125 169.308594 217.433594 169.472656 215.003906 169.644531 C 213.734375 169.753906 212.460938 169.78125 211.183594 169.722656 C 210.609375 169.691406 210.042969 169.613281 209.484375 169.484375 C 209.210938 169.429688 208.945312 169.355469 208.679688 169.273438 L 208.234375 169.117188 L 207.933594 168.996094 C 206.339844 168.234375 204.964844 167.183594 203.804688 165.851562 C 205.164062 164.519531 206.441406 163.097656 207.742188 161.761719 C 209.230469 160.132812 210.949219 158.800781 212.902344 157.765625 C 213.023438 157.691406 213.128906 157.597656 213.210938 157.484375 C 213.296875 157.371094 213.359375 157.246094 213.394531 157.109375 C 213.429688 156.972656 213.4375 156.832031 213.421875 156.691406 C 213.402344 156.550781 213.359375 156.417969 213.289062 156.296875 C 213.132812 156.042969 212.914062 155.882812 212.628906 155.804688 C 212.34375 155.730469 212.070312 155.765625 211.8125 155.910156 C 207.945312 157.828125 205.40625 161.359375 202.378906 164.300781 C 201.242188 162.921875 199.976562 161.671875 198.585938 160.554688 C 196.964844 159.359375 195.15625 158.640625 193.15625 158.40625 C 192.214844 158.261719 191.289062 158.328125 190.375 158.597656 C 189.460938 158.871094 188.652344 159.324219 187.941406 159.957031 C 187.589844 160.300781 187.292969 160.683594 187.050781 161.109375 C 186.804688 161.535156 186.625 161.984375 186.503906 162.457031 C 186.382812 162.933594 186.332031 163.414062 186.34375 163.902344 C 186.355469 164.394531 186.4375 164.871094 186.582031 165.339844 Z M 189.515625 166.394531 C 189.425781 166.289062 189.496094 166.378906 189.515625 166.394531 Z M 188.699219 162.546875 Z M 188.507812 163.265625 C 188.507812 163.328125 188.507812 163.332031 188.507812 163.265625 Z M 188.507812 163.375 C 188.507812 163.335938 188.507812 163.296875 188.507812 163.257812 C 188.546875 163.070312 188.585938 162.886719 188.644531 162.707031 C 188.644531 162.652344 188.683594 162.601562 188.703125 162.542969 C 188.71875 162.484375 188.796875 162.351562 188.847656 162.253906 L 189.003906 161.996094 L 189.105469 161.855469 C 189.234375 161.695312 189.371094 161.546875 189.519531 161.410156 C 189.570312 161.367188 189.621094 161.316406 189.679688 161.273438 L 189.804688 161.179688 C 189.980469 161.0625 190.164062 160.957031 190.355469 160.863281 C 190.394531 160.863281 190.476562 160.8125 190.5 160.800781 L 190.6875 160.734375 C 190.894531 160.667969 191.105469 160.613281 191.316406 160.570312 L 191.519531 160.535156 L 191.679688 160.535156 C 191.90625 160.515625 192.128906 160.507812 192.355469 160.511719 C 192.550781 160.511719 192.746094 160.511719 192.945312 160.542969 L 193.121094 160.542969 L 193.453125 160.601562 C 193.894531 160.6875 194.324219 160.800781 194.75 160.945312 C 194.933594 161.007812 195.113281 161.074219 195.296875 161.148438 L 195.511719 161.242188 L 195.847656 161.398438 C 196.25 161.601562 196.640625 161.828125 197.019531 162.074219 C 197.179688 162.183594 197.335938 162.292969 197.492188 162.410156 L 197.664062 162.546875 L 197.933594 162.777344 C 198.320312 163.125 198.691406 163.488281 199.050781 163.863281 C 199.640625 164.46875 200.203125 165.097656 200.765625 165.730469 C 199.433594 166.882812 197.929688 167.738281 196.261719 168.300781 C 195.265625 168.613281 194.25 168.722656 193.214844 168.632812 L 193.09375 168.632812 L 192.796875 168.574219 C 192.5625 168.523438 192.332031 168.453125 192.109375 168.371094 L 191.9375 168.308594 L 191.707031 168.203125 C 191.492188 168.09375 191.28125 167.976562 191.074219 167.847656 C 190.910156 167.746094 190.75 167.632812 190.597656 167.519531 C 190.566406 167.488281 190.445312 167.390625 190.421875 167.371094 C 190.328125 167.292969 190.238281 167.210938 190.15625 167.128906 C 190 166.988281 189.851562 166.839844 189.710938 166.683594 C 189.636719 166.601562 189.5625 166.511719 189.492188 166.421875 L 189.375 166.261719 C 189.261719 166.09375 189.152344 165.925781 189.054688 165.753906 C 188.996094 165.648438 188.941406 165.546875 188.886719 165.445312 C 188.886719 165.410156 188.820312 165.292969 188.800781 165.253906 C 188.65625 164.894531 188.550781 164.527344 188.488281 164.144531 C 188.488281 164.109375 188.488281 164.046875 188.488281 164.007812 C 188.488281 163.96875 188.488281 163.820312 188.488281 163.726562 C 188.488281 163.632812 188.492188 163.484375 188.496094 163.375 Z M 188.507812 163.375 " fill-opacity="1" fill-rule="nonzero"/><path fill="#e05060" d="M 227.085938 251.832031 C 227.363281 251.832031 227.644531 251.832031 227.921875 251.832031 C 228.148438 251.824219 228.378906 251.839844 228.605469 251.875 L 228.671875 251.875 L 228.816406 251.902344 C 228.964844 251.933594 229.105469 251.96875 229.261719 252.007812 C 229.378906 252.039062 229.492188 252.078125 229.605469 252.121094 L 229.648438 252.121094 L 229.738281 252.160156 C 229.84375 252.210938 229.941406 252.265625 230.039062 252.324219 L 230.183594 252.417969 C 230.269531 252.492188 230.351562 252.566406 230.425781 252.648438 L 230.515625 252.746094 C 230.574219 252.835938 230.632812 252.917969 230.679688 253.011719 C 230.730469 253.105469 230.734375 253.109375 230.757812 253.160156 C 230.757812 253.167969 230.757812 253.179688 230.757812 253.191406 C 230.84375 253.472656 231.015625 253.6875 231.273438 253.832031 C 231.53125 253.976562 231.804688 254.015625 232.089844 253.941406 C 232.226562 253.902344 232.351562 253.835938 232.464844 253.75 C 232.578125 253.660156 232.667969 253.554688 232.738281 253.429688 C 232.808594 253.304688 232.855469 253.171875 232.871094 253.027344 C 232.890625 252.886719 232.878906 252.746094 232.84375 252.609375 C 232.625 252.007812 232.289062 251.484375 231.835938 251.03125 C 231.382812 250.582031 230.855469 250.25 230.253906 250.035156 C 229.144531 249.648438 228.003906 249.519531 226.835938 249.648438 C 225.648438 249.792969 224.476562 250.023438 223.324219 250.339844 C 223.042969 250.402344 222.761719 250.464844 222.476562 250.511719 C 222.339844 250.539062 222.199219 250.566406 222.054688 250.585938 L 221.886719 250.609375 L 221.746094 250.609375 C 221.171875 250.699219 220.597656 250.734375 220.019531 250.707031 L 219.835938 250.707031 C 219.707031 250.6875 219.582031 250.65625 219.460938 250.625 C 219.335938 250.59375 219.214844 250.554688 219.09375 250.507812 L 219.027344 250.484375 L 218.976562 250.484375 L 218.875 250.425781 C 218.765625 250.367188 218.664062 250.296875 218.558594 250.234375 L 218.441406 250.136719 C 218.347656 250.046875 218.261719 249.949219 218.175781 249.859375 L 218.023438 249.625 C 217.972656 249.542969 217.929688 249.453125 217.886719 249.363281 L 217.886719 249.335938 C 217.820312 249.175781 217.765625 249.007812 217.722656 248.839844 C 217.628906 248.507812 217.5625 248.160156 217.5 247.820312 C 217.40625 247.148438 217.257812 246.492188 217.054688 245.847656 C 216.625 244.710938 215.984375 243.707031 215.132812 242.835938 C 214.28125 241.964844 213.292969 241.304688 212.164062 240.847656 C 211.011719 240.351562 209.808594 240.046875 208.554688 239.9375 C 207.304688 239.832031 206.066406 239.925781 204.84375 240.21875 C 201.996094 240.914062 199.484375 242.550781 197.289062 244.472656 C 195.179688 246.328125 193.429688 248.503906 191.570312 250.59375 C 190.65625 251.636719 189.679688 252.617188 188.636719 253.53125 L 188.261719 253.84375 L 188.0625 254.003906 L 188.015625 254.035156 C 187.734375 254.246094 187.4375 254.476562 187.128906 254.652344 C 186.539062 255.035156 185.925781 255.367188 185.28125 255.644531 L 185.25 255.644531 L 185.191406 255.667969 L 184.933594 255.765625 L 184.359375 255.964844 C 183.988281 256.085938 183.617188 256.1875 183.242188 256.28125 C 182.46875 256.472656 181.6875 256.613281 180.902344 256.722656 C 179.378906 256.933594 177.871094 257.21875 176.378906 257.578125 C 173.875 258.257812 171.3125 259.632812 169.960938 261.929688 C 169.625 262.5 169.378906 263.113281 169.226562 263.761719 C 169.191406 263.898438 169.179688 264.039062 169.199219 264.179688 C 169.214844 264.320312 169.261719 264.453125 169.332031 264.578125 C 169.402344 264.699219 169.492188 264.808594 169.605469 264.894531 C 169.71875 264.980469 169.84375 265.042969 169.980469 265.082031 C 170.117188 265.121094 170.257812 265.128906 170.398438 265.113281 C 170.539062 265.09375 170.671875 265.050781 170.796875 264.980469 C 170.921875 264.910156 171.027344 264.820312 171.117188 264.707031 C 171.203125 264.597656 171.265625 264.472656 171.304688 264.335938 C 171.367188 264.082031 171.441406 263.832031 171.53125 263.589844 C 171.53125 263.613281 171.628906 263.363281 171.65625 263.308594 C 171.734375 263.15625 171.820312 263.007812 171.910156 262.863281 C 171.984375 262.746094 172.066406 262.628906 172.144531 262.515625 L 172.289062 262.339844 C 172.484375 262.113281 172.691406 261.902344 172.914062 261.703125 C 173.019531 261.605469 173.132812 261.511719 173.242188 261.417969 L 173.332031 261.351562 L 173.441406 261.265625 C 173.695312 261.089844 173.957031 260.921875 174.226562 260.765625 C 174.492188 260.609375 174.75 260.476562 175.015625 260.347656 L 175.386719 260.183594 L 175.460938 260.148438 L 175.753906 260.035156 C 178.492188 259.011719 181.480469 258.988281 184.285156 258.214844 C 185.730469 257.824219 187.078125 257.21875 188.328125 256.394531 C 189.503906 255.601562 190.585938 254.695312 191.574219 253.679688 C 193.496094 251.746094 195.128906 249.574219 197.046875 247.625 C 197.535156 247.117188 198.039062 246.628906 198.5625 246.160156 C 198.796875 245.945312 199.039062 245.742188 199.277344 245.535156 L 199.664062 245.21875 L 199.863281 245.0625 L 199.910156 245.023438 L 199.960938 244.992188 C 201.042969 244.160156 202.207031 243.460938 203.453125 242.894531 L 203.574219 242.847656 L 203.738281 242.78125 L 204.183594 242.609375 C 204.507812 242.496094 204.835938 242.398438 205.167969 242.308594 C 205.503906 242.21875 205.746094 242.167969 206.058594 242.113281 C 206.121094 242.113281 206.546875 242.007812 206.25 242.082031 C 206.410156 242.050781 206.570312 242.035156 206.730469 242.035156 C 207.273438 241.992188 207.816406 241.992188 208.359375 242.035156 L 208.761719 242.074219 L 208.796875 242.074219 L 208.957031 242.097656 C 209.253906 242.148438 209.542969 242.207031 209.847656 242.28125 C 210.148438 242.359375 210.367188 242.425781 210.621094 242.511719 L 211.003906 242.652344 L 211.148438 242.707031 L 211.175781 242.707031 L 211.226562 242.730469 C 211.71875 242.957031 212.195312 243.21875 212.648438 243.515625 L 212.898438 243.699219 L 213.113281 243.867188 C 213.328125 244.054688 213.539062 244.25 213.734375 244.453125 C 213.820312 244.546875 213.90625 244.644531 213.992188 244.742188 L 214.089844 244.859375 C 214.234375 245.066406 214.382812 245.273438 214.511719 245.496094 C 214.625 245.699219 214.730469 245.910156 214.820312 246.121094 C 214.820312 246.183594 214.902344 246.328125 214.921875 246.371094 C 214.96875 246.523438 215.019531 246.671875 215.058594 246.816406 C 215.238281 247.496094 215.3125 248.195312 215.460938 248.878906 C 215.574219 249.566406 215.828125 250.199219 216.214844 250.777344 C 216.601562 251.355469 217.09375 251.824219 217.683594 252.191406 C 219.847656 253.402344 222.574219 252.820312 224.847656 252.21875 C 225.375 252.050781 225.914062 251.941406 226.460938 251.882812 C 226.15625 251.902344 226.582031 251.882812 226.652344 251.882812 Z M 188.0625 253.878906 Z M 217.796875 249.199219 C 217.773438 249.160156 217.796875 249.171875 217.796875 249.199219 Z M 218.96875 250.429688 L 219.066406 250.46875 C 219.066406 250.46875 219.011719 250.453125 218.96875 250.429688 Z M 219.890625 250.6875 L 219.980469 250.6875 C 219.953125 250.699219 219.921875 250.707031 219.890625 250.707031 Z M 219.890625 250.6875 " fill-opacity="1" fill-rule="nonzero"/><path fill="#e05060" d="M 125.003906 214.671875 L 124.96875 214.714844 C 124.929688 214.746094 124.875 214.871094 125.003906 214.671875 Z M 125.003906 214.671875 " fill-opacity="1" fill-rule="nonzero"/><path fill="#e05060" d="M 125.734375 210.371094 C 125.550781 210.574219 125.6875 210.429688 125.734375 210.371094 Z M 125.734375 210.371094 " fill-opacity="1" fill-rule="nonzero"/><path fill="#e05060" d="M 122.828125 218.988281 C 122.890625 218.742188 122.839844 218.902344 122.828125 218.988281 Z M 122.828125 218.988281 " fill-opacity="1" fill-rule="nonzero"/><path fill="#e05060" d="M 199.265625 97.214844 L 199.296875 97.140625 Z M 199.265625 97.214844 " fill-opacity="1" fill-rule="nonzero"/><path fill="#e05060" d="M 204.929688 133.058594 C 208.152344 138.296875 211.570312 143.410156 214.78125 148.660156 C 215.238281 149.410156 215.695312 150.160156 216.152344 150.917969 C 216.25 151.082031 216.382812 151.207031 216.546875 151.300781 C 216.714844 151.394531 216.890625 151.4375 217.082031 151.4375 C 217.269531 151.4375 217.449219 151.394531 217.613281 151.300781 C 217.777344 151.207031 217.910156 151.082031 218.011719 150.917969 C 221.1875 146.277344 224.070312 141.460938 226.652344 136.464844 C 227.894531 134.140625 229.101562 131.800781 230.339844 129.480469 C 231.621094 127.074219 232.871094 124.679688 233.894531 122.160156 C 235.992188 117.082031 237.273438 111.808594 237.738281 106.335938 C 237.976562 103.734375 237.976562 101.128906 237.738281 98.527344 C 237.550781 96.324219 236.992188 94.21875 236.054688 92.214844 C 235.101562 90.28125 233.738281 88.707031 231.960938 87.484375 C 229.871094 86.097656 227.574219 85.28125 225.074219 85.042969 C 222.523438 84.761719 220.109375 85.214844 217.835938 86.40625 C 216.734375 87.027344 215.71875 87.769531 214.785156 88.625 C 213.917969 89.402344 213.121094 90.246094 212.398438 91.15625 C 209.378906 94.976562 207.664062 99.816406 208.261719 104.703125 C 208.835938 109.382812 211.324219 114.261719 215.6875 116.453125 C 217.738281 117.484375 220.269531 118.007812 222.46875 117.128906 C 224.996094 116.121094 226.332031 113.765625 227.085938 111.273438 C 227.835938 108.78125 228.105469 105.847656 227.214844 103.28125 C 226.808594 102.078125 226.164062 101.019531 225.277344 100.109375 C 224.390625 99.199219 223.351562 98.523438 222.15625 98.082031 C 221.019531 97.683594 219.859375 97.609375 218.675781 97.851562 C 218.539062 97.890625 218.414062 97.953125 218.300781 98.042969 C 218.1875 98.128906 218.09375 98.238281 218.023438 98.363281 C 217.953125 98.488281 217.910156 98.621094 217.894531 98.761719 C 217.875 98.90625 217.886719 99.046875 217.925781 99.183594 C 218.011719 99.46875 218.183594 99.683594 218.441406 99.828125 C 218.699219 99.976562 218.972656 100.011719 219.257812 99.9375 C 219.304688 99.9375 219.539062 99.898438 219.527344 99.894531 L 219.839844 99.894531 C 220.074219 99.890625 220.308594 99.902344 220.539062 99.925781 L 220.800781 99.96875 C 220.929688 99.996094 221.054688 100.023438 221.179688 100.058594 L 221.5 100.160156 L 221.785156 100.265625 C 222.238281 100.46875 222.664062 100.71875 223.0625 101.011719 L 223.269531 101.183594 L 223.527344 101.414062 C 223.734375 101.609375 223.925781 101.8125 224.109375 102.03125 L 224.222656 102.171875 L 224.246094 102.203125 C 224.3125 102.300781 224.382812 102.394531 224.441406 102.492188 C 224.601562 102.726562 224.742188 102.96875 224.867188 103.21875 C 224.96875 103.417969 225.058594 103.621094 225.128906 103.832031 C 225.234375 104.140625 225.328125 104.449219 225.402344 104.765625 C 225.542969 105.304688 225.617188 105.855469 225.625 106.410156 C 225.648438 107.03125 225.621094 107.652344 225.550781 108.269531 C 225.550781 108.324219 225.550781 108.382812 225.550781 108.441406 C 225.550781 108.457031 225.550781 108.472656 225.550781 108.488281 C 225.523438 108.644531 225.5 108.796875 225.46875 108.933594 C 225.417969 109.238281 225.351562 109.542969 225.273438 109.847656 C 225.132812 110.433594 224.957031 111.011719 224.746094 111.574219 C 224.695312 111.710938 224.644531 111.851562 224.589844 111.984375 L 224.589844 112.011719 L 224.464844 112.191406 C 224.332031 112.472656 224.183594 112.746094 224.019531 113.007812 C 223.777344 113.472656 223.464844 113.878906 223.082031 114.234375 C 222.980469 114.332031 222.878906 114.425781 222.765625 114.519531 L 222.742188 114.519531 L 222.617188 114.609375 C 222.394531 114.761719 222.164062 114.898438 221.917969 115.011719 L 221.820312 115.058594 L 221.789062 115.058594 L 221.4375 115.179688 C 221.1875 115.25 220.9375 115.308594 220.683594 115.347656 L 220.535156 115.347656 C 220.410156 115.347656 220.285156 115.347656 220.15625 115.347656 C 219.886719 115.355469 219.621094 115.347656 219.351562 115.320312 L 219.136719 115.296875 L 218.828125 115.238281 C 218.570312 115.1875 218.316406 115.121094 218.066406 115.050781 C 217.820312 114.980469 217.566406 114.882812 217.316406 114.789062 L 217.261719 114.855469 L 217.136719 114.796875 C 217.015625 114.746094 216.894531 114.6875 216.773438 114.625 C 216.296875 114.386719 215.835938 114.109375 215.398438 113.800781 L 215.179688 113.628906 L 214.914062 113.417969 C 214.710938 113.246094 214.515625 113.0625 214.328125 112.875 C 213.941406 112.488281 213.574219 112.078125 213.234375 111.652344 L 213.207031 111.613281 L 213.082031 111.445312 L 212.84375 111.113281 C 212.6875 110.886719 212.542969 110.667969 212.398438 110.417969 C 212.109375 109.945312 211.851562 109.460938 211.621094 108.960938 L 211.472656 108.632812 L 211.382812 108.410156 C 211.273438 108.140625 211.175781 107.863281 211.082031 107.582031 C 210.90625 107.058594 210.757812 106.527344 210.636719 105.984375 C 210.585938 105.734375 210.535156 105.476562 210.492188 105.222656 C 210.464844 105.085938 210.449219 104.945312 210.425781 104.808594 C 210.425781 104.71875 210.425781 104.628906 210.390625 104.539062 C 210.332031 103.988281 210.300781 103.433594 210.296875 102.878906 C 210.292969 102.324219 210.316406 101.769531 210.371094 101.21875 L 210.410156 100.859375 L 210.410156 100.828125 L 210.4375 100.632812 C 210.484375 100.351562 210.53125 100.078125 210.589844 99.804688 C 210.707031 99.253906 210.847656 98.714844 211.011719 98.179688 C 211.09375 97.933594 211.175781 97.683594 211.265625 97.4375 C 211.3125 97.304688 211.363281 97.175781 211.417969 97.042969 C 211.4375 96.980469 211.464844 96.914062 211.492188 96.851562 L 211.492188 96.769531 C 211.933594 95.738281 212.46875 94.753906 213.09375 93.820312 C 213.234375 93.605469 213.386719 93.378906 213.539062 93.171875 C 213.617188 93.058594 213.703125 92.945312 213.785156 92.835938 L 213.835938 92.769531 L 213.976562 92.597656 C 214.328125 92.152344 214.699219 91.734375 215.089844 91.324219 C 215.480469 90.917969 215.859375 90.554688 216.261719 90.191406 C 216.472656 90.003906 216.707031 89.820312 216.902344 89.640625 L 217.230469 89.378906 L 217.289062 89.332031 L 217.433594 89.226562 C 217.890625 88.878906 218.375 88.566406 218.882812 88.292969 C 219.121094 88.164062 219.367188 88.042969 219.613281 87.933594 C 219.660156 87.933594 219.804688 87.859375 219.832031 87.84375 L 220.277344 87.683594 C 220.8125 87.507812 221.359375 87.371094 221.917969 87.277344 L 222.203125 87.238281 C 222.328125 87.21875 222.453125 87.207031 222.574219 87.195312 C 222.855469 87.171875 223.140625 87.15625 223.425781 87.152344 C 225.660156 87.109375 227.765625 87.613281 229.738281 88.664062 C 230.183594 88.902344 230.613281 89.167969 231.027344 89.460938 L 231.277344 89.648438 L 231.414062 89.761719 C 231.617188 89.929688 231.808594 90.097656 231.988281 90.269531 C 232.320312 90.582031 232.625 90.917969 232.914062 91.273438 C 232.949219 91.316406 232.984375 91.355469 233.015625 91.402344 C 233.074219 91.484375 233.140625 91.566406 233.199219 91.644531 C 233.339844 91.851562 233.476562 92.058594 233.605469 92.265625 C 233.855469 92.667969 234.078125 93.078125 234.277344 93.507812 C 234.328125 93.613281 234.371094 93.722656 234.425781 93.828125 C 234.441406 93.863281 234.457031 93.898438 234.46875 93.9375 C 234.566406 94.171875 234.65625 94.410156 234.734375 94.652344 C 235.054688 95.59375 235.289062 96.550781 235.445312 97.53125 C 235.445312 97.644531 235.476562 97.753906 235.496094 97.867188 C 235.496094 97.90625 235.496094 97.945312 235.496094 97.984375 C 235.496094 98.007812 235.496094 98.03125 235.496094 98.054688 C 235.527344 98.3125 235.558594 98.570312 235.582031 98.832031 C 235.632812 99.40625 235.664062 99.988281 235.6875 100.566406 C 235.734375 101.851562 235.734375 103.140625 235.6875 104.421875 C 235.585938 106.941406 235.28125 109.4375 234.769531 111.90625 C 234.253906 114.4375 233.554688 116.917969 232.675781 119.34375 C 231.824219 121.707031 230.808594 124 229.621094 126.21875 C 228.472656 128.390625 227.304688 130.566406 226.160156 132.746094 C 223.710938 137.417969 221.210938 142.070312 218.359375 146.511719 C 217.953125 147.148438 217.53125 147.789062 217.101562 148.417969 C 214.128906 143.535156 211.003906 138.753906 207.957031 133.917969 C 206.578125 131.726562 205.226562 129.515625 203.957031 127.261719 C 203.363281 126.195312 202.792969 125.113281 202.25 124.015625 C 201.988281 123.488281 201.734375 122.957031 201.488281 122.417969 L 201.167969 121.699219 L 200.996094 121.296875 L 200.960938 121.21875 C 200.960938 121.191406 200.875 121.015625 200.867188 120.992188 C 199.984375 118.855469 199.277344 116.660156 198.746094 114.414062 C 198.46875 113.257812 198.242188 112.085938 198.070312 110.910156 L 198.015625 110.535156 C 198.015625 110.535156 197.984375 110.296875 197.976562 110.242188 C 197.9375 109.917969 197.902344 109.59375 197.863281 109.269531 C 197.804688 108.644531 197.75 108.015625 197.714844 107.378906 C 197.621094 106.089844 197.621094 104.800781 197.714844 103.511719 C 197.714844 103.210938 197.765625 102.914062 197.804688 102.625 C 197.804688 102.566406 197.84375 102.355469 197.804688 102.582031 L 197.828125 102.390625 C 197.855469 102.203125 197.886719 102.015625 197.921875 101.824219 C 198.035156 101.199219 198.171875 100.582031 198.339844 99.96875 C 198.511719 99.355469 198.699219 98.75 198.917969 98.152344 C 199.027344 97.851562 199.144531 97.558594 199.265625 97.265625 C 199.277344 97.242188 199.289062 97.21875 199.296875 97.195312 C 199.320312 97.152344 199.335938 97.101562 199.359375 97.058594 C 199.429688 96.894531 199.5 96.738281 199.578125 96.578125 C 200.121094 95.421875 200.753906 94.3125 201.476562 93.257812 C 201.65625 92.996094 201.839844 92.734375 202.03125 92.476562 L 202.148438 92.324219 L 202.246094 92.195312 C 202.28125 92.152344 202.332031 92.082031 202.332031 92.085938 L 202.511719 91.863281 C 202.917969 91.367188 203.339844 90.886719 203.777344 90.425781 C 204.222656 89.980469 204.667969 89.535156 205.15625 89.09375 C 205.390625 88.878906 205.636719 88.675781 205.882812 88.472656 L 206.21875 88.199219 L 206.347656 88.097656 L 206.492188 87.988281 C 207.511719 87.222656 208.589844 86.546875 209.726562 85.964844 C 210.007812 85.820312 210.296875 85.679688 210.585938 85.546875 L 211.03125 85.355469 L 211.082031 85.355469 L 211.300781 85.265625 C 211.890625 85.027344 212.496094 84.820312 213.105469 84.636719 C 213.714844 84.449219 214.34375 84.300781 214.96875 84.191406 C 215.105469 84.152344 215.230469 84.089844 215.34375 84 C 215.457031 83.910156 215.550781 83.804688 215.621094 83.679688 C 215.691406 83.554688 215.734375 83.421875 215.75 83.28125 C 215.769531 83.136719 215.757812 82.996094 215.71875 82.859375 C 215.679688 82.722656 215.613281 82.597656 215.523438 82.488281 C 215.4375 82.375 215.328125 82.285156 215.203125 82.214844 C 215.082031 82.144531 214.949219 82.101562 214.804688 82.082031 C 214.664062 82.066406 214.523438 82.074219 214.386719 82.109375 C 211.757812 82.667969 209.300781 83.652344 207.011719 85.058594 C 204.722656 86.460938 202.734375 88.207031 201.046875 90.296875 C 197.632812 94.457031 195.503906 99.679688 195.480469 105.097656 C 195.480469 110.148438 196.355469 115.042969 198.105469 119.78125 C 199.839844 124.414062 202.308594 128.808594 204.929688 133.058594 Z M 224.195312 102.132812 Z M 224.195312 102.132812 " fill-opacity="1" fill-rule="nonzero"/><g fill="#e05060" fill-opacity="1"><g transform="translate(91.136717, 327.248124)"><g><path d="M 24.109375 -31.4375 C 24.742188 -31.4375 25.257812 -31.25 25.65625 -30.875 C 26.0625 -30.5 26.265625 -30 26.265625 -29.375 C 26.265625 -28.738281 26.0625 -28.238281 25.65625 -27.875 C 25.257812 -27.519531 24.742188 -27.34375 24.109375 -27.34375 L 16.125 -27.34375 L 16.125 -2.15625 C 16.125 -1.550781 15.90625 -1.039062 15.46875 -0.625 C 15.03125 -0.207031 14.484375 0 13.828125 0 C 13.171875 0 12.625 -0.207031 12.1875 -0.625 C 11.757812 -1.039062 11.546875 -1.550781 11.546875 -2.15625 L 11.546875 -27.34375 L 3.59375 -27.34375 C 2.96875 -27.34375 2.453125 -27.53125 2.046875 -27.90625 C 1.640625 -28.28125 1.4375 -28.78125 1.4375 -29.40625 C 1.4375 -30.007812 1.640625 -30.5 2.046875 -30.875 C 2.453125 -31.25 2.96875 -31.4375 3.59375 -31.4375 Z M 24.109375 -31.4375 "/></g></g></g><g fill="#e05060" fill-opacity="1"><g transform="translate(118.84388, 327.248124)"><g><path d="M 14.90625 -24.0625 C 15.6875 -24.0625 16.359375 -23.859375 16.921875 -23.453125 C 17.492188 -23.054688 17.78125 -22.554688 17.78125 -21.953125 C 17.78125 -21.234375 17.59375 -20.6875 17.21875 -20.3125 C 16.84375 -19.945312 16.390625 -19.765625 15.859375 -19.765625 C 15.585938 -19.765625 15.179688 -19.851562 14.640625 -20.03125 C 14.015625 -20.238281 13.519531 -20.34375 13.15625 -20.34375 C 12.226562 -20.34375 11.320312 -20.019531 10.4375 -19.375 C 9.550781 -18.726562 8.832031 -17.84375 8.28125 -16.71875 C 7.726562 -15.601562 7.453125 -14.359375 7.453125 -12.984375 L 7.453125 -2.15625 C 7.453125 -1.550781 7.25 -1.039062 6.84375 -0.625 C 6.4375 -0.207031 5.921875 0 5.296875 0 C 4.671875 0 4.160156 -0.203125 3.765625 -0.609375 C 3.378906 -1.015625 3.1875 -1.53125 3.1875 -2.15625 L 3.1875 -21.375 C 3.1875 -21.976562 3.390625 -22.488281 3.796875 -22.90625 C 4.203125 -23.320312 4.703125 -23.53125 5.296875 -23.53125 C 5.921875 -23.53125 6.4375 -23.320312 6.84375 -22.90625 C 7.25 -22.488281 7.453125 -21.976562 7.453125 -21.375 L 7.453125 -19.078125 C 8.109375 -20.546875 9.09375 -21.738281 10.40625 -22.65625 C 11.726562 -23.570312 13.226562 -24.039062 14.90625 -24.0625 Z M 14.90625 -24.0625 "/></g></g></g><g fill="#e05060" fill-opacity="1"><g transform="translate(137.390162, 327.248124)"><g><path d="M 22.28125 -23.84375 C 22.90625 -23.84375 23.414062 -23.640625 23.8125 -23.234375 C 24.21875 -22.828125 24.421875 -22.296875 24.421875 -21.640625 L 24.421875 -2.15625 C 24.421875 -1.550781 24.21875 -1.039062 23.8125 -0.625 C 23.414062 -0.207031 22.90625 0 22.28125 0 C 21.644531 0 21.128906 -0.203125 20.734375 -0.609375 C 20.347656 -1.015625 20.15625 -1.53125 20.15625 -2.15625 L 20.15625 -3.328125 C 19.382812 -2.273438 18.320312 -1.378906 16.96875 -0.640625 C 15.625 0.0859375 14.175781 0.453125 12.625 0.453125 C 10.582031 0.453125 8.726562 -0.0664062 7.0625 -1.109375 C 5.40625 -2.160156 4.101562 -3.625 3.15625 -5.5 C 2.21875 -7.375 1.75 -9.476562 1.75 -11.8125 C 1.75 -14.144531 2.21875 -16.242188 3.15625 -18.109375 C 4.101562 -19.984375 5.398438 -21.441406 7.046875 -22.484375 C 8.691406 -23.535156 10.503906 -24.0625 12.484375 -24.0625 C 14.066406 -24.0625 15.539062 -23.734375 16.90625 -23.078125 C 18.269531 -22.421875 19.351562 -21.582031 20.15625 -20.5625 L 20.15625 -21.640625 C 20.15625 -22.273438 20.347656 -22.800781 20.734375 -23.21875 C 21.128906 -23.632812 21.644531 -23.84375 22.28125 -23.84375 Z M 13.109375 -3.5 C 14.515625 -3.5 15.765625 -3.859375 16.859375 -4.578125 C 17.953125 -5.296875 18.804688 -6.285156 19.421875 -7.546875 C 20.035156 -8.804688 20.34375 -10.226562 20.34375 -11.8125 C 20.34375 -13.363281 20.035156 -14.769531 19.421875 -16.03125 C 18.804688 -17.289062 17.953125 -18.285156 16.859375 -19.015625 C 15.765625 -19.753906 14.515625 -20.125 13.109375 -20.125 C 11.703125 -20.125 10.453125 -19.765625 9.359375 -19.046875 C 8.265625 -18.328125 7.410156 -17.335938 6.796875 -16.078125 C 6.179688 -14.816406 5.875 -13.394531 5.875 -11.8125 C 5.875 -10.226562 6.179688 -8.804688 6.796875 -7.546875 C 7.410156 -6.285156 8.265625 -5.296875 9.359375 -4.578125 C 10.453125 -3.859375 11.703125 -3.5 13.109375 -3.5 Z M 13.109375 -3.5 "/></g></g></g><g fill="#e05060" fill-opacity="1"><g transform="translate(164.962605, 327.248124)"><g><path d="M 21.15625 -23.75 C 21.71875 -23.75 22.191406 -23.5625 22.578125 -23.1875 C 22.972656 -22.8125 23.171875 -22.375 23.171875 -21.875 C 23.171875 -21.601562 23.066406 -21.226562 22.859375 -20.75 L 14.328125 -1.34375 C 14.148438 -0.957031 13.894531 -0.644531 13.5625 -0.40625 C 13.226562 -0.164062 12.867188 -0.03125 12.484375 0 C 12.003906 0.0625 11.5625 -0.0234375 11.15625 -0.265625 C 10.75 -0.503906 10.441406 -0.863281 10.234375 -1.34375 L 1.703125 -20.75 C 1.554688 -21.195312 1.484375 -21.570312 1.484375 -21.875 C 1.484375 -22.351562 1.675781 -22.785156 2.0625 -23.171875 C 2.457031 -23.554688 2.96875 -23.75 3.59375 -23.75 C 4.039062 -23.75 4.441406 -23.632812 4.796875 -23.40625 C 5.160156 -23.1875 5.445312 -22.851562 5.65625 -22.40625 L 12.4375 -6.640625 L 19.21875 -22.40625 C 19.632812 -23.300781 20.28125 -23.75 21.15625 -23.75 Z M 21.15625 -23.75 "/></g></g></g><g fill="#e05060" fill-opacity="1"><g transform="translate(189.571235, 327.248124)"><g><path d="M 23.84375 -12.65625 C 23.8125 -12.125 23.585938 -11.671875 23.171875 -11.296875 C 22.753906 -10.921875 22.257812 -10.734375 21.6875 -10.734375 L 5.875 -10.734375 C 6.09375 -8.546875 6.925781 -6.789062 8.375 -5.46875 C 9.820312 -4.15625 11.597656 -3.5 13.703125 -3.5 C 15.140625 -3.5 16.304688 -3.707031 17.203125 -4.125 C 18.097656 -4.550781 18.890625 -5.09375 19.578125 -5.75 C 20.023438 -6.019531 20.457031 -6.15625 20.875 -6.15625 C 21.382812 -6.15625 21.8125 -5.972656 22.15625 -5.609375 C 22.5 -5.253906 22.671875 -4.835938 22.671875 -4.359375 C 22.671875 -3.722656 22.375 -3.15625 21.78125 -2.65625 C 20.914062 -1.78125 19.765625 -1.039062 18.328125 -0.4375 C 16.890625 0.15625 15.421875 0.453125 13.921875 0.453125 C 11.492188 0.453125 9.359375 -0.0546875 7.515625 -1.078125 C 5.679688 -2.097656 4.257812 -3.519531 3.25 -5.34375 C 2.25 -7.164062 1.75 -9.234375 1.75 -11.546875 C 1.75 -14.054688 2.265625 -16.257812 3.296875 -18.15625 C 4.328125 -20.0625 5.6875 -21.519531 7.375 -22.53125 C 9.070312 -23.550781 10.894531 -24.0625 12.84375 -24.0625 C 14.757812 -24.0625 16.554688 -23.566406 18.234375 -22.578125 C 19.910156 -21.597656 21.253906 -20.238281 22.265625 -18.5 C 23.285156 -16.757812 23.8125 -14.8125 23.84375 -12.65625 Z M 12.84375 -20.125 C 11.164062 -20.125 9.710938 -19.648438 8.484375 -18.703125 C 7.253906 -17.753906 6.445312 -16.296875 6.0625 -14.328125 L 19.3125 -14.328125 L 19.3125 -14.6875 C 19.15625 -16.269531 18.441406 -17.570312 17.171875 -18.59375 C 15.898438 -19.613281 14.457031 -20.125 12.84375 -20.125 Z M 12.84375 -20.125 "/></g></g></g><g fill="#e05060" fill-opacity="1"><g transform="translate(215.167799, 327.248124)"><g><path d="M 7.8125 -2.15625 C 7.8125 -1.550781 7.601562 -1.039062 7.1875 -0.625 C 6.769531 -0.207031 6.257812 0 5.65625 0 C 5.0625 0 4.5625 -0.207031 4.15625 -0.625 C 3.75 -1.039062 3.546875 -1.550781 3.546875 -2.15625 L 3.546875 -31.078125 C 3.546875 -31.671875 3.753906 -32.175781 4.171875 -32.59375 C 4.597656 -33.019531 5.109375 -33.234375 5.703125 -33.234375 C 6.296875 -33.234375 6.796875 -33.019531 7.203125 -32.59375 C 7.609375 -32.175781 7.8125 -31.671875 7.8125 -31.078125 Z M 7.8125 -2.15625 "/></g></g></g><g fill="#e05060" fill-opacity="1"><g transform="translate(226.52908, 327.248124)"><g><path d="M 13.25 0.453125 C 11.0625 0.453125 9.128906 0.144531 7.453125 -0.46875 C 5.773438 -1.082031 4.175781 -2.078125 2.65625 -3.453125 C 2.019531 -3.992188 1.703125 -4.609375 1.703125 -5.296875 C 1.703125 -5.835938 1.910156 -6.320312 2.328125 -6.75 C 2.753906 -7.1875 3.25 -7.40625 3.8125 -7.40625 C 4.320312 -7.40625 4.757812 -7.242188 5.125 -6.921875 C 6.320312 -5.804688 7.554688 -4.988281 8.828125 -4.46875 C 10.097656 -3.945312 11.539062 -3.6875 13.15625 -3.6875 C 15.039062 -3.6875 16.632812 -4.117188 17.9375 -4.984375 C 19.238281 -5.847656 19.890625 -6.941406 19.890625 -8.265625 C 19.859375 -9.816406 19.207031 -11.019531 17.9375 -11.875 C 16.664062 -12.726562 14.726562 -13.441406 12.125 -14.015625 C 9.039062 -14.640625 6.664062 -15.671875 5 -17.109375 C 3.34375 -18.546875 2.515625 -20.535156 2.515625 -23.078125 C 2.515625 -24.847656 2.976562 -26.398438 3.90625 -27.734375 C 4.832031 -29.066406 6.117188 -30.09375 7.765625 -30.8125 C 9.410156 -31.53125 11.269531 -31.890625 13.34375 -31.890625 C 15.195312 -31.890625 16.945312 -31.585938 18.59375 -30.984375 C 20.238281 -30.390625 21.570312 -29.597656 22.59375 -28.609375 C 23.28125 -28.003906 23.625 -27.359375 23.625 -26.671875 C 23.625 -26.128906 23.421875 -25.648438 23.015625 -25.234375 C 22.609375 -24.816406 22.125 -24.609375 21.5625 -24.609375 C 21.132812 -24.609375 20.785156 -24.726562 20.515625 -24.96875 C 19.742188 -25.75 18.664062 -26.40625 17.28125 -26.9375 C 15.90625 -27.476562 14.59375 -27.75 13.34375 -27.75 C 11.332031 -27.75 9.734375 -27.335938 8.546875 -26.515625 C 7.367188 -25.691406 6.78125 -24.609375 6.78125 -23.265625 C 6.78125 -21.796875 7.367188 -20.671875 8.546875 -19.890625 C 9.734375 -19.109375 11.492188 -18.453125 13.828125 -17.921875 C 16.160156 -17.410156 18.066406 -16.8125 19.546875 -16.125 C 21.035156 -15.4375 22.179688 -14.476562 22.984375 -13.25 C 23.796875 -12.019531 24.203125 -10.414062 24.203125 -8.4375 C 24.203125 -6.707031 23.710938 -5.164062 22.734375 -3.8125 C 21.765625 -2.46875 20.441406 -1.421875 18.765625 -0.671875 C 17.085938 0.078125 15.25 0.453125 13.25 0.453125 Z M 13.25 0.453125 "/></g></g></g><g fill="#e05060" fill-opacity="1"><g transform="translate(252.664524, 327.248124)"><g><path d="M 26.8125 -16.53125 C 27.40625 -16.53125 27.90625 -16.316406 28.3125 -15.890625 C 28.71875 -15.472656 28.921875 -14.96875 28.921875 -14.375 L 28.921875 -4.265625 C 28.921875 -3.453125 28.5625 -2.820312 27.84375 -2.375 C 26.46875 -1.476562 24.957031 -0.78125 23.3125 -0.28125 C 21.664062 0.207031 19.972656 0.453125 18.234375 0.453125 C 15.234375 0.453125 12.484375 -0.265625 9.984375 -1.703125 C 7.484375 -3.140625 5.515625 -5.09375 4.078125 -7.5625 C 2.648438 -10.03125 1.9375 -12.75 1.9375 -15.71875 C 1.9375 -18.675781 2.648438 -21.390625 4.078125 -23.859375 C 5.515625 -26.335938 7.484375 -28.296875 9.984375 -29.734375 C 12.484375 -31.171875 15.234375 -31.890625 18.234375 -31.890625 C 19.734375 -31.890625 21.175781 -31.722656 22.5625 -31.390625 C 23.957031 -31.054688 25.207031 -30.5625 26.3125 -29.90625 C 26.675781 -29.695312 26.945312 -29.441406 27.125 -29.140625 C 27.300781 -28.835938 27.390625 -28.507812 27.390625 -28.15625 C 27.390625 -27.5625 27.1875 -27.046875 26.78125 -26.609375 C 26.382812 -26.171875 25.898438 -25.953125 25.328125 -25.953125 C 24.878906 -25.953125 24.488281 -26.054688 24.15625 -26.265625 C 22.207031 -27.171875 20.234375 -27.625 18.234375 -27.625 C 16.078125 -27.625 14.109375 -27.097656 12.328125 -26.046875 C 10.546875 -24.992188 9.140625 -23.554688 8.109375 -21.734375 C 7.078125 -19.910156 6.5625 -17.90625 6.5625 -15.71875 C 6.5625 -13.53125 7.078125 -11.53125 8.109375 -9.71875 C 9.140625 -7.90625 10.546875 -6.46875 12.328125 -5.40625 C 14.109375 -4.34375 16.078125 -3.8125 18.234375 -3.8125 C 19.253906 -3.8125 20.320312 -3.929688 21.4375 -4.171875 C 22.5625 -4.410156 23.53125 -4.726562 24.34375 -5.125 L 24.34375 -12.265625 L 18.90625 -12.265625 C 18.300781 -12.265625 17.789062 -12.460938 17.375 -12.859375 C 16.957031 -13.265625 16.75 -13.769531 16.75 -14.375 C 16.75 -15 16.957031 -15.515625 17.375 -15.921875 C 17.789062 -16.328125 18.300781 -16.53125 18.90625 -16.53125 Z M 26.8125 -16.53125 "/></g></g></g><g fill="#e05060" fill-opacity="1"><g transform="translate(39.160475, 369.764772)"><g><path d="M 5.875 0.453125 C 5.53125 0.453125 5.253906 0.351562 5.046875 0.15625 C 4.847656 -0.0390625 4.710938 -0.28125 4.640625 -0.5625 L 0.671875 -14.125 C 0.628906 -14.257812 0.59375 -14.390625 0.5625 -14.515625 C 0.488281 -14.742188 0.453125 -14.953125 0.453125 -15.140625 C 0.453125 -15.367188 0.53125 -15.578125 0.6875 -15.765625 C 0.84375 -15.953125 1.066406 -16.046875 1.359375 -16.046875 C 1.585938 -16.046875 1.78125 -15.972656 1.9375 -15.828125 C 2.101562 -15.691406 2.210938 -15.539062 2.265625 -15.375 L 5.828125 -2.9375 L 5.921875 -2.9375 L 9.390625 -15.03125 C 9.460938 -15.320312 9.597656 -15.5625 9.796875 -15.75 C 10.003906 -15.945312 10.28125 -16.046875 10.625 -16.046875 C 10.96875 -16.046875 11.238281 -15.945312 11.4375 -15.75 C 11.644531 -15.5625 11.789062 -15.320312 11.875 -15.03125 L 15.328125 -2.9375 L 15.421875 -2.9375 L 18.984375 -15.375 C 19.035156 -15.539062 19.144531 -15.691406 19.3125 -15.828125 C 19.476562 -15.972656 19.671875 -16.046875 19.890625 -16.046875 C 20.179688 -16.046875 20.40625 -15.953125 20.5625 -15.765625 C 20.71875 -15.578125 20.796875 -15.367188 20.796875 -15.140625 C 20.796875 -15.054688 20.785156 -14.957031 20.765625 -14.84375 C 20.742188 -14.726562 20.71875 -14.617188 20.6875 -14.515625 C 20.644531 -14.390625 20.609375 -14.257812 20.578125 -14.125 L 16.625 -0.5625 C 16.539062 -0.28125 16.394531 -0.0390625 16.1875 0.15625 C 15.988281 0.351562 15.71875 0.453125 15.375 0.453125 C 15.03125 0.453125 14.753906 0.351562 14.546875 0.15625 C 14.347656 -0.0390625 14.207031 -0.28125 14.125 -0.5625 L 10.671875 -12.78125 L 10.578125 -12.78125 L 7.125 -0.5625 C 7.050781 -0.28125 6.910156 -0.0390625 6.703125 0.15625 C 6.503906 0.351562 6.226562 0.453125 5.875 0.453125 Z M 5.875 0.453125 "/></g></g></g><g fill="#e05060" fill-opacity="1"><g transform="translate(62.388381, 369.764772)"><g><path d="M 2.9375 0 C 2.65625 0 2.429688 -0.09375 2.265625 -0.28125 C 2.109375 -0.46875 2.03125 -0.675781 2.03125 -0.90625 L 2.03125 -14.921875 C 2.03125 -15.148438 2.109375 -15.359375 2.265625 -15.546875 C 2.429688 -15.734375 2.65625 -15.828125 2.9375 -15.828125 L 12.09375 -15.828125 C 12.382812 -15.828125 12.609375 -15.75 12.765625 -15.59375 C 12.921875 -15.445312 13 -15.257812 13 -15.03125 C 13 -14.8125 12.921875 -14.625 12.765625 -14.46875 C 12.609375 -14.320312 12.382812 -14.25 12.09375 -14.25 L 3.84375 -14.25 L 3.84375 -8.8125 L 9.953125 -8.8125 C 10.234375 -8.8125 10.453125 -8.734375 10.609375 -8.578125 C 10.773438 -8.429688 10.859375 -8.25 10.859375 -8.03125 C 10.859375 -7.800781 10.773438 -7.609375 10.609375 -7.453125 C 10.453125 -7.304688 10.234375 -7.234375 9.953125 -7.234375 L 3.84375 -7.234375 L 3.84375 -1.578125 L 12.328125 -1.578125 C 12.609375 -1.578125 12.828125 -1.5 12.984375 -1.34375 C 13.140625 -1.195312 13.21875 -1.015625 13.21875 -0.796875 C 13.21875 -0.566406 13.140625 -0.375 12.984375 -0.21875 C 12.828125 -0.0703125 12.609375 0 12.328125 0 Z M 2.9375 0 "/></g></g></g><g fill="#e05060" fill-opacity="1"><g transform="translate(78.047405, 369.764772)"><g><path d="M 2.375 -10.0625 C 2.144531 -10.0625 1.976562 -10.128906 1.875 -10.265625 C 1.769531 -10.410156 1.710938 -10.566406 1.703125 -10.734375 L 1.46875 -15.140625 C 1.46875 -15.367188 1.546875 -15.578125 1.703125 -15.765625 C 1.859375 -15.953125 2.082031 -16.046875 2.375 -16.046875 C 2.65625 -16.046875 2.875 -15.953125 3.03125 -15.765625 C 3.195312 -15.578125 3.28125 -15.367188 3.28125 -15.140625 L 3.046875 -10.734375 C 3.035156 -10.566406 2.976562 -10.410156 2.875 -10.265625 C 2.769531 -10.128906 2.601562 -10.0625 2.375 -10.0625 Z M 2.375 -10.0625 "/></g></g></g><g fill="#e05060" fill-opacity="1"><g transform="translate(84.781927, 369.764772)"><g><path d="M 2.9375 0 C 2.65625 0 2.429688 -0.09375 2.265625 -0.28125 C 2.109375 -0.46875 2.03125 -0.675781 2.03125 -0.90625 L 2.03125 -15.140625 C 2.03125 -15.367188 2.109375 -15.578125 2.265625 -15.765625 C 2.429688 -15.953125 2.65625 -16.046875 2.9375 -16.046875 C 3.226562 -16.046875 3.453125 -15.953125 3.609375 -15.765625 C 3.765625 -15.578125 3.84375 -15.367188 3.84375 -15.140625 L 3.84375 -1.578125 L 11.078125 -1.578125 C 11.367188 -1.578125 11.59375 -1.5 11.75 -1.34375 C 11.90625 -1.195312 11.984375 -1.015625 11.984375 -0.796875 C 11.984375 -0.566406 11.90625 -0.375 11.75 -0.21875 C 11.59375 -0.0703125 11.367188 0 11.078125 0 Z M 2.9375 0 "/></g></g></g><g fill="#e05060" fill-opacity="1"><g transform="translate(98.972353, 369.764772)"><g><path d="M 2.9375 0 C 2.65625 0 2.429688 -0.09375 2.265625 -0.28125 C 2.109375 -0.46875 2.03125 -0.675781 2.03125 -0.90625 L 2.03125 -15.140625 C 2.03125 -15.367188 2.109375 -15.578125 2.265625 -15.765625 C 2.429688 -15.953125 2.65625 -16.046875 2.9375 -16.046875 C 3.226562 -16.046875 3.453125 -15.953125 3.609375 -15.765625 C 3.765625 -15.578125 3.84375 -15.367188 3.84375 -15.140625 L 3.84375 -1.578125 L 11.078125 -1.578125 C 11.367188 -1.578125 11.59375 -1.5 11.75 -1.34375 C 11.90625 -1.195312 11.984375 -1.015625 11.984375 -0.796875 C 11.984375 -0.566406 11.90625 -0.375 11.75 -0.21875 C 11.59375 -0.0703125 11.367188 0 11.078125 0 Z M 2.9375 0 "/></g></g></g><g fill="#e05060" fill-opacity="1"><g transform="translate(113.16278, 369.764772)"><g/></g></g><g fill="#e05060" fill-opacity="1"><g transform="translate(120.575112, 369.764772)"><g><path d="M 6.328125 0.21875 C 6.046875 0.21875 5.820312 0.125 5.65625 -0.0625 C 5.5 -0.25 5.421875 -0.453125 5.421875 -0.671875 L 5.421875 -14.25 L 1.125 -14.25 C 0.84375 -14.25 0.617188 -14.320312 0.453125 -14.46875 C 0.296875 -14.625 0.21875 -14.8125 0.21875 -15.03125 C 0.21875 -15.257812 0.296875 -15.445312 0.453125 -15.59375 C 0.617188 -15.75 0.84375 -15.828125 1.125 -15.828125 L 11.53125 -15.828125 C 11.8125 -15.828125 12.03125 -15.75 12.1875 -15.59375 C 12.351562 -15.445312 12.4375 -15.257812 12.4375 -15.03125 C 12.4375 -14.8125 12.351562 -14.625 12.1875 -14.46875 C 12.03125 -14.320312 11.8125 -14.25 11.53125 -14.25 L 7.234375 -14.25 L 7.234375 -0.671875 C 7.234375 -0.453125 7.15625 -0.25 7 -0.0625 C 6.84375 0.125 6.617188 0.21875 6.328125 0.21875 Z M 6.328125 0.21875 "/></g></g></g><g fill="#e05060" fill-opacity="1"><g transform="translate(135.217414, 369.764772)"><g><path d="M 1.25 0.21875 C 0.957031 0.21875 0.734375 0.125 0.578125 -0.0625 C 0.421875 -0.25 0.34375 -0.453125 0.34375 -0.671875 C 0.34375 -0.765625 0.359375 -0.875 0.390625 -1 C 0.398438 -1.050781 0.421875 -1.09375 0.453125 -1.125 L 5.875 -15.03125 C 6.0625 -15.488281 6.25 -15.8125 6.4375 -16 C 6.625 -16.1875 6.890625 -16.28125 7.234375 -16.28125 C 7.578125 -16.28125 7.84375 -16.1875 8.03125 -16 C 8.21875 -15.8125 8.40625 -15.488281 8.59375 -15.03125 L 14.015625 -1.125 C 14.035156 -1.09375 14.050781 -1.050781 14.0625 -1 C 14.070312 -0.945312 14.082031 -0.894531 14.09375 -0.84375 C 14.113281 -0.789062 14.125 -0.734375 14.125 -0.671875 C 14.125 -0.453125 14.046875 -0.25 13.890625 -0.0625 C 13.734375 0.125 13.507812 0.21875 13.21875 0.21875 C 13 0.21875 12.820312 0.15625 12.6875 0.03125 C 12.550781 -0.0820312 12.429688 -0.28125 12.328125 -0.5625 L 10.96875 -4.1875 L 3.5 -4.1875 L 2.140625 -0.5625 C 2.035156 -0.28125 1.914062 -0.0820312 1.78125 0.03125 C 1.644531 0.15625 1.46875 0.21875 1.25 0.21875 Z M 10.28125 -5.765625 L 7.28125 -13.796875 L 7.1875 -13.796875 L 4.1875 -5.765625 Z M 10.28125 -5.765625 "/></g></g></g><g fill="#e05060" fill-opacity="1"><g transform="translate(151.667219, 369.764772)"><g><path d="M 2.9375 0.21875 C 2.65625 0.21875 2.429688 0.125 2.265625 -0.0625 C 2.109375 -0.25 2.03125 -0.453125 2.03125 -0.671875 L 2.03125 -15.140625 C 2.03125 -15.367188 2.109375 -15.578125 2.265625 -15.765625 C 2.429688 -15.953125 2.65625 -16.046875 2.9375 -16.046875 C 3.226562 -16.046875 3.453125 -15.953125 3.609375 -15.765625 C 3.765625 -15.578125 3.84375 -15.367188 3.84375 -15.140625 L 3.84375 -9.046875 L 7.125 -9.046875 L 11.875 -15.59375 C 11.945312 -15.71875 12.039062 -15.820312 12.15625 -15.90625 C 12.269531 -16 12.4375 -16.046875 12.65625 -16.046875 C 12.945312 -16.046875 13.171875 -15.953125 13.328125 -15.765625 C 13.484375 -15.578125 13.5625 -15.367188 13.5625 -15.140625 C 13.5625 -14.984375 13.515625 -14.828125 13.421875 -14.671875 C 13.335938 -14.523438 13.269531 -14.421875 13.21875 -14.359375 L 8.703125 -8.25 L 13.671875 -1.46875 C 13.722656 -1.40625 13.789062 -1.296875 13.875 -1.140625 C 13.96875 -0.992188 14.015625 -0.835938 14.015625 -0.671875 C 14.015625 -0.453125 13.9375 -0.25 13.78125 -0.0625 C 13.625 0.125 13.398438 0.21875 13.109375 0.21875 C 12.890625 0.21875 12.722656 0.171875 12.609375 0.078125 C 12.492188 -0.00390625 12.398438 -0.101562 12.328125 -0.21875 L 7.125 -7.34375 L 3.84375 -7.34375 L 3.84375 -0.671875 C 3.84375 -0.453125 3.765625 -0.25 3.609375 -0.0625 C 3.453125 0.125 3.226562 0.21875 2.9375 0.21875 Z M 2.9375 0.21875 "/></g></g></g><g fill="#e05060" fill-opacity="1"><g transform="translate(168.117024, 369.764772)"><g><path d="M 2.9375 0 C 2.65625 0 2.429688 -0.09375 2.265625 -0.28125 C 2.109375 -0.46875 2.03125 -0.675781 2.03125 -0.90625 L 2.03125 -14.921875 C 2.03125 -15.148438 2.109375 -15.359375 2.265625 -15.546875 C 2.429688 -15.734375 2.65625 -15.828125 2.9375 -15.828125 L 12.09375 -15.828125 C 12.382812 -15.828125 12.609375 -15.75 12.765625 -15.59375 C 12.921875 -15.445312 13 -15.257812 13 -15.03125 C 13 -14.8125 12.921875 -14.625 12.765625 -14.46875 C 12.609375 -14.320312 12.382812 -14.25 12.09375 -14.25 L 3.84375 -14.25 L 3.84375 -8.8125 L 9.953125 -8.8125 C 10.234375 -8.8125 10.453125 -8.734375 10.609375 -8.578125 C 10.773438 -8.429688 10.859375 -8.25 10.859375 -8.03125 C 10.859375 -7.800781 10.773438 -7.609375 10.609375 -7.453125 C 10.453125 -7.304688 10.234375 -7.234375 9.953125 -7.234375 L 3.84375 -7.234375 L 3.84375 -1.578125 L 12.328125 -1.578125 C 12.609375 -1.578125 12.828125 -1.5 12.984375 -1.34375 C 13.140625 -1.195312 13.21875 -1.015625 13.21875 -0.796875 C 13.21875 -0.566406 13.140625 -0.375 12.984375 -0.21875 C 12.828125 -0.0703125 12.609375 0 12.328125 0 Z M 2.9375 0 "/></g></g></g><g fill="#e05060" fill-opacity="1"><g transform="translate(183.776043, 369.764772)"><g/></g></g><g fill="#e05060" fill-opacity="1"><g transform="translate(191.188381, 369.764772)"><g><path d="M 6.78125 0.21875 C 6.5 0.21875 6.273438 0.125 6.109375 -0.0625 C 5.953125 -0.25 5.875 -0.453125 5.875 -0.671875 L 5.875 -6.109375 L 0.5625 -14.359375 C 0.332031 -14.691406 0.21875 -14.953125 0.21875 -15.140625 C 0.21875 -15.367188 0.296875 -15.578125 0.453125 -15.765625 C 0.617188 -15.953125 0.84375 -16.046875 1.125 -16.046875 C 1.289062 -16.046875 1.429688 -16.007812 1.546875 -15.9375 C 1.671875 -15.875 1.796875 -15.757812 1.921875 -15.59375 L 6.734375 -8.03125 L 6.828125 -8.03125 L 11.640625 -15.59375 C 11.765625 -15.757812 11.882812 -15.875 12 -15.9375 C 12.125 -16.007812 12.269531 -16.046875 12.4375 -16.046875 C 12.71875 -16.046875 12.9375 -15.953125 13.09375 -15.765625 C 13.257812 -15.578125 13.34375 -15.367188 13.34375 -15.140625 C 13.34375 -14.953125 13.226562 -14.691406 13 -14.359375 L 7.6875 -6.109375 L 7.6875 -0.671875 C 7.6875 -0.453125 7.609375 -0.25 7.453125 -0.0625 C 7.296875 0.125 7.070312 0.21875 6.78125 0.21875 Z M 6.78125 0.21875 "/></g></g></g><g fill="#e05060" fill-opacity="1"><g transform="translate(206.734423, 369.764772)"><g><path d="M 7.90625 0.453125 C 6.976562 0.453125 6.125 0.300781 5.34375 0 C 4.570312 -0.3125 3.90625 -0.734375 3.34375 -1.265625 C 2.789062 -1.804688 2.359375 -2.441406 2.046875 -3.171875 C 1.734375 -3.898438 1.578125 -4.691406 1.578125 -5.546875 L 1.578125 -10.28125 C 1.578125 -11.125 1.734375 -11.910156 2.046875 -12.640625 C 2.359375 -13.378906 2.789062 -14.015625 3.34375 -14.546875 C 3.90625 -15.085938 4.570312 -15.507812 5.34375 -15.8125 C 6.125 -16.125 6.976562 -16.28125 7.90625 -16.28125 C 8.84375 -16.28125 9.695312 -16.125 10.46875 -15.8125 C 11.25 -15.507812 11.914062 -15.085938 12.46875 -14.546875 C 13.03125 -14.015625 13.46875 -13.378906 13.78125 -12.640625 C 14.09375 -11.910156 14.25 -11.125 14.25 -10.28125 L 14.25 -5.546875 C 14.25 -4.691406 14.09375 -3.898438 13.78125 -3.171875 C 13.46875 -2.441406 13.03125 -1.804688 12.46875 -1.265625 C 11.914062 -0.734375 11.25 -0.3125 10.46875 0 C 9.695312 0.300781 8.84375 0.453125 7.90625 0.453125 Z M 7.90625 -1.125 C 8.5625 -1.125 9.160156 -1.238281 9.703125 -1.46875 C 10.253906 -1.695312 10.734375 -2.003906 11.140625 -2.390625 C 11.546875 -2.785156 11.863281 -3.253906 12.09375 -3.796875 C 12.320312 -4.335938 12.4375 -4.921875 12.4375 -5.546875 L 12.4375 -10.28125 C 12.4375 -10.90625 12.320312 -11.484375 12.09375 -12.015625 C 11.863281 -12.546875 11.546875 -13.007812 11.140625 -13.40625 C 10.734375 -13.8125 10.253906 -14.128906 9.703125 -14.359375 C 9.160156 -14.585938 8.5625 -14.703125 7.90625 -14.703125 C 7.257812 -14.703125 6.660156 -14.585938 6.109375 -14.359375 C 5.566406 -14.128906 5.085938 -13.8125 4.671875 -13.40625 C 4.265625 -13.007812 3.945312 -12.546875 3.71875 -12.015625 C 3.5 -11.484375 3.390625 -10.90625 3.390625 -10.28125 L 3.390625 -5.546875 C 3.390625 -4.921875 3.5 -4.335938 3.71875 -3.796875 C 3.945312 -3.253906 4.265625 -2.785156 4.671875 -2.390625 C 5.085938 -2.003906 5.566406 -1.695312 6.109375 -1.46875 C 6.660156 -1.238281 7.257812 -1.125 7.90625 -1.125 Z M 7.90625 -1.125 "/></g></g></g><g fill="#e05060" fill-opacity="1"><g transform="translate(224.53985, 369.764772)"><g><path d="M 7.796875 0.453125 C 6.921875 0.453125 6.117188 0.304688 5.390625 0.015625 C 4.660156 -0.273438 4.023438 -0.671875 3.484375 -1.171875 C 2.953125 -1.679688 2.539062 -2.28125 2.25 -2.96875 C 1.957031 -3.65625 1.8125 -4.398438 1.8125 -5.203125 L 1.8125 -15.140625 C 1.8125 -15.367188 1.890625 -15.578125 2.046875 -15.765625 C 2.203125 -15.953125 2.425781 -16.046875 2.71875 -16.046875 C 3 -16.046875 3.21875 -15.953125 3.375 -15.765625 C 3.539062 -15.578125 3.625 -15.367188 3.625 -15.140625 L 3.625 -5.203125 C 3.625 -4.628906 3.726562 -4.097656 3.9375 -3.609375 C 4.144531 -3.117188 4.4375 -2.6875 4.8125 -2.3125 C 5.1875 -1.945312 5.628906 -1.65625 6.140625 -1.4375 C 6.660156 -1.226562 7.210938 -1.125 7.796875 -1.125 C 8.390625 -1.125 8.941406 -1.226562 9.453125 -1.4375 C 9.960938 -1.65625 10.40625 -1.945312 10.78125 -2.3125 C 11.15625 -2.6875 11.445312 -3.117188 11.65625 -3.609375 C 11.875 -4.097656 11.984375 -4.628906 11.984375 -5.203125 L 11.984375 -15.140625 C 11.984375 -15.367188 12.0625 -15.578125 12.21875 -15.765625 C 12.375 -15.953125 12.597656 -16.046875 12.890625 -16.046875 C 13.171875 -16.046875 13.390625 -15.953125 13.546875 -15.765625 C 13.710938 -15.578125 13.796875 -15.367188 13.796875 -15.140625 L 13.796875 -5.203125 C 13.796875 -4.398438 13.644531 -3.65625 13.34375 -2.96875 C 13.050781 -2.28125 12.640625 -1.679688 12.109375 -1.171875 C 11.578125 -0.671875 10.941406 -0.273438 10.203125 0.015625 C 9.472656 0.304688 8.671875 0.453125 7.796875 0.453125 Z M 7.796875 0.453125 "/></g></g></g><g fill="#e05060" fill-opacity="1"><g transform="translate(242.119324, 369.764772)"><g/></g></g><g fill="#e05060" fill-opacity="1"><g transform="translate(249.531662, 369.764772)"><g><path d="M 6.328125 0.21875 C 6.046875 0.21875 5.820312 0.125 5.65625 -0.0625 C 5.5 -0.25 5.421875 -0.453125 5.421875 -0.671875 L 5.421875 -14.25 L 1.125 -14.25 C 0.84375 -14.25 0.617188 -14.320312 0.453125 -14.46875 C 0.296875 -14.625 0.21875 -14.8125 0.21875 -15.03125 C 0.21875 -15.257812 0.296875 -15.445312 0.453125 -15.59375 C 0.617188 -15.75 0.84375 -15.828125 1.125 -15.828125 L 11.53125 -15.828125 C 11.8125 -15.828125 12.03125 -15.75 12.1875 -15.59375 C 12.351562 -15.445312 12.4375 -15.257812 12.4375 -15.03125 C 12.4375 -14.8125 12.351562 -14.625 12.1875 -14.46875 C 12.03125 -14.320312 11.8125 -14.25 11.53125 -14.25 L 7.234375 -14.25 L 7.234375 -0.671875 C 7.234375 -0.453125 7.15625 -0.25 7 -0.0625 C 6.84375 0.125 6.617188 0.21875 6.328125 0.21875 Z M 6.328125 0.21875 "/></g></g></g><g fill="#e05060" fill-opacity="1"><g transform="translate(264.173964, 369.764772)"><g><path d="M 2.9375 0.21875 C 2.65625 0.21875 2.429688 0.125 2.265625 -0.0625 C 2.109375 -0.25 2.03125 -0.453125 2.03125 -0.671875 L 2.03125 -15.140625 C 2.03125 -15.367188 2.109375 -15.578125 2.265625 -15.765625 C 2.429688 -15.953125 2.65625 -16.046875 2.9375 -16.046875 C 3.226562 -16.046875 3.453125 -15.953125 3.609375 -15.765625 C 3.765625 -15.578125 3.84375 -15.367188 3.84375 -15.140625 L 3.84375 -8.9375 L 12.203125 -8.9375 L 12.203125 -15.140625 C 12.203125 -15.367188 12.28125 -15.578125 12.4375 -15.765625 C 12.601562 -15.953125 12.828125 -16.046875 13.109375 -16.046875 C 13.398438 -16.046875 13.625 -15.953125 13.78125 -15.765625 C 13.9375 -15.578125 14.015625 -15.367188 14.015625 -15.140625 L 14.015625 -0.671875 C 14.015625 -0.453125 13.9375 -0.25 13.78125 -0.0625 C 13.625 0.125 13.398438 0.21875 13.109375 0.21875 C 12.828125 0.21875 12.601562 0.125 12.4375 -0.0625 C 12.28125 -0.25 12.203125 -0.453125 12.203125 -0.671875 L 12.203125 -7.34375 L 3.84375 -7.34375 L 3.84375 -0.671875 C 3.84375 -0.453125 3.765625 -0.25 3.609375 -0.0625 C 3.453125 0.125 3.226562 0.21875 2.9375 0.21875 Z M 2.9375 0.21875 "/></g></g></g><g fill="#e05060" fill-opacity="1"><g transform="translate(282.20532, 369.764772)"><g><path d="M 2.9375 0 C 2.65625 0 2.429688 -0.09375 2.265625 -0.28125 C 2.109375 -0.46875 2.03125 -0.675781 2.03125 -0.90625 L 2.03125 -14.921875 C 2.03125 -15.148438 2.109375 -15.359375 2.265625 -15.546875 C 2.429688 -15.734375 2.65625 -15.828125 2.9375 -15.828125 L 12.09375 -15.828125 C 12.382812 -15.828125 12.609375 -15.75 12.765625 -15.59375 C 12.921875 -15.445312 13 -15.257812 13 -15.03125 C 13 -14.8125 12.921875 -14.625 12.765625 -14.46875 C 12.609375 -14.320312 12.382812 -14.25 12.09375 -14.25 L 3.84375 -14.25 L 3.84375 -8.8125 L 9.953125 -8.8125 C 10.234375 -8.8125 10.453125 -8.734375 10.609375 -8.578125 C 10.773438 -8.429688 10.859375 -8.25 10.859375 -8.03125 C 10.859375 -7.800781 10.773438 -7.609375 10.609375 -7.453125 C 10.453125 -7.304688 10.234375 -7.234375 9.953125 -7.234375 L 3.84375 -7.234375 L 3.84375 -1.578125 L 12.328125 -1.578125 C 12.609375 -1.578125 12.828125 -1.5 12.984375 -1.34375 C 13.140625 -1.195312 13.21875 -1.015625 13.21875 -0.796875 C 13.21875 -0.566406 13.140625 -0.375 12.984375 -0.21875 C 12.828125 -0.0703125 12.609375 0 12.328125 0 Z M 2.9375 0 "/></g></g></g><g fill="#e05060" fill-opacity="1"><g transform="translate(297.864339, 369.764772)"><g><path d="M 2.9375 0.21875 C 2.65625 0.21875 2.429688 0.125 2.265625 -0.0625 C 2.109375 -0.25 2.03125 -0.453125 2.03125 -0.671875 L 2.03125 -14.921875 C 2.03125 -15.148438 2.109375 -15.359375 2.265625 -15.546875 C 2.429688 -15.734375 2.65625 -15.828125 2.9375 -15.828125 L 7.6875 -15.828125 C 8.59375 -15.828125 9.394531 -15.707031 10.09375 -15.46875 C 10.789062 -15.226562 11.378906 -14.898438 11.859375 -14.484375 C 12.347656 -14.066406 12.71875 -13.570312 12.96875 -13 C 13.21875 -12.4375 13.34375 -11.832031 13.34375 -11.1875 C 13.34375 -10.363281 13.164062 -9.679688 12.8125 -9.140625 C 12.46875 -8.609375 12.09375 -8.1875 11.6875 -7.875 C 11.207031 -7.488281 10.664062 -7.203125 10.0625 -7.015625 L 10.0625 -6.890625 L 13.90625 -1.46875 C 13.945312 -1.40625 14.015625 -1.296875 14.109375 -1.140625 C 14.203125 -0.992188 14.25 -0.835938 14.25 -0.671875 C 14.25 -0.453125 14.164062 -0.25 14 -0.0625 C 13.84375 0.125 13.625 0.21875 13.34375 0.21875 C 13.113281 0.21875 12.941406 0.171875 12.828125 0.078125 C 12.710938 -0.00390625 12.617188 -0.101562 12.546875 -0.21875 L 8.140625 -6.5625 L 3.84375 -6.5625 L 3.84375 -0.671875 C 3.84375 -0.453125 3.765625 -0.25 3.609375 -0.0625 C 3.453125 0.125 3.226562 0.21875 2.9375 0.21875 Z M 7.6875 -8.140625 C 8.300781 -8.140625 8.847656 -8.21875 9.328125 -8.375 C 9.816406 -8.53125 10.222656 -8.75 10.546875 -9.03125 C 10.867188 -9.3125 11.113281 -9.632812 11.28125 -10 C 11.445312 -10.375 11.53125 -10.769531 11.53125 -11.1875 C 11.53125 -11.613281 11.445312 -12.007812 11.28125 -12.375 C 11.113281 -12.75 10.867188 -13.070312 10.546875 -13.34375 C 10.222656 -13.625 9.816406 -13.84375 9.328125 -14 C 8.847656 -14.164062 8.300781 -14.25 7.6875 -14.25 L 3.84375 -14.25 L 3.84375 -8.140625 Z M 7.6875 -8.140625 "/></g></g></g><g fill="#e05060" fill-opacity="1"><g transform="translate(314.766002, 369.764772)"><g><path d="M 2.9375 0 C 2.65625 0 2.429688 -0.09375 2.265625 -0.28125 C 2.109375 -0.46875 2.03125 -0.675781 2.03125 -0.90625 L 2.03125 -14.921875 C 2.03125 -15.148438 2.109375 -15.359375 2.265625 -15.546875 C 2.429688 -15.734375 2.65625 -15.828125 2.9375 -15.828125 L 12.09375 -15.828125 C 12.382812 -15.828125 12.609375 -15.75 12.765625 -15.59375 C 12.921875 -15.445312 13 -15.257812 13 -15.03125 C 13 -14.8125 12.921875 -14.625 12.765625 -14.46875 C 12.609375 -14.320312 12.382812 -14.25 12.09375 -14.25 L 3.84375 -14.25 L 3.84375 -8.8125 L 9.953125 -8.8125 C 10.234375 -8.8125 10.453125 -8.734375 10.609375 -8.578125 C 10.773438 -8.429688 10.859375 -8.25 10.859375 -8.03125 C 10.859375 -7.800781 10.773438 -7.609375 10.609375 -7.453125 C 10.453125 -7.304688 10.234375 -7.234375 9.953125 -7.234375 L 3.84375 -7.234375 L 3.84375 -1.578125 L 12.328125 -1.578125 C 12.609375 -1.578125 12.828125 -1.5 12.984375 -1.34375 C 13.140625 -1.195312 13.21875 -1.015625 13.21875 -0.796875 C 13.21875 -0.566406 13.140625 -0.375 12.984375 -0.21875 C 12.828125 -0.0703125 12.609375 0 12.328125 0 Z M 2.9375 0 "/></g></g></g><g fill="#e05060" fill-opacity="1"><g transform="translate(330.418273, 369.764772)"><g/></g></g></svg>